G04 #@! TF.GenerationSoftware,KiCad,Pcbnew,(5.1.10)-1*
G04 #@! TF.CreationDate,2021-11-12T09:01:22+01:00*
G04 #@! TF.ProjectId,esp32,65737033-322e-46b6-9963-61645f706362,rev?*
G04 #@! TF.SameCoordinates,Original*
G04 #@! TF.FileFunction,Legend,Bot*
G04 #@! TF.FilePolarity,Positive*
%FSLAX46Y46*%
G04 Gerber Fmt 4.6, Leading zero omitted, Abs format (unit mm)*
G04 Created by KiCad (PCBNEW (5.1.10)-1) date 2021-11-12 09:01:22*
%MOMM*%
%LPD*%
G01*
G04 APERTURE LIST*
%ADD10C,0.150000*%
%ADD11C,0.100000*%
%ADD12C,0.120000*%
%ADD13R,1.600000X1.400000*%
%ADD14R,1.200000X2.200000*%
%ADD15C,1.000000*%
%ADD16R,0.700000X1.400000*%
%ADD17R,1.700000X1.700000*%
%ADD18O,1.700000X1.700000*%
G04 APERTURE END LIST*
D10*
X103051904Y-77398571D02*
X102718571Y-77398571D01*
X102575714Y-77922380D02*
X103051904Y-77922380D01*
X103051904Y-76922380D01*
X102575714Y-76922380D01*
X102194761Y-77874761D02*
X102051904Y-77922380D01*
X101813809Y-77922380D01*
X101718571Y-77874761D01*
X101670952Y-77827142D01*
X101623333Y-77731904D01*
X101623333Y-77636666D01*
X101670952Y-77541428D01*
X101718571Y-77493809D01*
X101813809Y-77446190D01*
X102004285Y-77398571D01*
X102099523Y-77350952D01*
X102147142Y-77303333D01*
X102194761Y-77208095D01*
X102194761Y-77112857D01*
X102147142Y-77017619D01*
X102099523Y-76970000D01*
X102004285Y-76922380D01*
X101766190Y-76922380D01*
X101623333Y-76970000D01*
X101194761Y-77922380D02*
X101194761Y-76922380D01*
X100813809Y-76922380D01*
X100718571Y-76970000D01*
X100670952Y-77017619D01*
X100623333Y-77112857D01*
X100623333Y-77255714D01*
X100670952Y-77350952D01*
X100718571Y-77398571D01*
X100813809Y-77446190D01*
X101194761Y-77446190D01*
X100290000Y-76922380D02*
X99670952Y-76922380D01*
X100004285Y-77303333D01*
X99861428Y-77303333D01*
X99766190Y-77350952D01*
X99718571Y-77398571D01*
X99670952Y-77493809D01*
X99670952Y-77731904D01*
X99718571Y-77827142D01*
X99766190Y-77874761D01*
X99861428Y-77922380D01*
X100147142Y-77922380D01*
X100242380Y-77874761D01*
X100290000Y-77827142D01*
X99290000Y-77017619D02*
X99242380Y-76970000D01*
X99147142Y-76922380D01*
X98909047Y-76922380D01*
X98813809Y-76970000D01*
X98766190Y-77017619D01*
X98718571Y-77112857D01*
X98718571Y-77208095D01*
X98766190Y-77350952D01*
X99337619Y-77922380D01*
X98718571Y-77922380D01*
X96956666Y-77827142D02*
X97004285Y-77874761D01*
X97147142Y-77922380D01*
X97242380Y-77922380D01*
X97385238Y-77874761D01*
X97480476Y-77779523D01*
X97528095Y-77684285D01*
X97575714Y-77493809D01*
X97575714Y-77350952D01*
X97528095Y-77160476D01*
X97480476Y-77065238D01*
X97385238Y-76970000D01*
X97242380Y-76922380D01*
X97147142Y-76922380D01*
X97004285Y-76970000D01*
X96956666Y-77017619D01*
X96575714Y-77636666D02*
X96099523Y-77636666D01*
X96670952Y-77922380D02*
X96337619Y-76922380D01*
X96004285Y-77922380D01*
X95670952Y-77922380D02*
X95670952Y-76922380D01*
X95099523Y-77922380D01*
X95099523Y-76922380D01*
X94004285Y-76922380D02*
X93670952Y-77922380D01*
X93337619Y-76922380D01*
X93051904Y-77017619D02*
X93004285Y-76970000D01*
X92909047Y-76922380D01*
X92670952Y-76922380D01*
X92575714Y-76970000D01*
X92528095Y-77017619D01*
X92480476Y-77112857D01*
X92480476Y-77208095D01*
X92528095Y-77350952D01*
X93099523Y-77922380D01*
X92480476Y-77922380D01*
D11*
X104270333Y-81142000D02*
X104303666Y-81175333D01*
X104403666Y-81208666D01*
X104470333Y-81208666D01*
X104570333Y-81175333D01*
X104637000Y-81108666D01*
X104670333Y-81042000D01*
X104703666Y-80908666D01*
X104703666Y-80808666D01*
X104670333Y-80675333D01*
X104637000Y-80608666D01*
X104570333Y-80542000D01*
X104470333Y-80508666D01*
X104403666Y-80508666D01*
X104303666Y-80542000D01*
X104270333Y-80575333D01*
X103870333Y-81208666D02*
X103937000Y-81175333D01*
X103970333Y-81108666D01*
X103970333Y-80508666D01*
X103503666Y-81208666D02*
X103570333Y-81175333D01*
X103603666Y-81142000D01*
X103637000Y-81075333D01*
X103637000Y-80875333D01*
X103603666Y-80808666D01*
X103570333Y-80775333D01*
X103503666Y-80742000D01*
X103403666Y-80742000D01*
X103337000Y-80775333D01*
X103303666Y-80808666D01*
X103270333Y-80875333D01*
X103270333Y-81075333D01*
X103303666Y-81142000D01*
X103337000Y-81175333D01*
X103403666Y-81208666D01*
X103503666Y-81208666D01*
X103003666Y-81175333D02*
X102937000Y-81208666D01*
X102803666Y-81208666D01*
X102737000Y-81175333D01*
X102703666Y-81108666D01*
X102703666Y-81075333D01*
X102737000Y-81008666D01*
X102803666Y-80975333D01*
X102903666Y-80975333D01*
X102970333Y-80942000D01*
X103003666Y-80875333D01*
X103003666Y-80842000D01*
X102970333Y-80775333D01*
X102903666Y-80742000D01*
X102803666Y-80742000D01*
X102737000Y-80775333D01*
X102137000Y-81175333D02*
X102203666Y-81208666D01*
X102337000Y-81208666D01*
X102403666Y-81175333D01*
X102437000Y-81108666D01*
X102437000Y-80842000D01*
X102403666Y-80775333D01*
X102337000Y-80742000D01*
X102203666Y-80742000D01*
X102137000Y-80775333D01*
X102103666Y-80842000D01*
X102103666Y-80908666D01*
X102437000Y-80975333D01*
X101503666Y-81208666D02*
X101503666Y-80508666D01*
X101503666Y-81175333D02*
X101570333Y-81208666D01*
X101703666Y-81208666D01*
X101770333Y-81175333D01*
X101803666Y-81142000D01*
X101837000Y-81075333D01*
X101837000Y-80875333D01*
X101803666Y-80808666D01*
X101770333Y-80775333D01*
X101703666Y-80742000D01*
X101570333Y-80742000D01*
X101503666Y-80775333D01*
X100637000Y-80842000D02*
X100103666Y-80842000D01*
X100103666Y-81042000D02*
X100637000Y-81042000D01*
X104670333Y-82358666D02*
X104670333Y-81658666D01*
X104337000Y-81892000D02*
X104337000Y-82358666D01*
X104337000Y-81958666D02*
X104303666Y-81925333D01*
X104237000Y-81892000D01*
X104137000Y-81892000D01*
X104070333Y-81925333D01*
X104037000Y-81992000D01*
X104037000Y-82358666D01*
X103803666Y-81892000D02*
X103537000Y-81892000D01*
X103703666Y-81658666D02*
X103703666Y-82258666D01*
X103670333Y-82325333D01*
X103603666Y-82358666D01*
X103537000Y-82358666D01*
X103303666Y-82292000D02*
X103270333Y-82325333D01*
X103303666Y-82358666D01*
X103337000Y-82325333D01*
X103303666Y-82292000D01*
X103303666Y-82358666D01*
X102037000Y-82292000D02*
X102070333Y-82325333D01*
X102170333Y-82358666D01*
X102237000Y-82358666D01*
X102337000Y-82325333D01*
X102403666Y-82258666D01*
X102437000Y-82192000D01*
X102470333Y-82058666D01*
X102470333Y-81958666D01*
X102437000Y-81825333D01*
X102403666Y-81758666D01*
X102337000Y-81692000D01*
X102237000Y-81658666D01*
X102170333Y-81658666D01*
X102070333Y-81692000D01*
X102037000Y-81725333D01*
X101770333Y-82158666D02*
X101437000Y-82158666D01*
X101837000Y-82358666D02*
X101603666Y-81658666D01*
X101370333Y-82358666D01*
X101137000Y-82358666D02*
X101137000Y-81658666D01*
X100737000Y-82358666D01*
X100737000Y-81658666D01*
X104670333Y-83508666D02*
X104670333Y-82808666D01*
X104270333Y-83508666D01*
X104270333Y-82808666D01*
X103837000Y-83508666D02*
X103903666Y-83475333D01*
X103937000Y-83442000D01*
X103970333Y-83375333D01*
X103970333Y-83175333D01*
X103937000Y-83108666D01*
X103903666Y-83075333D01*
X103837000Y-83042000D01*
X103737000Y-83042000D01*
X103670333Y-83075333D01*
X103637000Y-83108666D01*
X103603666Y-83175333D01*
X103603666Y-83375333D01*
X103637000Y-83442000D01*
X103670333Y-83475333D01*
X103737000Y-83508666D01*
X103837000Y-83508666D01*
X102770333Y-83508666D02*
X102770333Y-82808666D01*
X102537000Y-83308666D01*
X102303666Y-82808666D01*
X102303666Y-83508666D01*
X101570333Y-83442000D02*
X101603666Y-83475333D01*
X101703666Y-83508666D01*
X101770333Y-83508666D01*
X101870333Y-83475333D01*
X101937000Y-83408666D01*
X101970333Y-83342000D01*
X102003666Y-83208666D01*
X102003666Y-83108666D01*
X101970333Y-82975333D01*
X101937000Y-82908666D01*
X101870333Y-82842000D01*
X101770333Y-82808666D01*
X101703666Y-82808666D01*
X101603666Y-82842000D01*
X101570333Y-82875333D01*
X101270333Y-83508666D02*
X101270333Y-82808666D01*
X101003666Y-82808666D01*
X100937000Y-82842000D01*
X100903666Y-82875333D01*
X100870333Y-82942000D01*
X100870333Y-83042000D01*
X100903666Y-83108666D01*
X100937000Y-83142000D01*
X101003666Y-83175333D01*
X101270333Y-83175333D01*
X100603666Y-82875333D02*
X100570333Y-82842000D01*
X100503666Y-82808666D01*
X100337000Y-82808666D01*
X100270333Y-82842000D01*
X100237000Y-82875333D01*
X100203666Y-82942000D01*
X100203666Y-83008666D01*
X100237000Y-83108666D01*
X100637000Y-83508666D01*
X100203666Y-83508666D01*
X99570333Y-82808666D02*
X99903666Y-82808666D01*
X99937000Y-83142000D01*
X99903666Y-83108666D01*
X99837000Y-83075333D01*
X99670333Y-83075333D01*
X99603666Y-83108666D01*
X99570333Y-83142000D01*
X99537000Y-83208666D01*
X99537000Y-83375333D01*
X99570333Y-83442000D01*
X99603666Y-83475333D01*
X99670333Y-83508666D01*
X99837000Y-83508666D01*
X99903666Y-83475333D01*
X99937000Y-83442000D01*
X98870333Y-83508666D02*
X99270333Y-83508666D01*
X99070333Y-83508666D02*
X99070333Y-82808666D01*
X99137000Y-82908666D01*
X99203666Y-82975333D01*
X99270333Y-83008666D01*
X98470333Y-83108666D02*
X98537000Y-83075333D01*
X98570333Y-83042000D01*
X98603666Y-82975333D01*
X98603666Y-82942000D01*
X98570333Y-82875333D01*
X98537000Y-82842000D01*
X98470333Y-82808666D01*
X98337000Y-82808666D01*
X98270333Y-82842000D01*
X98237000Y-82875333D01*
X98203666Y-82942000D01*
X98203666Y-82975333D01*
X98237000Y-83042000D01*
X98270333Y-83075333D01*
X98337000Y-83108666D01*
X98470333Y-83108666D01*
X98537000Y-83142000D01*
X98570333Y-83175333D01*
X98603666Y-83242000D01*
X98603666Y-83375333D01*
X98570333Y-83442000D01*
X98537000Y-83475333D01*
X98470333Y-83508666D01*
X98337000Y-83508666D01*
X98270333Y-83475333D01*
X98237000Y-83442000D01*
X98203666Y-83375333D01*
X98203666Y-83242000D01*
X98237000Y-83175333D01*
X98270333Y-83142000D01*
X98337000Y-83108666D01*
D12*
X94665000Y-89222000D02*
X91765000Y-89222000D01*
X90190000Y-90822000D02*
X90190000Y-97822000D01*
X90190000Y-103722000D02*
X93190000Y-103722000D01*
X93165000Y-103722000D02*
X94965000Y-103022000D01*
X94965000Y-103022000D02*
X104940000Y-103022000D01*
X104940000Y-97922000D02*
X104940000Y-90822000D01*
X104940000Y-103022000D02*
X104940000Y-100922000D01*
X90190000Y-100922000D02*
X90190000Y-103722000D01*
X105140000Y-86044000D02*
X105140000Y-84644000D01*
X104440000Y-83944000D02*
X103840000Y-83944000D01*
X103140000Y-84644000D02*
X103140000Y-86044000D01*
X103840000Y-86744000D02*
X104440000Y-86744000D01*
X104440000Y-86744000D02*
G75*
G03*
X105140000Y-86044000I0J700000D01*
G01*
X103140000Y-86044000D02*
G75*
G03*
X103840000Y-86744000I700000J0D01*
G01*
X103840000Y-83944000D02*
G75*
G03*
X103140000Y-84644000I0J-700000D01*
G01*
X105140000Y-84644000D02*
G75*
G03*
X104440000Y-83944000I-700000J0D01*
G01*
X101173000Y-86744000D02*
X101773000Y-86744000D01*
X100473000Y-84644000D02*
X100473000Y-86044000D01*
X101773000Y-83944000D02*
X101173000Y-83944000D01*
X102473000Y-86044000D02*
X102473000Y-84644000D01*
X102473000Y-84644000D02*
G75*
G03*
X101773000Y-83944000I-700000J0D01*
G01*
X101173000Y-83944000D02*
G75*
G03*
X100473000Y-84644000I0J-700000D01*
G01*
X100473000Y-86044000D02*
G75*
G03*
X101173000Y-86744000I700000J0D01*
G01*
X101773000Y-86744000D02*
G75*
G03*
X102473000Y-86044000I0J700000D01*
G01*
X89567000Y-65292000D02*
X93952000Y-65292000D01*
X89567000Y-68312000D02*
X89567000Y-65292000D01*
X93952000Y-68312000D02*
X89567000Y-68312000D01*
D11*
X98023333Y-97152666D02*
X98023333Y-97652666D01*
X98056666Y-97752666D01*
X98123333Y-97819333D01*
X98223333Y-97852666D01*
X98290000Y-97852666D01*
X97323333Y-97852666D02*
X97723333Y-97852666D01*
X97523333Y-97852666D02*
X97523333Y-97152666D01*
X97590000Y-97252666D01*
X97656666Y-97319333D01*
X97723333Y-97352666D01*
X89928333Y-79056666D02*
X89928333Y-78356666D01*
X89461666Y-78356666D02*
X89328333Y-78356666D01*
X89261666Y-78390000D01*
X89195000Y-78456666D01*
X89161666Y-78590000D01*
X89161666Y-78823333D01*
X89195000Y-78956666D01*
X89261666Y-79023333D01*
X89328333Y-79056666D01*
X89461666Y-79056666D01*
X89528333Y-79023333D01*
X89595000Y-78956666D01*
X89628333Y-78823333D01*
X89628333Y-78590000D01*
X89595000Y-78456666D01*
X89528333Y-78390000D01*
X89461666Y-78356666D01*
X88928333Y-78356666D02*
X88495000Y-78356666D01*
X88728333Y-78623333D01*
X88628333Y-78623333D01*
X88561666Y-78656666D01*
X88528333Y-78690000D01*
X88495000Y-78756666D01*
X88495000Y-78923333D01*
X88528333Y-78990000D01*
X88561666Y-79023333D01*
X88628333Y-79056666D01*
X88828333Y-79056666D01*
X88895000Y-79023333D01*
X88928333Y-78990000D01*
X87861666Y-78356666D02*
X88195000Y-78356666D01*
X88228333Y-78690000D01*
X88195000Y-78656666D01*
X88128333Y-78623333D01*
X87961666Y-78623333D01*
X87895000Y-78656666D01*
X87861666Y-78690000D01*
X87828333Y-78756666D01*
X87828333Y-78923333D01*
X87861666Y-78990000D01*
X87895000Y-79023333D01*
X87961666Y-79056666D01*
X88128333Y-79056666D01*
X88195000Y-79023333D01*
X88228333Y-78990000D01*
X89928333Y-94296666D02*
X89928333Y-93596666D01*
X89461666Y-93596666D02*
X89328333Y-93596666D01*
X89261666Y-93630000D01*
X89195000Y-93696666D01*
X89161666Y-93830000D01*
X89161666Y-94063333D01*
X89195000Y-94196666D01*
X89261666Y-94263333D01*
X89328333Y-94296666D01*
X89461666Y-94296666D01*
X89528333Y-94263333D01*
X89595000Y-94196666D01*
X89628333Y-94063333D01*
X89628333Y-93830000D01*
X89595000Y-93696666D01*
X89528333Y-93630000D01*
X89461666Y-93596666D01*
X88495000Y-94296666D02*
X88895000Y-94296666D01*
X88695000Y-94296666D02*
X88695000Y-93596666D01*
X88761666Y-93696666D01*
X88828333Y-93763333D01*
X88895000Y-93796666D01*
X87895000Y-93830000D02*
X87895000Y-94296666D01*
X88061666Y-93563333D02*
X88228333Y-94063333D01*
X87795000Y-94063333D01*
X88895000Y-68530000D02*
X88661666Y-68530000D01*
X88561666Y-68896666D02*
X88895000Y-68896666D01*
X88895000Y-68196666D01*
X88561666Y-68196666D01*
X88261666Y-68896666D02*
X88261666Y-68196666D01*
X87861666Y-68896666D01*
X87861666Y-68196666D01*
X89928333Y-89216666D02*
X89928333Y-88516666D01*
X89461666Y-88516666D02*
X89328333Y-88516666D01*
X89261666Y-88550000D01*
X89195000Y-88616666D01*
X89161666Y-88750000D01*
X89161666Y-88983333D01*
X89195000Y-89116666D01*
X89261666Y-89183333D01*
X89328333Y-89216666D01*
X89461666Y-89216666D01*
X89528333Y-89183333D01*
X89595000Y-89116666D01*
X89628333Y-88983333D01*
X89628333Y-88750000D01*
X89595000Y-88616666D01*
X89528333Y-88550000D01*
X89461666Y-88516666D01*
X88895000Y-88583333D02*
X88861666Y-88550000D01*
X88795000Y-88516666D01*
X88628333Y-88516666D01*
X88561666Y-88550000D01*
X88528333Y-88583333D01*
X88495000Y-88650000D01*
X88495000Y-88716666D01*
X88528333Y-88816666D01*
X88928333Y-89216666D01*
X88495000Y-89216666D01*
X87895000Y-88516666D02*
X88028333Y-88516666D01*
X88095000Y-88550000D01*
X88128333Y-88583333D01*
X88195000Y-88683333D01*
X88228333Y-88816666D01*
X88228333Y-89083333D01*
X88195000Y-89150000D01*
X88161666Y-89183333D01*
X88095000Y-89216666D01*
X87961666Y-89216666D01*
X87895000Y-89183333D01*
X87861666Y-89150000D01*
X87828333Y-89083333D01*
X87828333Y-88916666D01*
X87861666Y-88850000D01*
X87895000Y-88816666D01*
X87961666Y-88783333D01*
X88095000Y-88783333D01*
X88161666Y-88816666D01*
X88195000Y-88850000D01*
X88228333Y-88916666D01*
X89928333Y-81596666D02*
X89928333Y-80896666D01*
X89461666Y-80896666D02*
X89328333Y-80896666D01*
X89261666Y-80930000D01*
X89195000Y-80996666D01*
X89161666Y-81130000D01*
X89161666Y-81363333D01*
X89195000Y-81496666D01*
X89261666Y-81563333D01*
X89328333Y-81596666D01*
X89461666Y-81596666D01*
X89528333Y-81563333D01*
X89595000Y-81496666D01*
X89628333Y-81363333D01*
X89628333Y-81130000D01*
X89595000Y-80996666D01*
X89528333Y-80930000D01*
X89461666Y-80896666D01*
X88928333Y-80896666D02*
X88495000Y-80896666D01*
X88728333Y-81163333D01*
X88628333Y-81163333D01*
X88561666Y-81196666D01*
X88528333Y-81230000D01*
X88495000Y-81296666D01*
X88495000Y-81463333D01*
X88528333Y-81530000D01*
X88561666Y-81563333D01*
X88628333Y-81596666D01*
X88828333Y-81596666D01*
X88895000Y-81563333D01*
X88928333Y-81530000D01*
X88228333Y-80963333D02*
X88195000Y-80930000D01*
X88128333Y-80896666D01*
X87961666Y-80896666D01*
X87895000Y-80930000D01*
X87861666Y-80963333D01*
X87828333Y-81030000D01*
X87828333Y-81096666D01*
X87861666Y-81196666D01*
X88261666Y-81596666D01*
X87828333Y-81596666D01*
X89528333Y-71403333D02*
X89428333Y-71436666D01*
X89261666Y-71436666D01*
X89195000Y-71403333D01*
X89161666Y-71370000D01*
X89128333Y-71303333D01*
X89128333Y-71236666D01*
X89161666Y-71170000D01*
X89195000Y-71136666D01*
X89261666Y-71103333D01*
X89395000Y-71070000D01*
X89461666Y-71036666D01*
X89495000Y-71003333D01*
X89528333Y-70936666D01*
X89528333Y-70870000D01*
X89495000Y-70803333D01*
X89461666Y-70770000D01*
X89395000Y-70736666D01*
X89228333Y-70736666D01*
X89128333Y-70770000D01*
X88928333Y-70736666D02*
X88695000Y-71436666D01*
X88461666Y-70736666D01*
X88228333Y-71436666D02*
X88228333Y-70736666D01*
X87961666Y-70736666D01*
X87895000Y-70770000D01*
X87861666Y-70803333D01*
X87828333Y-70870000D01*
X87828333Y-70970000D01*
X87861666Y-71036666D01*
X87895000Y-71070000D01*
X87961666Y-71103333D01*
X88228333Y-71103333D01*
X89928333Y-84136666D02*
X89928333Y-83436666D01*
X89461666Y-83436666D02*
X89328333Y-83436666D01*
X89261666Y-83470000D01*
X89195000Y-83536666D01*
X89161666Y-83670000D01*
X89161666Y-83903333D01*
X89195000Y-84036666D01*
X89261666Y-84103333D01*
X89328333Y-84136666D01*
X89461666Y-84136666D01*
X89528333Y-84103333D01*
X89595000Y-84036666D01*
X89628333Y-83903333D01*
X89628333Y-83670000D01*
X89595000Y-83536666D01*
X89528333Y-83470000D01*
X89461666Y-83436666D01*
X88928333Y-83436666D02*
X88495000Y-83436666D01*
X88728333Y-83703333D01*
X88628333Y-83703333D01*
X88561666Y-83736666D01*
X88528333Y-83770000D01*
X88495000Y-83836666D01*
X88495000Y-84003333D01*
X88528333Y-84070000D01*
X88561666Y-84103333D01*
X88628333Y-84136666D01*
X88828333Y-84136666D01*
X88895000Y-84103333D01*
X88928333Y-84070000D01*
X88261666Y-83436666D02*
X87828333Y-83436666D01*
X88061666Y-83703333D01*
X87961666Y-83703333D01*
X87895000Y-83736666D01*
X87861666Y-83770000D01*
X87828333Y-83836666D01*
X87828333Y-84003333D01*
X87861666Y-84070000D01*
X87895000Y-84103333D01*
X87961666Y-84136666D01*
X88161666Y-84136666D01*
X88228333Y-84103333D01*
X88261666Y-84070000D01*
X89928333Y-91756666D02*
X89928333Y-91056666D01*
X89461666Y-91056666D02*
X89328333Y-91056666D01*
X89261666Y-91090000D01*
X89195000Y-91156666D01*
X89161666Y-91290000D01*
X89161666Y-91523333D01*
X89195000Y-91656666D01*
X89261666Y-91723333D01*
X89328333Y-91756666D01*
X89461666Y-91756666D01*
X89528333Y-91723333D01*
X89595000Y-91656666D01*
X89628333Y-91523333D01*
X89628333Y-91290000D01*
X89595000Y-91156666D01*
X89528333Y-91090000D01*
X89461666Y-91056666D01*
X88895000Y-91123333D02*
X88861666Y-91090000D01*
X88795000Y-91056666D01*
X88628333Y-91056666D01*
X88561666Y-91090000D01*
X88528333Y-91123333D01*
X88495000Y-91190000D01*
X88495000Y-91256666D01*
X88528333Y-91356666D01*
X88928333Y-91756666D01*
X88495000Y-91756666D01*
X88261666Y-91056666D02*
X87795000Y-91056666D01*
X88095000Y-91756666D01*
X89928333Y-86676666D02*
X89928333Y-85976666D01*
X89461666Y-85976666D02*
X89328333Y-85976666D01*
X89261666Y-86010000D01*
X89195000Y-86076666D01*
X89161666Y-86210000D01*
X89161666Y-86443333D01*
X89195000Y-86576666D01*
X89261666Y-86643333D01*
X89328333Y-86676666D01*
X89461666Y-86676666D01*
X89528333Y-86643333D01*
X89595000Y-86576666D01*
X89628333Y-86443333D01*
X89628333Y-86210000D01*
X89595000Y-86076666D01*
X89528333Y-86010000D01*
X89461666Y-85976666D01*
X88895000Y-86043333D02*
X88861666Y-86010000D01*
X88795000Y-85976666D01*
X88628333Y-85976666D01*
X88561666Y-86010000D01*
X88528333Y-86043333D01*
X88495000Y-86110000D01*
X88495000Y-86176666D01*
X88528333Y-86276666D01*
X88928333Y-86676666D01*
X88495000Y-86676666D01*
X87861666Y-85976666D02*
X88195000Y-85976666D01*
X88228333Y-86310000D01*
X88195000Y-86276666D01*
X88128333Y-86243333D01*
X87961666Y-86243333D01*
X87895000Y-86276666D01*
X87861666Y-86310000D01*
X87828333Y-86376666D01*
X87828333Y-86543333D01*
X87861666Y-86610000D01*
X87895000Y-86643333D01*
X87961666Y-86676666D01*
X88128333Y-86676666D01*
X88195000Y-86643333D01*
X88228333Y-86610000D01*
X88183353Y-101335006D02*
X88183353Y-100635006D01*
X87716686Y-100635006D02*
X87583353Y-100635006D01*
X87516686Y-100668340D01*
X87450020Y-100735006D01*
X87416686Y-100868340D01*
X87416686Y-101101673D01*
X87450020Y-101235006D01*
X87516686Y-101301673D01*
X87583353Y-101335006D01*
X87716686Y-101335006D01*
X87783353Y-101301673D01*
X87850020Y-101235006D01*
X87883353Y-101101673D01*
X87883353Y-100868340D01*
X87850020Y-100735006D01*
X87783353Y-100668340D01*
X87716686Y-100635006D01*
X86750020Y-101335006D02*
X87150020Y-101335006D01*
X86950020Y-101335006D02*
X86950020Y-100635006D01*
X87016686Y-100735006D01*
X87083353Y-100801673D01*
X87150020Y-100835006D01*
X86516686Y-100635006D02*
X86083353Y-100635006D01*
X86316686Y-100901673D01*
X86216686Y-100901673D01*
X86150020Y-100935006D01*
X86116686Y-100968340D01*
X86083353Y-101035006D01*
X86083353Y-101201673D01*
X86116686Y-101268340D01*
X86150020Y-101301673D01*
X86216686Y-101335006D01*
X86416686Y-101335006D01*
X86483353Y-101301673D01*
X86516686Y-101268340D01*
X89928333Y-76516666D02*
X89928333Y-75816666D01*
X89461666Y-75816666D02*
X89328333Y-75816666D01*
X89261666Y-75850000D01*
X89195000Y-75916666D01*
X89161666Y-76050000D01*
X89161666Y-76283333D01*
X89195000Y-76416666D01*
X89261666Y-76483333D01*
X89328333Y-76516666D01*
X89461666Y-76516666D01*
X89528333Y-76483333D01*
X89595000Y-76416666D01*
X89628333Y-76283333D01*
X89628333Y-76050000D01*
X89595000Y-75916666D01*
X89528333Y-75850000D01*
X89461666Y-75816666D01*
X88928333Y-75816666D02*
X88495000Y-75816666D01*
X88728333Y-76083333D01*
X88628333Y-76083333D01*
X88561666Y-76116666D01*
X88528333Y-76150000D01*
X88495000Y-76216666D01*
X88495000Y-76383333D01*
X88528333Y-76450000D01*
X88561666Y-76483333D01*
X88628333Y-76516666D01*
X88828333Y-76516666D01*
X88895000Y-76483333D01*
X88928333Y-76450000D01*
X87895000Y-76050000D02*
X87895000Y-76516666D01*
X88061666Y-75783333D02*
X88228333Y-76283333D01*
X87795000Y-76283333D01*
X89561666Y-73943333D02*
X89461666Y-73976666D01*
X89295000Y-73976666D01*
X89228333Y-73943333D01*
X89195000Y-73910000D01*
X89161666Y-73843333D01*
X89161666Y-73776666D01*
X89195000Y-73710000D01*
X89228333Y-73676666D01*
X89295000Y-73643333D01*
X89428333Y-73610000D01*
X89495000Y-73576666D01*
X89528333Y-73543333D01*
X89561666Y-73476666D01*
X89561666Y-73410000D01*
X89528333Y-73343333D01*
X89495000Y-73310000D01*
X89428333Y-73276666D01*
X89261666Y-73276666D01*
X89161666Y-73310000D01*
X88961666Y-73276666D02*
X88728333Y-73976666D01*
X88495000Y-73276666D01*
X88261666Y-73976666D02*
X88261666Y-73276666D01*
X87861666Y-73976666D01*
X87861666Y-73276666D01*
X89928333Y-96836666D02*
X89928333Y-96136666D01*
X89461666Y-96136666D02*
X89328333Y-96136666D01*
X89261666Y-96170000D01*
X89195000Y-96236666D01*
X89161666Y-96370000D01*
X89161666Y-96603333D01*
X89195000Y-96736666D01*
X89261666Y-96803333D01*
X89328333Y-96836666D01*
X89461666Y-96836666D01*
X89528333Y-96803333D01*
X89595000Y-96736666D01*
X89628333Y-96603333D01*
X89628333Y-96370000D01*
X89595000Y-96236666D01*
X89528333Y-96170000D01*
X89461666Y-96136666D01*
X88495000Y-96836666D02*
X88895000Y-96836666D01*
X88695000Y-96836666D02*
X88695000Y-96136666D01*
X88761666Y-96236666D01*
X88828333Y-96303333D01*
X88895000Y-96336666D01*
X88228333Y-96203333D02*
X88195000Y-96170000D01*
X88128333Y-96136666D01*
X87961666Y-96136666D01*
X87895000Y-96170000D01*
X87861666Y-96203333D01*
X87828333Y-96270000D01*
X87828333Y-96336666D01*
X87861666Y-96436666D01*
X88261666Y-96836666D01*
X87828333Y-96836666D01*
X89528333Y-65656666D02*
X89095000Y-65656666D01*
X89328333Y-65923333D01*
X89228333Y-65923333D01*
X89161666Y-65956666D01*
X89128333Y-65990000D01*
X89095000Y-66056666D01*
X89095000Y-66223333D01*
X89128333Y-66290000D01*
X89161666Y-66323333D01*
X89228333Y-66356666D01*
X89428333Y-66356666D01*
X89495000Y-66323333D01*
X89528333Y-66290000D01*
X88895000Y-65656666D02*
X88661666Y-66356666D01*
X88428333Y-65656666D01*
X88261666Y-65656666D02*
X87828333Y-65656666D01*
X88061666Y-65923333D01*
X87961666Y-65923333D01*
X87895000Y-65956666D01*
X87861666Y-65990000D01*
X87828333Y-66056666D01*
X87828333Y-66223333D01*
X87861666Y-66290000D01*
X87895000Y-66323333D01*
X87961666Y-66356666D01*
X88161666Y-66356666D01*
X88228333Y-66323333D01*
X88261666Y-66290000D01*
X107351666Y-65690000D02*
X107418333Y-65656666D01*
X107518333Y-65656666D01*
X107618333Y-65690000D01*
X107685000Y-65756666D01*
X107718333Y-65823333D01*
X107751666Y-65956666D01*
X107751666Y-66056666D01*
X107718333Y-66190000D01*
X107685000Y-66256666D01*
X107618333Y-66323333D01*
X107518333Y-66356666D01*
X107451666Y-66356666D01*
X107351666Y-66323333D01*
X107318333Y-66290000D01*
X107318333Y-66056666D01*
X107451666Y-66056666D01*
X107018333Y-66356666D02*
X107018333Y-65656666D01*
X106618333Y-66356666D01*
X106618333Y-65656666D01*
X106285000Y-66356666D02*
X106285000Y-65656666D01*
X106118333Y-65656666D01*
X106018333Y-65690000D01*
X105951666Y-65756666D01*
X105918333Y-65823333D01*
X105885000Y-65956666D01*
X105885000Y-66056666D01*
X105918333Y-66190000D01*
X105951666Y-66256666D01*
X106018333Y-66323333D01*
X106118333Y-66356666D01*
X106285000Y-66356666D01*
X107718333Y-79056666D02*
X107718333Y-78356666D01*
X107251666Y-78356666D02*
X107118333Y-78356666D01*
X107051666Y-78390000D01*
X106985000Y-78456666D01*
X106951666Y-78590000D01*
X106951666Y-78823333D01*
X106985000Y-78956666D01*
X107051666Y-79023333D01*
X107118333Y-79056666D01*
X107251666Y-79056666D01*
X107318333Y-79023333D01*
X107385000Y-78956666D01*
X107418333Y-78823333D01*
X107418333Y-78590000D01*
X107385000Y-78456666D01*
X107318333Y-78390000D01*
X107251666Y-78356666D01*
X106685000Y-78423333D02*
X106651666Y-78390000D01*
X106585000Y-78356666D01*
X106418333Y-78356666D01*
X106351666Y-78390000D01*
X106318333Y-78423333D01*
X106285000Y-78490000D01*
X106285000Y-78556666D01*
X106318333Y-78656666D01*
X106718333Y-79056666D01*
X106285000Y-79056666D01*
X105618333Y-79056666D02*
X106018333Y-79056666D01*
X105818333Y-79056666D02*
X105818333Y-78356666D01*
X105885000Y-78456666D01*
X105951666Y-78523333D01*
X106018333Y-78556666D01*
X107818333Y-73276666D02*
X107418333Y-73276666D01*
X107618333Y-73976666D02*
X107618333Y-73276666D01*
X107251666Y-73976666D02*
X106885000Y-73510000D01*
X107251666Y-73510000D02*
X106885000Y-73976666D01*
X106618333Y-73976666D02*
X106618333Y-73276666D01*
X106451666Y-73276666D01*
X106351666Y-73310000D01*
X106285000Y-73376666D01*
X106251666Y-73443333D01*
X106218333Y-73576666D01*
X106218333Y-73676666D01*
X106251666Y-73810000D01*
X106285000Y-73876666D01*
X106351666Y-73943333D01*
X106451666Y-73976666D01*
X106618333Y-73976666D01*
X107718333Y-68896666D02*
X107718333Y-68196666D01*
X107251666Y-68196666D02*
X107118333Y-68196666D01*
X107051666Y-68230000D01*
X106985000Y-68296666D01*
X106951666Y-68430000D01*
X106951666Y-68663333D01*
X106985000Y-68796666D01*
X107051666Y-68863333D01*
X107118333Y-68896666D01*
X107251666Y-68896666D01*
X107318333Y-68863333D01*
X107385000Y-68796666D01*
X107418333Y-68663333D01*
X107418333Y-68430000D01*
X107385000Y-68296666D01*
X107318333Y-68230000D01*
X107251666Y-68196666D01*
X106685000Y-68263333D02*
X106651666Y-68230000D01*
X106585000Y-68196666D01*
X106418333Y-68196666D01*
X106351666Y-68230000D01*
X106318333Y-68263333D01*
X106285000Y-68330000D01*
X106285000Y-68396666D01*
X106318333Y-68496666D01*
X106718333Y-68896666D01*
X106285000Y-68896666D01*
X106051666Y-68196666D02*
X105618333Y-68196666D01*
X105851666Y-68463333D01*
X105751666Y-68463333D01*
X105685000Y-68496666D01*
X105651666Y-68530000D01*
X105618333Y-68596666D01*
X105618333Y-68763333D01*
X105651666Y-68830000D01*
X105685000Y-68863333D01*
X105751666Y-68896666D01*
X105951666Y-68896666D01*
X106018333Y-68863333D01*
X106051666Y-68830000D01*
X107718333Y-71436666D02*
X107718333Y-70736666D01*
X107251666Y-70736666D02*
X107118333Y-70736666D01*
X107051666Y-70770000D01*
X106985000Y-70836666D01*
X106951666Y-70970000D01*
X106951666Y-71203333D01*
X106985000Y-71336666D01*
X107051666Y-71403333D01*
X107118333Y-71436666D01*
X107251666Y-71436666D01*
X107318333Y-71403333D01*
X107385000Y-71336666D01*
X107418333Y-71203333D01*
X107418333Y-70970000D01*
X107385000Y-70836666D01*
X107318333Y-70770000D01*
X107251666Y-70736666D01*
X106685000Y-70803333D02*
X106651666Y-70770000D01*
X106585000Y-70736666D01*
X106418333Y-70736666D01*
X106351666Y-70770000D01*
X106318333Y-70803333D01*
X106285000Y-70870000D01*
X106285000Y-70936666D01*
X106318333Y-71036666D01*
X106718333Y-71436666D01*
X106285000Y-71436666D01*
X106018333Y-70803333D02*
X105985000Y-70770000D01*
X105918333Y-70736666D01*
X105751666Y-70736666D01*
X105685000Y-70770000D01*
X105651666Y-70803333D01*
X105618333Y-70870000D01*
X105618333Y-70936666D01*
X105651666Y-71036666D01*
X106051666Y-71436666D01*
X105618333Y-71436666D01*
X107318333Y-76516666D02*
X107551666Y-76183333D01*
X107718333Y-76516666D02*
X107718333Y-75816666D01*
X107451666Y-75816666D01*
X107385000Y-75850000D01*
X107351666Y-75883333D01*
X107318333Y-75950000D01*
X107318333Y-76050000D01*
X107351666Y-76116666D01*
X107385000Y-76150000D01*
X107451666Y-76183333D01*
X107718333Y-76183333D01*
X107085000Y-76516666D02*
X106718333Y-76050000D01*
X107085000Y-76050000D02*
X106718333Y-76516666D01*
X106451666Y-76516666D02*
X106451666Y-75816666D01*
X106285000Y-75816666D01*
X106185000Y-75850000D01*
X106118333Y-75916666D01*
X106085000Y-75983333D01*
X106051666Y-76116666D01*
X106051666Y-76216666D01*
X106085000Y-76350000D01*
X106118333Y-76416666D01*
X106185000Y-76483333D01*
X106285000Y-76516666D01*
X106451666Y-76516666D01*
X107718333Y-84136666D02*
X107718333Y-83436666D01*
X107251666Y-83436666D02*
X107118333Y-83436666D01*
X107051666Y-83470000D01*
X106985000Y-83536666D01*
X106951666Y-83670000D01*
X106951666Y-83903333D01*
X106985000Y-84036666D01*
X107051666Y-84103333D01*
X107118333Y-84136666D01*
X107251666Y-84136666D01*
X107318333Y-84103333D01*
X107385000Y-84036666D01*
X107418333Y-83903333D01*
X107418333Y-83670000D01*
X107385000Y-83536666D01*
X107318333Y-83470000D01*
X107251666Y-83436666D01*
X106285000Y-84136666D02*
X106685000Y-84136666D01*
X106485000Y-84136666D02*
X106485000Y-83436666D01*
X106551666Y-83536666D01*
X106618333Y-83603333D01*
X106685000Y-83636666D01*
X105885000Y-83736666D02*
X105951666Y-83703333D01*
X105985000Y-83670000D01*
X106018333Y-83603333D01*
X106018333Y-83570000D01*
X105985000Y-83503333D01*
X105951666Y-83470000D01*
X105885000Y-83436666D01*
X105751666Y-83436666D01*
X105685000Y-83470000D01*
X105651666Y-83503333D01*
X105618333Y-83570000D01*
X105618333Y-83603333D01*
X105651666Y-83670000D01*
X105685000Y-83703333D01*
X105751666Y-83736666D01*
X105885000Y-83736666D01*
X105951666Y-83770000D01*
X105985000Y-83803333D01*
X106018333Y-83870000D01*
X106018333Y-84003333D01*
X105985000Y-84070000D01*
X105951666Y-84103333D01*
X105885000Y-84136666D01*
X105751666Y-84136666D01*
X105685000Y-84103333D01*
X105651666Y-84070000D01*
X105618333Y-84003333D01*
X105618333Y-83870000D01*
X105651666Y-83803333D01*
X105685000Y-83770000D01*
X105751666Y-83736666D01*
X107718333Y-81596666D02*
X107718333Y-80896666D01*
X107251666Y-80896666D02*
X107118333Y-80896666D01*
X107051666Y-80930000D01*
X106985000Y-80996666D01*
X106951666Y-81130000D01*
X106951666Y-81363333D01*
X106985000Y-81496666D01*
X107051666Y-81563333D01*
X107118333Y-81596666D01*
X107251666Y-81596666D01*
X107318333Y-81563333D01*
X107385000Y-81496666D01*
X107418333Y-81363333D01*
X107418333Y-81130000D01*
X107385000Y-80996666D01*
X107318333Y-80930000D01*
X107251666Y-80896666D01*
X106285000Y-81596666D02*
X106685000Y-81596666D01*
X106485000Y-81596666D02*
X106485000Y-80896666D01*
X106551666Y-80996666D01*
X106618333Y-81063333D01*
X106685000Y-81096666D01*
X105951666Y-81596666D02*
X105818333Y-81596666D01*
X105751666Y-81563333D01*
X105718333Y-81530000D01*
X105651666Y-81430000D01*
X105618333Y-81296666D01*
X105618333Y-81030000D01*
X105651666Y-80963333D01*
X105685000Y-80930000D01*
X105751666Y-80896666D01*
X105885000Y-80896666D01*
X105951666Y-80930000D01*
X105985000Y-80963333D01*
X106018333Y-81030000D01*
X106018333Y-81196666D01*
X105985000Y-81263333D01*
X105951666Y-81296666D01*
X105885000Y-81330000D01*
X105751666Y-81330000D01*
X105685000Y-81296666D01*
X105651666Y-81263333D01*
X105618333Y-81196666D01*
X107718333Y-86676666D02*
X107718333Y-85976666D01*
X107251666Y-85976666D02*
X107118333Y-85976666D01*
X107051666Y-86010000D01*
X106985000Y-86076666D01*
X106951666Y-86210000D01*
X106951666Y-86443333D01*
X106985000Y-86576666D01*
X107051666Y-86643333D01*
X107118333Y-86676666D01*
X107251666Y-86676666D01*
X107318333Y-86643333D01*
X107385000Y-86576666D01*
X107418333Y-86443333D01*
X107418333Y-86210000D01*
X107385000Y-86076666D01*
X107318333Y-86010000D01*
X107251666Y-85976666D01*
X106318333Y-85976666D02*
X106651666Y-85976666D01*
X106685000Y-86310000D01*
X106651666Y-86276666D01*
X106585000Y-86243333D01*
X106418333Y-86243333D01*
X106351666Y-86276666D01*
X106318333Y-86310000D01*
X106285000Y-86376666D01*
X106285000Y-86543333D01*
X106318333Y-86610000D01*
X106351666Y-86643333D01*
X106418333Y-86676666D01*
X106585000Y-86676666D01*
X106651666Y-86643333D01*
X106685000Y-86610000D01*
X107718333Y-96836666D02*
X107718333Y-96136666D01*
X107251666Y-96136666D02*
X107118333Y-96136666D01*
X107051666Y-96170000D01*
X106985000Y-96236666D01*
X106951666Y-96370000D01*
X106951666Y-96603333D01*
X106985000Y-96736666D01*
X107051666Y-96803333D01*
X107118333Y-96836666D01*
X107251666Y-96836666D01*
X107318333Y-96803333D01*
X107385000Y-96736666D01*
X107418333Y-96603333D01*
X107418333Y-96370000D01*
X107385000Y-96236666D01*
X107318333Y-96170000D01*
X107251666Y-96136666D01*
X106285000Y-96836666D02*
X106685000Y-96836666D01*
X106485000Y-96836666D02*
X106485000Y-96136666D01*
X106551666Y-96236666D01*
X106618333Y-96303333D01*
X106685000Y-96336666D01*
X105651666Y-96136666D02*
X105985000Y-96136666D01*
X106018333Y-96470000D01*
X105985000Y-96436666D01*
X105918333Y-96403333D01*
X105751666Y-96403333D01*
X105685000Y-96436666D01*
X105651666Y-96470000D01*
X105618333Y-96536666D01*
X105618333Y-96703333D01*
X105651666Y-96770000D01*
X105685000Y-96803333D01*
X105751666Y-96836666D01*
X105918333Y-96836666D01*
X105985000Y-96803333D01*
X106018333Y-96770000D01*
X107718333Y-94296666D02*
X107718333Y-93596666D01*
X107251666Y-93596666D02*
X107118333Y-93596666D01*
X107051666Y-93630000D01*
X106985000Y-93696666D01*
X106951666Y-93830000D01*
X106951666Y-94063333D01*
X106985000Y-94196666D01*
X107051666Y-94263333D01*
X107118333Y-94296666D01*
X107251666Y-94296666D01*
X107318333Y-94263333D01*
X107385000Y-94196666D01*
X107418333Y-94063333D01*
X107418333Y-93830000D01*
X107385000Y-93696666D01*
X107318333Y-93630000D01*
X107251666Y-93596666D01*
X106685000Y-93663333D02*
X106651666Y-93630000D01*
X106585000Y-93596666D01*
X106418333Y-93596666D01*
X106351666Y-93630000D01*
X106318333Y-93663333D01*
X106285000Y-93730000D01*
X106285000Y-93796666D01*
X106318333Y-93896666D01*
X106718333Y-94296666D01*
X106285000Y-94296666D01*
X107318333Y-104390000D02*
X107351666Y-104423333D01*
X107451666Y-104456666D01*
X107518333Y-104456666D01*
X107618333Y-104423333D01*
X107685000Y-104356666D01*
X107718333Y-104290000D01*
X107751666Y-104156666D01*
X107751666Y-104056666D01*
X107718333Y-103923333D01*
X107685000Y-103856666D01*
X107618333Y-103790000D01*
X107518333Y-103756666D01*
X107451666Y-103756666D01*
X107351666Y-103790000D01*
X107318333Y-103823333D01*
X107051666Y-104256666D02*
X106718333Y-104256666D01*
X107118333Y-104456666D02*
X106885000Y-103756666D01*
X106651666Y-104456666D01*
X106418333Y-104456666D02*
X106418333Y-103756666D01*
X106018333Y-104456666D01*
X106018333Y-103756666D01*
X105685000Y-104456666D02*
X105685000Y-103756666D01*
X105685000Y-104090000D02*
X105285000Y-104090000D01*
X105285000Y-104456666D02*
X105285000Y-103756666D01*
X107718333Y-91756666D02*
X107718333Y-91056666D01*
X107251666Y-91056666D02*
X107118333Y-91056666D01*
X107051666Y-91090000D01*
X106985000Y-91156666D01*
X106951666Y-91290000D01*
X106951666Y-91523333D01*
X106985000Y-91656666D01*
X107051666Y-91723333D01*
X107118333Y-91756666D01*
X107251666Y-91756666D01*
X107318333Y-91723333D01*
X107385000Y-91656666D01*
X107418333Y-91523333D01*
X107418333Y-91290000D01*
X107385000Y-91156666D01*
X107318333Y-91090000D01*
X107251666Y-91056666D01*
X106518333Y-91056666D02*
X106451666Y-91056666D01*
X106385000Y-91090000D01*
X106351666Y-91123333D01*
X106318333Y-91190000D01*
X106285000Y-91323333D01*
X106285000Y-91490000D01*
X106318333Y-91623333D01*
X106351666Y-91690000D01*
X106385000Y-91723333D01*
X106451666Y-91756666D01*
X106518333Y-91756666D01*
X106585000Y-91723333D01*
X106618333Y-91690000D01*
X106651666Y-91623333D01*
X106685000Y-91490000D01*
X106685000Y-91323333D01*
X106651666Y-91190000D01*
X106618333Y-91123333D01*
X106585000Y-91090000D01*
X106518333Y-91056666D01*
X107318333Y-101850000D02*
X107351666Y-101883333D01*
X107451666Y-101916666D01*
X107518333Y-101916666D01*
X107618333Y-101883333D01*
X107685000Y-101816666D01*
X107718333Y-101750000D01*
X107751666Y-101616666D01*
X107751666Y-101516666D01*
X107718333Y-101383333D01*
X107685000Y-101316666D01*
X107618333Y-101250000D01*
X107518333Y-101216666D01*
X107451666Y-101216666D01*
X107351666Y-101250000D01*
X107318333Y-101283333D01*
X107051666Y-101716666D02*
X106718333Y-101716666D01*
X107118333Y-101916666D02*
X106885000Y-101216666D01*
X106651666Y-101916666D01*
X106418333Y-101916666D02*
X106418333Y-101216666D01*
X106018333Y-101916666D01*
X106018333Y-101216666D01*
X105351666Y-101916666D02*
X105685000Y-101916666D01*
X105685000Y-101216666D01*
X107718333Y-89216666D02*
X107718333Y-88516666D01*
X107251666Y-88516666D02*
X107118333Y-88516666D01*
X107051666Y-88550000D01*
X106985000Y-88616666D01*
X106951666Y-88750000D01*
X106951666Y-88983333D01*
X106985000Y-89116666D01*
X107051666Y-89183333D01*
X107118333Y-89216666D01*
X107251666Y-89216666D01*
X107318333Y-89183333D01*
X107385000Y-89116666D01*
X107418333Y-88983333D01*
X107418333Y-88750000D01*
X107385000Y-88616666D01*
X107318333Y-88550000D01*
X107251666Y-88516666D01*
X106351666Y-88750000D02*
X106351666Y-89216666D01*
X106518333Y-88483333D02*
X106685000Y-88983333D01*
X106251666Y-88983333D01*
X104723333Y-87246666D02*
X104723333Y-87746666D01*
X104756666Y-87846666D01*
X104823333Y-87913333D01*
X104923333Y-87946666D01*
X104990000Y-87946666D01*
X104390000Y-87946666D02*
X104390000Y-87246666D01*
X104123333Y-87246666D01*
X104056666Y-87280000D01*
X104023333Y-87313333D01*
X103990000Y-87380000D01*
X103990000Y-87480000D01*
X104023333Y-87546666D01*
X104056666Y-87580000D01*
X104123333Y-87613333D01*
X104390000Y-87613333D01*
X103723333Y-87313333D02*
X103690000Y-87280000D01*
X103623333Y-87246666D01*
X103456666Y-87246666D01*
X103390000Y-87280000D01*
X103356666Y-87313333D01*
X103323333Y-87380000D01*
X103323333Y-87446666D01*
X103356666Y-87546666D01*
X103756666Y-87946666D01*
X103323333Y-87946666D01*
X102056333Y-87246666D02*
X102056333Y-87746666D01*
X102089666Y-87846666D01*
X102156333Y-87913333D01*
X102256333Y-87946666D01*
X102323000Y-87946666D01*
X101723000Y-87946666D02*
X101723000Y-87246666D01*
X101456333Y-87246666D01*
X101389666Y-87280000D01*
X101356333Y-87313333D01*
X101323000Y-87380000D01*
X101323000Y-87480000D01*
X101356333Y-87546666D01*
X101389666Y-87580000D01*
X101456333Y-87613333D01*
X101723000Y-87613333D01*
X101089666Y-87246666D02*
X100656333Y-87246666D01*
X100889666Y-87513333D01*
X100789666Y-87513333D01*
X100723000Y-87546666D01*
X100689666Y-87580000D01*
X100656333Y-87646666D01*
X100656333Y-87813333D01*
X100689666Y-87880000D01*
X100723000Y-87913333D01*
X100789666Y-87946666D01*
X100989666Y-87946666D01*
X101056333Y-87913333D01*
X101089666Y-87880000D01*
X92318666Y-69402000D02*
X92352000Y-69435333D01*
X92452000Y-69468666D01*
X92518666Y-69468666D01*
X92618666Y-69435333D01*
X92685333Y-69368666D01*
X92718666Y-69302000D01*
X92752000Y-69168666D01*
X92752000Y-69068666D01*
X92718666Y-68935333D01*
X92685333Y-68868666D01*
X92618666Y-68802000D01*
X92518666Y-68768666D01*
X92452000Y-68768666D01*
X92352000Y-68802000D01*
X92318666Y-68835333D01*
X91652000Y-69468666D02*
X92052000Y-69468666D01*
X91852000Y-69468666D02*
X91852000Y-68768666D01*
X91918666Y-68868666D01*
X91985333Y-68935333D01*
X92052000Y-68968666D01*
%LPC*%
D13*
X105565000Y-89822000D03*
D14*
X105315000Y-99422000D03*
X89815000Y-99422000D03*
D13*
X90715000Y-89822000D03*
D15*
X102515000Y-99822000D03*
X94515000Y-99822000D03*
D16*
X104115000Y-89222000D03*
X103015000Y-89222000D03*
X101915000Y-89222000D03*
X100815000Y-89222000D03*
X99715000Y-89222000D03*
X98615000Y-89222000D03*
X97515000Y-89222000D03*
X96415000Y-89222000D03*
X95315000Y-89222000D03*
D17*
X86360000Y-66040000D03*
D18*
X86360000Y-68580000D03*
X86360000Y-71120000D03*
X86360000Y-73660000D03*
X86360000Y-76200000D03*
X86360000Y-78740000D03*
X86360000Y-81280000D03*
X86360000Y-83820000D03*
X86360000Y-86360000D03*
X86360000Y-88900000D03*
X86360000Y-91440000D03*
X86360000Y-93980000D03*
X86360000Y-96520000D03*
X86360000Y-99060000D03*
X109220000Y-104140000D03*
X109220000Y-101600000D03*
X109220000Y-99060000D03*
X109220000Y-96520000D03*
X109220000Y-93980000D03*
X109220000Y-91440000D03*
X109220000Y-88900000D03*
X109220000Y-86360000D03*
X109220000Y-83820000D03*
X109220000Y-81280000D03*
X109220000Y-78740000D03*
X109220000Y-76200000D03*
X109220000Y-73660000D03*
X109220000Y-71120000D03*
X109220000Y-68580000D03*
X109220000Y-66040000D03*
D11*
G36*
X103390602Y-84694000D02*
G01*
X103390602Y-84669466D01*
X103395412Y-84620635D01*
X103404984Y-84572510D01*
X103419228Y-84525555D01*
X103438005Y-84480222D01*
X103461136Y-84436949D01*
X103488396Y-84396150D01*
X103519524Y-84358221D01*
X103554221Y-84323524D01*
X103592150Y-84292396D01*
X103632949Y-84265136D01*
X103676222Y-84242005D01*
X103721555Y-84223228D01*
X103768510Y-84208984D01*
X103816635Y-84199412D01*
X103865466Y-84194602D01*
X103890000Y-84194602D01*
X103890000Y-84194000D01*
X104390000Y-84194000D01*
X104390000Y-84194602D01*
X104414534Y-84194602D01*
X104463365Y-84199412D01*
X104511490Y-84208984D01*
X104558445Y-84223228D01*
X104603778Y-84242005D01*
X104647051Y-84265136D01*
X104687850Y-84292396D01*
X104725779Y-84323524D01*
X104760476Y-84358221D01*
X104791604Y-84396150D01*
X104818864Y-84436949D01*
X104841995Y-84480222D01*
X104860772Y-84525555D01*
X104875016Y-84572510D01*
X104884588Y-84620635D01*
X104889398Y-84669466D01*
X104889398Y-84694000D01*
X104890000Y-84694000D01*
X104890000Y-85194000D01*
X103390000Y-85194000D01*
X103390000Y-84694000D01*
X103390602Y-84694000D01*
G37*
G36*
X104890000Y-85494000D02*
G01*
X104890000Y-85994000D01*
X104889398Y-85994000D01*
X104889398Y-86018534D01*
X104884588Y-86067365D01*
X104875016Y-86115490D01*
X104860772Y-86162445D01*
X104841995Y-86207778D01*
X104818864Y-86251051D01*
X104791604Y-86291850D01*
X104760476Y-86329779D01*
X104725779Y-86364476D01*
X104687850Y-86395604D01*
X104647051Y-86422864D01*
X104603778Y-86445995D01*
X104558445Y-86464772D01*
X104511490Y-86479016D01*
X104463365Y-86488588D01*
X104414534Y-86493398D01*
X104390000Y-86493398D01*
X104390000Y-86494000D01*
X103890000Y-86494000D01*
X103890000Y-86493398D01*
X103865466Y-86493398D01*
X103816635Y-86488588D01*
X103768510Y-86479016D01*
X103721555Y-86464772D01*
X103676222Y-86445995D01*
X103632949Y-86422864D01*
X103592150Y-86395604D01*
X103554221Y-86364476D01*
X103519524Y-86329779D01*
X103488396Y-86291850D01*
X103461136Y-86251051D01*
X103438005Y-86207778D01*
X103419228Y-86162445D01*
X103404984Y-86115490D01*
X103395412Y-86067365D01*
X103390602Y-86018534D01*
X103390602Y-85994000D01*
X103390000Y-85994000D01*
X103390000Y-85494000D01*
X104890000Y-85494000D01*
G37*
G36*
X102223000Y-85494000D02*
G01*
X102223000Y-85994000D01*
X102222398Y-85994000D01*
X102222398Y-86018534D01*
X102217588Y-86067365D01*
X102208016Y-86115490D01*
X102193772Y-86162445D01*
X102174995Y-86207778D01*
X102151864Y-86251051D01*
X102124604Y-86291850D01*
X102093476Y-86329779D01*
X102058779Y-86364476D01*
X102020850Y-86395604D01*
X101980051Y-86422864D01*
X101936778Y-86445995D01*
X101891445Y-86464772D01*
X101844490Y-86479016D01*
X101796365Y-86488588D01*
X101747534Y-86493398D01*
X101723000Y-86493398D01*
X101723000Y-86494000D01*
X101223000Y-86494000D01*
X101223000Y-86493398D01*
X101198466Y-86493398D01*
X101149635Y-86488588D01*
X101101510Y-86479016D01*
X101054555Y-86464772D01*
X101009222Y-86445995D01*
X100965949Y-86422864D01*
X100925150Y-86395604D01*
X100887221Y-86364476D01*
X100852524Y-86329779D01*
X100821396Y-86291850D01*
X100794136Y-86251051D01*
X100771005Y-86207778D01*
X100752228Y-86162445D01*
X100737984Y-86115490D01*
X100728412Y-86067365D01*
X100723602Y-86018534D01*
X100723602Y-85994000D01*
X100723000Y-85994000D01*
X100723000Y-85494000D01*
X102223000Y-85494000D01*
G37*
G36*
X100723602Y-84694000D02*
G01*
X100723602Y-84669466D01*
X100728412Y-84620635D01*
X100737984Y-84572510D01*
X100752228Y-84525555D01*
X100771005Y-84480222D01*
X100794136Y-84436949D01*
X100821396Y-84396150D01*
X100852524Y-84358221D01*
X100887221Y-84323524D01*
X100925150Y-84292396D01*
X100965949Y-84265136D01*
X101009222Y-84242005D01*
X101054555Y-84223228D01*
X101101510Y-84208984D01*
X101149635Y-84199412D01*
X101198466Y-84194602D01*
X101223000Y-84194602D01*
X101223000Y-84194000D01*
X101723000Y-84194000D01*
X101723000Y-84194602D01*
X101747534Y-84194602D01*
X101796365Y-84199412D01*
X101844490Y-84208984D01*
X101891445Y-84223228D01*
X101936778Y-84242005D01*
X101980051Y-84265136D01*
X102020850Y-84292396D01*
X102058779Y-84323524D01*
X102093476Y-84358221D01*
X102124604Y-84396150D01*
X102151864Y-84436949D01*
X102174995Y-84480222D01*
X102193772Y-84525555D01*
X102208016Y-84572510D01*
X102217588Y-84620635D01*
X102222398Y-84669466D01*
X102222398Y-84694000D01*
X102223000Y-84694000D01*
X102223000Y-85194000D01*
X100723000Y-85194000D01*
X100723000Y-84694000D01*
X100723602Y-84694000D01*
G37*
G36*
G01*
X89827000Y-67727000D02*
X89827000Y-65877000D01*
G75*
G02*
X90077000Y-65627000I250000J0D01*
G01*
X91077000Y-65627000D01*
G75*
G02*
X91327000Y-65877000I0J-250000D01*
G01*
X91327000Y-67727000D01*
G75*
G02*
X91077000Y-67977000I-250000J0D01*
G01*
X90077000Y-67977000D01*
G75*
G02*
X89827000Y-67727000I0J250000D01*
G01*
G37*
G36*
G01*
X93077000Y-67727000D02*
X93077000Y-65877000D01*
G75*
G02*
X93327000Y-65627000I250000J0D01*
G01*
X94327000Y-65627000D01*
G75*
G02*
X94577000Y-65877000I0J-250000D01*
G01*
X94577000Y-67727000D01*
G75*
G02*
X94327000Y-67977000I-250000J0D01*
G01*
X93327000Y-67977000D01*
G75*
G02*
X93077000Y-67727000I0J250000D01*
G01*
G37*
M02*
