M48
; DRILL file {KiCad (5.1.10)-1} date 07/24/21 14:48:32
; FORMAT={-:-/ absolute / inch / decimal}
; #@! TF.CreationDate,2021-07-24T14:48:32+02:00
; #@! TF.GenerationSoftware,Kicad,Pcbnew,(5.1.10)-1
; #@! TF.FileFunction,Plated,1,2,PTH
FMAT,2
INCH
T1C0.0157
T2C0.0394
%
G90
G05
T1
X3.5615Y-3.7225
X3.5749Y-2.9861
X3.5789Y-3.1447
X3.5802Y-3.0442
X3.5806Y-3.2458
X3.5834Y-3.2995
X3.5925Y-3.4491
X3.6157Y-3.4062
X3.616Y-3.7739
X3.6274Y-3.9668
X3.6691Y-3.9657
X3.7384Y-2.834
X3.7384Y-2.9062
X3.7481Y-3.3455
X3.7586Y-3.9704
X3.7745Y-2.7978
X3.7745Y-2.8701
X3.7745Y-2.9423
X3.8024Y-3.7537
X3.8106Y-2.834
X3.8106Y-2.9062
X3.8122Y-3.9854
X3.8126Y-3.4531
X3.8468Y-2.7978
X3.8468Y-2.8701
X3.8468Y-2.9423
X3.8829Y-2.834
X3.8829Y-2.9062
X3.8878Y-3.5899
X3.9389Y-3.5801
X4.0565Y-3.7623
X4.0883Y-3.1626
X4.1195Y-3.1965
X4.1205Y-3.2435
X4.1207Y-3.2866
X4.1207Y-2.867
X4.1211Y-2.9461
T2
X3.4Y-2.6
X3.4Y-2.7
X3.4Y-2.8
X3.4Y-2.9
X3.4Y-3.0
X3.4Y-3.1
X3.4Y-3.2
X3.4Y-3.3
X3.4Y-3.4
X3.4Y-3.5
X3.4Y-3.6
X3.4Y-3.7
X3.4Y-3.8
X3.4Y-3.9
X4.3Y-2.6
X4.3Y-2.7
X4.3Y-2.8
X4.3Y-2.9
X4.3Y-3.0
X4.3Y-3.1
X4.3Y-3.2
X4.3Y-3.3
X4.3Y-3.4
X4.3Y-3.5
X4.3Y-3.6
X4.3Y-3.7
X4.3Y-3.8
X4.3Y-3.9
X4.3Y-4.0
X4.3Y-4.1
T0
M30
