G04 #@! TF.GenerationSoftware,KiCad,Pcbnew,(5.1.10)-1*
G04 #@! TF.CreationDate,2021-11-12T09:01:22+01:00*
G04 #@! TF.ProjectId,esp32,65737033-322e-46b6-9963-61645f706362,rev?*
G04 #@! TF.SameCoordinates,Original*
G04 #@! TF.FileFunction,Soldermask,Bot*
G04 #@! TF.FilePolarity,Negative*
%FSLAX46Y46*%
G04 Gerber Fmt 4.6, Leading zero omitted, Abs format (unit mm)*
G04 Created by KiCad (PCBNEW (5.1.10)-1) date 2021-11-12 09:01:22*
%MOMM*%
%LPD*%
G01*
G04 APERTURE LIST*
%ADD10R,1.600000X1.400000*%
%ADD11R,1.200000X2.200000*%
%ADD12C,1.000000*%
%ADD13R,0.700000X1.400000*%
%ADD14R,1.700000X1.700000*%
%ADD15O,1.700000X1.700000*%
%ADD16C,0.100000*%
G04 APERTURE END LIST*
D10*
X105565000Y-89822000D03*
D11*
X105315000Y-99422000D03*
X89815000Y-99422000D03*
D10*
X90715000Y-89822000D03*
D12*
X102515000Y-99822000D03*
X94515000Y-99822000D03*
D13*
X104115000Y-89222000D03*
X103015000Y-89222000D03*
X101915000Y-89222000D03*
X100815000Y-89222000D03*
X99715000Y-89222000D03*
X98615000Y-89222000D03*
X97515000Y-89222000D03*
X96415000Y-89222000D03*
X95315000Y-89222000D03*
D14*
X86360000Y-66040000D03*
D15*
X86360000Y-68580000D03*
X86360000Y-71120000D03*
X86360000Y-73660000D03*
X86360000Y-76200000D03*
X86360000Y-78740000D03*
X86360000Y-81280000D03*
X86360000Y-83820000D03*
X86360000Y-86360000D03*
X86360000Y-88900000D03*
X86360000Y-91440000D03*
X86360000Y-93980000D03*
X86360000Y-96520000D03*
X86360000Y-99060000D03*
X109220000Y-104140000D03*
X109220000Y-101600000D03*
X109220000Y-99060000D03*
X109220000Y-96520000D03*
X109220000Y-93980000D03*
X109220000Y-91440000D03*
X109220000Y-88900000D03*
X109220000Y-86360000D03*
X109220000Y-83820000D03*
X109220000Y-81280000D03*
X109220000Y-78740000D03*
X109220000Y-76200000D03*
X109220000Y-73660000D03*
X109220000Y-71120000D03*
X109220000Y-68580000D03*
X109220000Y-66040000D03*
D16*
G36*
X103390602Y-84694000D02*
G01*
X103390602Y-84669466D01*
X103395412Y-84620635D01*
X103404984Y-84572510D01*
X103419228Y-84525555D01*
X103438005Y-84480222D01*
X103461136Y-84436949D01*
X103488396Y-84396150D01*
X103519524Y-84358221D01*
X103554221Y-84323524D01*
X103592150Y-84292396D01*
X103632949Y-84265136D01*
X103676222Y-84242005D01*
X103721555Y-84223228D01*
X103768510Y-84208984D01*
X103816635Y-84199412D01*
X103865466Y-84194602D01*
X103890000Y-84194602D01*
X103890000Y-84194000D01*
X104390000Y-84194000D01*
X104390000Y-84194602D01*
X104414534Y-84194602D01*
X104463365Y-84199412D01*
X104511490Y-84208984D01*
X104558445Y-84223228D01*
X104603778Y-84242005D01*
X104647051Y-84265136D01*
X104687850Y-84292396D01*
X104725779Y-84323524D01*
X104760476Y-84358221D01*
X104791604Y-84396150D01*
X104818864Y-84436949D01*
X104841995Y-84480222D01*
X104860772Y-84525555D01*
X104875016Y-84572510D01*
X104884588Y-84620635D01*
X104889398Y-84669466D01*
X104889398Y-84694000D01*
X104890000Y-84694000D01*
X104890000Y-85194000D01*
X103390000Y-85194000D01*
X103390000Y-84694000D01*
X103390602Y-84694000D01*
G37*
G36*
X104890000Y-85494000D02*
G01*
X104890000Y-85994000D01*
X104889398Y-85994000D01*
X104889398Y-86018534D01*
X104884588Y-86067365D01*
X104875016Y-86115490D01*
X104860772Y-86162445D01*
X104841995Y-86207778D01*
X104818864Y-86251051D01*
X104791604Y-86291850D01*
X104760476Y-86329779D01*
X104725779Y-86364476D01*
X104687850Y-86395604D01*
X104647051Y-86422864D01*
X104603778Y-86445995D01*
X104558445Y-86464772D01*
X104511490Y-86479016D01*
X104463365Y-86488588D01*
X104414534Y-86493398D01*
X104390000Y-86493398D01*
X104390000Y-86494000D01*
X103890000Y-86494000D01*
X103890000Y-86493398D01*
X103865466Y-86493398D01*
X103816635Y-86488588D01*
X103768510Y-86479016D01*
X103721555Y-86464772D01*
X103676222Y-86445995D01*
X103632949Y-86422864D01*
X103592150Y-86395604D01*
X103554221Y-86364476D01*
X103519524Y-86329779D01*
X103488396Y-86291850D01*
X103461136Y-86251051D01*
X103438005Y-86207778D01*
X103419228Y-86162445D01*
X103404984Y-86115490D01*
X103395412Y-86067365D01*
X103390602Y-86018534D01*
X103390602Y-85994000D01*
X103390000Y-85994000D01*
X103390000Y-85494000D01*
X104890000Y-85494000D01*
G37*
G36*
X102223000Y-85494000D02*
G01*
X102223000Y-85994000D01*
X102222398Y-85994000D01*
X102222398Y-86018534D01*
X102217588Y-86067365D01*
X102208016Y-86115490D01*
X102193772Y-86162445D01*
X102174995Y-86207778D01*
X102151864Y-86251051D01*
X102124604Y-86291850D01*
X102093476Y-86329779D01*
X102058779Y-86364476D01*
X102020850Y-86395604D01*
X101980051Y-86422864D01*
X101936778Y-86445995D01*
X101891445Y-86464772D01*
X101844490Y-86479016D01*
X101796365Y-86488588D01*
X101747534Y-86493398D01*
X101723000Y-86493398D01*
X101723000Y-86494000D01*
X101223000Y-86494000D01*
X101223000Y-86493398D01*
X101198466Y-86493398D01*
X101149635Y-86488588D01*
X101101510Y-86479016D01*
X101054555Y-86464772D01*
X101009222Y-86445995D01*
X100965949Y-86422864D01*
X100925150Y-86395604D01*
X100887221Y-86364476D01*
X100852524Y-86329779D01*
X100821396Y-86291850D01*
X100794136Y-86251051D01*
X100771005Y-86207778D01*
X100752228Y-86162445D01*
X100737984Y-86115490D01*
X100728412Y-86067365D01*
X100723602Y-86018534D01*
X100723602Y-85994000D01*
X100723000Y-85994000D01*
X100723000Y-85494000D01*
X102223000Y-85494000D01*
G37*
G36*
X100723602Y-84694000D02*
G01*
X100723602Y-84669466D01*
X100728412Y-84620635D01*
X100737984Y-84572510D01*
X100752228Y-84525555D01*
X100771005Y-84480222D01*
X100794136Y-84436949D01*
X100821396Y-84396150D01*
X100852524Y-84358221D01*
X100887221Y-84323524D01*
X100925150Y-84292396D01*
X100965949Y-84265136D01*
X101009222Y-84242005D01*
X101054555Y-84223228D01*
X101101510Y-84208984D01*
X101149635Y-84199412D01*
X101198466Y-84194602D01*
X101223000Y-84194602D01*
X101223000Y-84194000D01*
X101723000Y-84194000D01*
X101723000Y-84194602D01*
X101747534Y-84194602D01*
X101796365Y-84199412D01*
X101844490Y-84208984D01*
X101891445Y-84223228D01*
X101936778Y-84242005D01*
X101980051Y-84265136D01*
X102020850Y-84292396D01*
X102058779Y-84323524D01*
X102093476Y-84358221D01*
X102124604Y-84396150D01*
X102151864Y-84436949D01*
X102174995Y-84480222D01*
X102193772Y-84525555D01*
X102208016Y-84572510D01*
X102217588Y-84620635D01*
X102222398Y-84669466D01*
X102222398Y-84694000D01*
X102223000Y-84694000D01*
X102223000Y-85194000D01*
X100723000Y-85194000D01*
X100723000Y-84694000D01*
X100723602Y-84694000D01*
G37*
G36*
G01*
X89827000Y-67727000D02*
X89827000Y-65877000D01*
G75*
G02*
X90077000Y-65627000I250000J0D01*
G01*
X91077000Y-65627000D01*
G75*
G02*
X91327000Y-65877000I0J-250000D01*
G01*
X91327000Y-67727000D01*
G75*
G02*
X91077000Y-67977000I-250000J0D01*
G01*
X90077000Y-67977000D01*
G75*
G02*
X89827000Y-67727000I0J250000D01*
G01*
G37*
G36*
G01*
X93077000Y-67727000D02*
X93077000Y-65877000D01*
G75*
G02*
X93327000Y-65627000I250000J0D01*
G01*
X94327000Y-65627000D01*
G75*
G02*
X94577000Y-65877000I0J-250000D01*
G01*
X94577000Y-67727000D01*
G75*
G02*
X94327000Y-67977000I-250000J0D01*
G01*
X93327000Y-67977000D01*
G75*
G02*
X93077000Y-67727000I0J250000D01*
G01*
G37*
M02*
