M48
; DRILL file {KiCad (5.1.10)-1} date 11/12/21 09:03:24
; FORMAT={-:-/ absolute / metric / decimal}
; #@! TF.CreationDate,2021-11-12T09:03:24+01:00
; #@! TF.GenerationSoftware,Kicad,Pcbnew,(5.1.10)-1
; #@! TF.FileFunction,Plated,1,2,PTH
FMAT,2
METRIC
T1C0.400
T2C1.000
%
G90
G05
T1
X87.553Y-84.893
X89.326Y-102.7
X89.604Y-94.588
X90.092Y-93.657
X90.801Y-73.313
X91.186Y-105.029
X91.301Y-88.386
X91.483Y-87.356
X91.497Y-80.59
X91.673Y-100.114
X91.816Y-85.732
X92.217Y-95.564
X92.304Y-88.083
X92.623Y-81.706
X92.705Y-99.207
X92.91Y-96.317
X93.407Y-94.154
X93.635Y-83.886
X93.937Y-86.076
X94.816Y-103.05
X94.955Y-71.983
X94.955Y-73.817
X95.415Y-86.097
X95.873Y-71.065
X95.873Y-72.9
X95.873Y-74.735
X96.139Y-82.169
X96.52Y-99.568
X96.79Y-71.983
X96.79Y-73.817
X97.123Y-94.243
X97.707Y-71.065
X97.707Y-72.9
X97.707Y-74.735
X98.625Y-71.983
X98.625Y-73.817
X99.255Y-97.696
X99.564Y-82.822
X100.965Y-103.759
X101.218Y-87.46
X101.473Y-90.932
X102.301Y-82.27
X102.476Y-83.862
X103.013Y-87.911
X103.824Y-82.036
X103.946Y-101.428
X104.66Y-73.033
X104.661Y-83.273
X104.683Y-74.823
X105.283Y-94.139
X106.204Y-92.287
X107.224Y-92.175
T2
X86.36Y-66.04
X86.36Y-68.58
X86.36Y-71.12
X86.36Y-73.66
X86.36Y-76.2
X86.36Y-78.74
X86.36Y-81.28
X86.36Y-83.82
X86.36Y-86.36
X86.36Y-88.9
X86.36Y-91.44
X86.36Y-93.98
X86.36Y-96.52
X86.36Y-99.06
X109.22Y-66.04
X109.22Y-68.58
X109.22Y-71.12
X109.22Y-73.66
X109.22Y-76.2
X109.22Y-78.74
X109.22Y-81.28
X109.22Y-83.82
X109.22Y-86.36
X109.22Y-88.9
X109.22Y-91.44
X109.22Y-93.98
X109.22Y-96.52
X109.22Y-99.06
X109.22Y-101.6
X109.22Y-104.14
T0
M30
