%FSLAX45Y45*%
G04 Gerber Fmt 4.5, Leading zero omitted, Abs format (unit mm)*
G04 Created by KiCad (PCBNEW (5.1.10)-1) date 2021-11-05 15:56:35*
%MOMM*%
%LPD*%
G01*
G04 APERTURE LIST*
%TA.AperFunction,Profile*%
%ADD10C,0.050000*%
%TD*%
%ADD11C,0.200000*%
%ADD12C,0.300000*%
G04 APERTURE END LIST*
D10*
X8509000Y-10604500D02*
X8509000Y-6426200D01*
X11049000Y-10604500D02*
X8509000Y-10604500D01*
X11049000Y-6426200D02*
X11049000Y-10604500D01*
X8509000Y-6426200D02*
X11049000Y-6426200D01*
D11*
X9401500Y-9932200D02*
X9501500Y-10032200D01*
X9501500Y-9932200D02*
X9401500Y-10032200D01*
X10201500Y-9932200D02*
X10301500Y-10032200D01*
X10301500Y-9932200D02*
X10201500Y-10032200D01*
D12*
X8792928Y-11072714D02*
X8792928Y-10772714D01*
X8864357Y-10772714D01*
X8907214Y-10787000D01*
X8935786Y-10815572D01*
X8950071Y-10844143D01*
X8964357Y-10901286D01*
X8964357Y-10944143D01*
X8950071Y-11001286D01*
X8935786Y-11029857D01*
X8907214Y-11058429D01*
X8864357Y-11072714D01*
X8792928Y-11072714D01*
X9092928Y-11072714D02*
X9092928Y-10872714D01*
X9092928Y-10929857D02*
X9107214Y-10901286D01*
X9121500Y-10887000D01*
X9150071Y-10872714D01*
X9178643Y-10872714D01*
X9278643Y-11072714D02*
X9278643Y-10872714D01*
X9278643Y-10772714D02*
X9264357Y-10787000D01*
X9278643Y-10801286D01*
X9292928Y-10787000D01*
X9278643Y-10772714D01*
X9278643Y-10801286D01*
X9464357Y-11072714D02*
X9435786Y-11058429D01*
X9421500Y-11029857D01*
X9421500Y-10772714D01*
X9621500Y-11072714D02*
X9592928Y-11058429D01*
X9578643Y-11029857D01*
X9578643Y-10772714D01*
X9964357Y-11072714D02*
X9964357Y-10772714D01*
X10064357Y-10987000D01*
X10164357Y-10772714D01*
X10164357Y-11072714D01*
X10435786Y-11072714D02*
X10435786Y-10915572D01*
X10421500Y-10887000D01*
X10392928Y-10872714D01*
X10335786Y-10872714D01*
X10307214Y-10887000D01*
X10435786Y-11058429D02*
X10407214Y-11072714D01*
X10335786Y-11072714D01*
X10307214Y-11058429D01*
X10292928Y-11029857D01*
X10292928Y-11001286D01*
X10307214Y-10972714D01*
X10335786Y-10958429D01*
X10407214Y-10958429D01*
X10435786Y-10944143D01*
X10578643Y-10872714D02*
X10578643Y-11172714D01*
X10578643Y-10887000D02*
X10607214Y-10872714D01*
X10664357Y-10872714D01*
X10692928Y-10887000D01*
X10707214Y-10901286D01*
X10721500Y-10929857D01*
X10721500Y-11015572D01*
X10707214Y-11044143D01*
X10692928Y-11058429D01*
X10664357Y-11072714D01*
X10607214Y-11072714D01*
X10578643Y-11058429D01*
X10850071Y-11044143D02*
X10864357Y-11058429D01*
X10850071Y-11072714D01*
X10835786Y-11058429D01*
X10850071Y-11044143D01*
X10850071Y-11072714D01*
X10850071Y-10887000D02*
X10864357Y-10901286D01*
X10850071Y-10915572D01*
X10835786Y-10901286D01*
X10850071Y-10887000D01*
X10850071Y-10915572D01*
X8406500Y-11517000D02*
X8506500Y-11617000D01*
X8506500Y-11517000D02*
X8406500Y-11617000D01*
X8950071Y-11702714D02*
X8778643Y-11702714D01*
X8864357Y-11702714D02*
X8864357Y-11402714D01*
X8835786Y-11445571D01*
X8807214Y-11474143D01*
X8778643Y-11488429D01*
X9078643Y-11674143D02*
X9092928Y-11688429D01*
X9078643Y-11702714D01*
X9064357Y-11688429D01*
X9078643Y-11674143D01*
X9078643Y-11702714D01*
X9278643Y-11402714D02*
X9307214Y-11402714D01*
X9335786Y-11417000D01*
X9350071Y-11431286D01*
X9364357Y-11459857D01*
X9378643Y-11517000D01*
X9378643Y-11588429D01*
X9364357Y-11645571D01*
X9350071Y-11674143D01*
X9335786Y-11688429D01*
X9307214Y-11702714D01*
X9278643Y-11702714D01*
X9250071Y-11688429D01*
X9235786Y-11674143D01*
X9221500Y-11645571D01*
X9207214Y-11588429D01*
X9207214Y-11517000D01*
X9221500Y-11459857D01*
X9235786Y-11431286D01*
X9250071Y-11417000D01*
X9278643Y-11402714D01*
X9564357Y-11402714D02*
X9592928Y-11402714D01*
X9621500Y-11417000D01*
X9635786Y-11431286D01*
X9650071Y-11459857D01*
X9664357Y-11517000D01*
X9664357Y-11588429D01*
X9650071Y-11645571D01*
X9635786Y-11674143D01*
X9621500Y-11688429D01*
X9592928Y-11702714D01*
X9564357Y-11702714D01*
X9535786Y-11688429D01*
X9521500Y-11674143D01*
X9507214Y-11645571D01*
X9492928Y-11588429D01*
X9492928Y-11517000D01*
X9507214Y-11459857D01*
X9521500Y-11431286D01*
X9535786Y-11417000D01*
X9564357Y-11402714D01*
X9850071Y-11402714D02*
X9878643Y-11402714D01*
X9907214Y-11417000D01*
X9921500Y-11431286D01*
X9935786Y-11459857D01*
X9950071Y-11517000D01*
X9950071Y-11588429D01*
X9935786Y-11645571D01*
X9921500Y-11674143D01*
X9907214Y-11688429D01*
X9878643Y-11702714D01*
X9850071Y-11702714D01*
X9821500Y-11688429D01*
X9807214Y-11674143D01*
X9792928Y-11645571D01*
X9778643Y-11588429D01*
X9778643Y-11517000D01*
X9792928Y-11459857D01*
X9807214Y-11431286D01*
X9821500Y-11417000D01*
X9850071Y-11402714D01*
X10078643Y-11702714D02*
X10078643Y-11502714D01*
X10078643Y-11531286D02*
X10092928Y-11517000D01*
X10121500Y-11502714D01*
X10164357Y-11502714D01*
X10192928Y-11517000D01*
X10207214Y-11545571D01*
X10207214Y-11702714D01*
X10207214Y-11545571D02*
X10221500Y-11517000D01*
X10250071Y-11502714D01*
X10292928Y-11502714D01*
X10321500Y-11517000D01*
X10335786Y-11545571D01*
X10335786Y-11702714D01*
X10478643Y-11702714D02*
X10478643Y-11502714D01*
X10478643Y-11531286D02*
X10492928Y-11517000D01*
X10521500Y-11502714D01*
X10564357Y-11502714D01*
X10592928Y-11517000D01*
X10607214Y-11545571D01*
X10607214Y-11702714D01*
X10607214Y-11545571D02*
X10621500Y-11517000D01*
X10650071Y-11502714D01*
X10692928Y-11502714D01*
X10721500Y-11517000D01*
X10735786Y-11545571D01*
X10735786Y-11702714D01*
X11321500Y-11388429D02*
X11064357Y-11774143D01*
X11707214Y-11402714D02*
X11735786Y-11402714D01*
X11764357Y-11417000D01*
X11778643Y-11431286D01*
X11792928Y-11459857D01*
X11807214Y-11517000D01*
X11807214Y-11588429D01*
X11792928Y-11645571D01*
X11778643Y-11674143D01*
X11764357Y-11688429D01*
X11735786Y-11702714D01*
X11707214Y-11702714D01*
X11678643Y-11688429D01*
X11664357Y-11674143D01*
X11650071Y-11645571D01*
X11635786Y-11588429D01*
X11635786Y-11517000D01*
X11650071Y-11459857D01*
X11664357Y-11431286D01*
X11678643Y-11417000D01*
X11707214Y-11402714D01*
X11935786Y-11674143D02*
X11950071Y-11688429D01*
X11935786Y-11702714D01*
X11921500Y-11688429D01*
X11935786Y-11674143D01*
X11935786Y-11702714D01*
X12135786Y-11402714D02*
X12164357Y-11402714D01*
X12192928Y-11417000D01*
X12207214Y-11431286D01*
X12221500Y-11459857D01*
X12235786Y-11517000D01*
X12235786Y-11588429D01*
X12221500Y-11645571D01*
X12207214Y-11674143D01*
X12192928Y-11688429D01*
X12164357Y-11702714D01*
X12135786Y-11702714D01*
X12107214Y-11688429D01*
X12092928Y-11674143D01*
X12078643Y-11645571D01*
X12064357Y-11588429D01*
X12064357Y-11517000D01*
X12078643Y-11459857D01*
X12092928Y-11431286D01*
X12107214Y-11417000D01*
X12135786Y-11402714D01*
X12335786Y-11402714D02*
X12521500Y-11402714D01*
X12421500Y-11517000D01*
X12464357Y-11517000D01*
X12492928Y-11531286D01*
X12507214Y-11545571D01*
X12521500Y-11574143D01*
X12521500Y-11645571D01*
X12507214Y-11674143D01*
X12492928Y-11688429D01*
X12464357Y-11702714D01*
X12378643Y-11702714D01*
X12350071Y-11688429D01*
X12335786Y-11674143D01*
X12664357Y-11702714D02*
X12721500Y-11702714D01*
X12750071Y-11688429D01*
X12764357Y-11674143D01*
X12792928Y-11631286D01*
X12807214Y-11574143D01*
X12807214Y-11459857D01*
X12792928Y-11431286D01*
X12778643Y-11417000D01*
X12750071Y-11402714D01*
X12692928Y-11402714D01*
X12664357Y-11417000D01*
X12650071Y-11431286D01*
X12635786Y-11459857D01*
X12635786Y-11531286D01*
X12650071Y-11559857D01*
X12664357Y-11574143D01*
X12692928Y-11588429D01*
X12750071Y-11588429D01*
X12778643Y-11574143D01*
X12792928Y-11559857D01*
X12807214Y-11531286D01*
X13064357Y-11502714D02*
X13064357Y-11702714D01*
X12992928Y-11388429D02*
X12921500Y-11602714D01*
X13107214Y-11602714D01*
X13207214Y-11402714D02*
X13207214Y-11459857D01*
X13321500Y-11402714D02*
X13321500Y-11459857D01*
X13764357Y-11817000D02*
X13750071Y-11802714D01*
X13721500Y-11759857D01*
X13707214Y-11731286D01*
X13692928Y-11688429D01*
X13678643Y-11617000D01*
X13678643Y-11559857D01*
X13692928Y-11488429D01*
X13707214Y-11445571D01*
X13721500Y-11417000D01*
X13750071Y-11374143D01*
X13764357Y-11359857D01*
X13864357Y-11431286D02*
X13878643Y-11417000D01*
X13907214Y-11402714D01*
X13978643Y-11402714D01*
X14007214Y-11417000D01*
X14021500Y-11431286D01*
X14035786Y-11459857D01*
X14035786Y-11488429D01*
X14021500Y-11531286D01*
X13850071Y-11702714D01*
X14035786Y-11702714D01*
X14392928Y-11702714D02*
X14392928Y-11402714D01*
X14521500Y-11702714D02*
X14521500Y-11545571D01*
X14507214Y-11517000D01*
X14478643Y-11502714D01*
X14435786Y-11502714D01*
X14407214Y-11517000D01*
X14392928Y-11531286D01*
X14707214Y-11702714D02*
X14678643Y-11688429D01*
X14664357Y-11674143D01*
X14650071Y-11645571D01*
X14650071Y-11559857D01*
X14664357Y-11531286D01*
X14678643Y-11517000D01*
X14707214Y-11502714D01*
X14750071Y-11502714D01*
X14778643Y-11517000D01*
X14792928Y-11531286D01*
X14807214Y-11559857D01*
X14807214Y-11645571D01*
X14792928Y-11674143D01*
X14778643Y-11688429D01*
X14750071Y-11702714D01*
X14707214Y-11702714D01*
X14978643Y-11702714D02*
X14950071Y-11688429D01*
X14935786Y-11659857D01*
X14935786Y-11402714D01*
X15207214Y-11688429D02*
X15178643Y-11702714D01*
X15121500Y-11702714D01*
X15092928Y-11688429D01*
X15078643Y-11659857D01*
X15078643Y-11545571D01*
X15092928Y-11517000D01*
X15121500Y-11502714D01*
X15178643Y-11502714D01*
X15207214Y-11517000D01*
X15221500Y-11545571D01*
X15221500Y-11574143D01*
X15078643Y-11602714D01*
X15335786Y-11688429D02*
X15364357Y-11702714D01*
X15421500Y-11702714D01*
X15450071Y-11688429D01*
X15464357Y-11659857D01*
X15464357Y-11645571D01*
X15450071Y-11617000D01*
X15421500Y-11602714D01*
X15378643Y-11602714D01*
X15350071Y-11588429D01*
X15335786Y-11559857D01*
X15335786Y-11545571D01*
X15350071Y-11517000D01*
X15378643Y-11502714D01*
X15421500Y-11502714D01*
X15450071Y-11517000D01*
X15564357Y-11817000D02*
X15578643Y-11802714D01*
X15607214Y-11759857D01*
X15621500Y-11731286D01*
X15635786Y-11688429D01*
X15650071Y-11617000D01*
X15650071Y-11559857D01*
X15635786Y-11488429D01*
X15621500Y-11445571D01*
X15607214Y-11417000D01*
X15578643Y-11374143D01*
X15564357Y-11359857D01*
X16107214Y-11817000D02*
X16092928Y-11802714D01*
X16064357Y-11759857D01*
X16050071Y-11731286D01*
X16035786Y-11688429D01*
X16021500Y-11617000D01*
X16021500Y-11559857D01*
X16035786Y-11488429D01*
X16050071Y-11445571D01*
X16064357Y-11417000D01*
X16092928Y-11374143D01*
X16107214Y-11359857D01*
X16221500Y-11502714D02*
X16221500Y-11702714D01*
X16221500Y-11531286D02*
X16235786Y-11517000D01*
X16264357Y-11502714D01*
X16307214Y-11502714D01*
X16335786Y-11517000D01*
X16350071Y-11545571D01*
X16350071Y-11702714D01*
X16535786Y-11702714D02*
X16507214Y-11688429D01*
X16492928Y-11674143D01*
X16478643Y-11645571D01*
X16478643Y-11559857D01*
X16492928Y-11531286D01*
X16507214Y-11517000D01*
X16535786Y-11502714D01*
X16578643Y-11502714D01*
X16607214Y-11517000D01*
X16621500Y-11531286D01*
X16635786Y-11559857D01*
X16635786Y-11645571D01*
X16621500Y-11674143D01*
X16607214Y-11688429D01*
X16578643Y-11702714D01*
X16535786Y-11702714D01*
X16721500Y-11502714D02*
X16835786Y-11502714D01*
X16764357Y-11402714D02*
X16764357Y-11659857D01*
X16778643Y-11688429D01*
X16807214Y-11702714D01*
X16835786Y-11702714D01*
X17164357Y-11502714D02*
X17164357Y-11802714D01*
X17164357Y-11517000D02*
X17192928Y-11502714D01*
X17250071Y-11502714D01*
X17278643Y-11517000D01*
X17292928Y-11531286D01*
X17307214Y-11559857D01*
X17307214Y-11645571D01*
X17292928Y-11674143D01*
X17278643Y-11688429D01*
X17250071Y-11702714D01*
X17192928Y-11702714D01*
X17164357Y-11688429D01*
X17478643Y-11702714D02*
X17450071Y-11688429D01*
X17435786Y-11659857D01*
X17435786Y-11402714D01*
X17721500Y-11702714D02*
X17721500Y-11545571D01*
X17707214Y-11517000D01*
X17678643Y-11502714D01*
X17621500Y-11502714D01*
X17592928Y-11517000D01*
X17721500Y-11688429D02*
X17692928Y-11702714D01*
X17621500Y-11702714D01*
X17592928Y-11688429D01*
X17578643Y-11659857D01*
X17578643Y-11631286D01*
X17592928Y-11602714D01*
X17621500Y-11588429D01*
X17692928Y-11588429D01*
X17721500Y-11574143D01*
X17821500Y-11502714D02*
X17935786Y-11502714D01*
X17864357Y-11402714D02*
X17864357Y-11659857D01*
X17878643Y-11688429D01*
X17907214Y-11702714D01*
X17935786Y-11702714D01*
X18150071Y-11688429D02*
X18121500Y-11702714D01*
X18064357Y-11702714D01*
X18035786Y-11688429D01*
X18021500Y-11659857D01*
X18021500Y-11545571D01*
X18035786Y-11517000D01*
X18064357Y-11502714D01*
X18121500Y-11502714D01*
X18150071Y-11517000D01*
X18164357Y-11545571D01*
X18164357Y-11574143D01*
X18021500Y-11602714D01*
X18421500Y-11702714D02*
X18421500Y-11402714D01*
X18421500Y-11688429D02*
X18392928Y-11702714D01*
X18335786Y-11702714D01*
X18307214Y-11688429D01*
X18292928Y-11674143D01*
X18278643Y-11645571D01*
X18278643Y-11559857D01*
X18292928Y-11531286D01*
X18307214Y-11517000D01*
X18335786Y-11502714D01*
X18392928Y-11502714D01*
X18421500Y-11517000D01*
X18535786Y-11817000D02*
X18550071Y-11802714D01*
X18578643Y-11759857D01*
X18592928Y-11731286D01*
X18607214Y-11688429D01*
X18621500Y-11617000D01*
X18621500Y-11559857D01*
X18607214Y-11488429D01*
X18592928Y-11445571D01*
X18578643Y-11417000D01*
X18550071Y-11374143D01*
X18535786Y-11359857D01*
M02*
