%TF.GenerationSoftware,KiCad,Pcbnew,(5.1.10)-1*%
%TF.CreationDate,2021-07-24T14:48:27+02:00*%
%TF.ProjectId,esp32,65737033-322e-46b6-9963-61645f706362,rev?*%
%TF.SameCoordinates,Original*%
%TF.FileFunction,Paste,Top*%
%TF.FilePolarity,Positive*%
%FSLAX46Y46*%
G04 Gerber Fmt 4.6, Leading zero omitted, Abs format (unit mm)*
G04 Created by KiCad (PCBNEW (5.1.10)-1) date 2021-07-24 14:48:27*
%MOMM*%
%LPD*%
G01*
G04 APERTURE LIST*
%ADD10R,2.000000X0.900000*%
%ADD11R,1.330000X1.330000*%
%ADD12R,0.650000X1.500000*%
%ADD13R,0.750000X0.700000*%
%ADD14R,0.650000X1.060000*%
G04 APERTURE END LIST*
%TO.C,C2*%
G36*
G01*
X98608000Y-103636000D02*
X98608000Y-104136000D01*
G75*
G02*
X98383000Y-104361000I-225000J0D01*
G01*
X97933000Y-104361000D01*
G75*
G02*
X97708000Y-104136000I0J225000D01*
G01*
X97708000Y-103636000D01*
G75*
G02*
X97933000Y-103411000I225000J0D01*
G01*
X98383000Y-103411000D01*
G75*
G02*
X98608000Y-103636000I0J-225000D01*
G01*
G37*
G36*
G01*
X100158000Y-103636000D02*
X100158000Y-104136000D01*
G75*
G02*
X99933000Y-104361000I-225000J0D01*
G01*
X99483000Y-104361000D01*
G75*
G02*
X99258000Y-104136000I0J225000D01*
G01*
X99258000Y-103636000D01*
G75*
G02*
X99483000Y-103411000I225000J0D01*
G01*
X99933000Y-103411000D01*
G75*
G02*
X100158000Y-103636000I0J-225000D01*
G01*
G37*
%TD*%
%TO.C,C3*%
G36*
G01*
X101858000Y-101645000D02*
X102358000Y-101645000D01*
G75*
G02*
X102583000Y-101870000I0J-225000D01*
G01*
X102583000Y-102320000D01*
G75*
G02*
X102358000Y-102545000I-225000J0D01*
G01*
X101858000Y-102545000D01*
G75*
G02*
X101633000Y-102320000I0J225000D01*
G01*
X101633000Y-101870000D01*
G75*
G02*
X101858000Y-101645000I225000J0D01*
G01*
G37*
G36*
G01*
X101858000Y-103195000D02*
X102358000Y-103195000D01*
G75*
G02*
X102583000Y-103420000I0J-225000D01*
G01*
X102583000Y-103870000D01*
G75*
G02*
X102358000Y-104095000I-225000J0D01*
G01*
X101858000Y-104095000D01*
G75*
G02*
X101633000Y-103870000I0J225000D01*
G01*
X101633000Y-103420000D01*
G75*
G02*
X101858000Y-103195000I225000J0D01*
G01*
G37*
%TD*%
%TO.C,R1*%
G36*
G01*
X94255000Y-102572000D02*
X93705000Y-102572000D01*
G75*
G02*
X93505000Y-102372000I0J200000D01*
G01*
X93505000Y-101972000D01*
G75*
G02*
X93705000Y-101772000I200000J0D01*
G01*
X94255000Y-101772000D01*
G75*
G02*
X94455000Y-101972000I0J-200000D01*
G01*
X94455000Y-102372000D01*
G75*
G02*
X94255000Y-102572000I-200000J0D01*
G01*
G37*
G36*
G01*
X94255000Y-104222000D02*
X93705000Y-104222000D01*
G75*
G02*
X93505000Y-104022000I0J200000D01*
G01*
X93505000Y-103622000D01*
G75*
G02*
X93705000Y-103422000I200000J0D01*
G01*
X94255000Y-103422000D01*
G75*
G02*
X94455000Y-103622000I0J-200000D01*
G01*
X94455000Y-104022000D01*
G75*
G02*
X94255000Y-104222000I-200000J0D01*
G01*
G37*
%TD*%
%TO.C,R2*%
G36*
G01*
X88540000Y-104095000D02*
X87990000Y-104095000D01*
G75*
G02*
X87790000Y-103895000I0J200000D01*
G01*
X87790000Y-103495000D01*
G75*
G02*
X87990000Y-103295000I200000J0D01*
G01*
X88540000Y-103295000D01*
G75*
G02*
X88740000Y-103495000I0J-200000D01*
G01*
X88740000Y-103895000D01*
G75*
G02*
X88540000Y-104095000I-200000J0D01*
G01*
G37*
G36*
G01*
X88540000Y-102445000D02*
X87990000Y-102445000D01*
G75*
G02*
X87790000Y-102245000I0J200000D01*
G01*
X87790000Y-101845000D01*
G75*
G02*
X87990000Y-101645000I200000J0D01*
G01*
X88540000Y-101645000D01*
G75*
G02*
X88740000Y-101845000I0J-200000D01*
G01*
X88740000Y-102245000D01*
G75*
G02*
X88540000Y-102445000I-200000J0D01*
G01*
G37*
%TD*%
%TO.C,R3*%
G36*
G01*
X86212000Y-101645000D02*
X86762000Y-101645000D01*
G75*
G02*
X86962000Y-101845000I0J-200000D01*
G01*
X86962000Y-102245000D01*
G75*
G02*
X86762000Y-102445000I-200000J0D01*
G01*
X86212000Y-102445000D01*
G75*
G02*
X86012000Y-102245000I0J200000D01*
G01*
X86012000Y-101845000D01*
G75*
G02*
X86212000Y-101645000I200000J0D01*
G01*
G37*
G36*
G01*
X86212000Y-103295000D02*
X86762000Y-103295000D01*
G75*
G02*
X86962000Y-103495000I0J-200000D01*
G01*
X86962000Y-103895000D01*
G75*
G02*
X86762000Y-104095000I-200000J0D01*
G01*
X86212000Y-104095000D01*
G75*
G02*
X86012000Y-103895000I0J200000D01*
G01*
X86012000Y-103495000D01*
G75*
G02*
X86212000Y-103295000I200000J0D01*
G01*
G37*
%TD*%
%TO.C,R4*%
G36*
G01*
X95483000Y-103422000D02*
X96033000Y-103422000D01*
G75*
G02*
X96233000Y-103622000I0J-200000D01*
G01*
X96233000Y-104022000D01*
G75*
G02*
X96033000Y-104222000I-200000J0D01*
G01*
X95483000Y-104222000D01*
G75*
G02*
X95283000Y-104022000I0J200000D01*
G01*
X95283000Y-103622000D01*
G75*
G02*
X95483000Y-103422000I200000J0D01*
G01*
G37*
G36*
G01*
X95483000Y-101772000D02*
X96033000Y-101772000D01*
G75*
G02*
X96233000Y-101972000I0J-200000D01*
G01*
X96233000Y-102372000D01*
G75*
G02*
X96033000Y-102572000I-200000J0D01*
G01*
X95483000Y-102572000D01*
G75*
G02*
X95283000Y-102372000I0J200000D01*
G01*
X95283000Y-101972000D01*
G75*
G02*
X95483000Y-101772000I200000J0D01*
G01*
G37*
%TD*%
%TO.C,R5*%
G36*
G01*
X107463000Y-93935000D02*
X106913000Y-93935000D01*
G75*
G02*
X106713000Y-93735000I0J200000D01*
G01*
X106713000Y-93335000D01*
G75*
G02*
X106913000Y-93135000I200000J0D01*
G01*
X107463000Y-93135000D01*
G75*
G02*
X107663000Y-93335000I0J-200000D01*
G01*
X107663000Y-93735000D01*
G75*
G02*
X107463000Y-93935000I-200000J0D01*
G01*
G37*
G36*
G01*
X107463000Y-92285000D02*
X106913000Y-92285000D01*
G75*
G02*
X106713000Y-92085000I0J200000D01*
G01*
X106713000Y-91685000D01*
G75*
G02*
X106913000Y-91485000I200000J0D01*
G01*
X107463000Y-91485000D01*
G75*
G02*
X107663000Y-91685000I0J-200000D01*
G01*
X107663000Y-92085000D01*
G75*
G02*
X107463000Y-92285000I-200000J0D01*
G01*
G37*
%TD*%
%TO.C,U2*%
G36*
G01*
X105133000Y-91546000D02*
X105433000Y-91546000D01*
G75*
G02*
X105583000Y-91696000I0J-150000D01*
G01*
X105583000Y-93346000D01*
G75*
G02*
X105433000Y-93496000I-150000J0D01*
G01*
X105133000Y-93496000D01*
G75*
G02*
X104983000Y-93346000I0J150000D01*
G01*
X104983000Y-91696000D01*
G75*
G02*
X105133000Y-91546000I150000J0D01*
G01*
G37*
G36*
G01*
X103863000Y-91546000D02*
X104163000Y-91546000D01*
G75*
G02*
X104313000Y-91696000I0J-150000D01*
G01*
X104313000Y-93346000D01*
G75*
G02*
X104163000Y-93496000I-150000J0D01*
G01*
X103863000Y-93496000D01*
G75*
G02*
X103713000Y-93346000I0J150000D01*
G01*
X103713000Y-91696000D01*
G75*
G02*
X103863000Y-91546000I150000J0D01*
G01*
G37*
G36*
G01*
X102593000Y-91546000D02*
X102893000Y-91546000D01*
G75*
G02*
X103043000Y-91696000I0J-150000D01*
G01*
X103043000Y-93346000D01*
G75*
G02*
X102893000Y-93496000I-150000J0D01*
G01*
X102593000Y-93496000D01*
G75*
G02*
X102443000Y-93346000I0J150000D01*
G01*
X102443000Y-91696000D01*
G75*
G02*
X102593000Y-91546000I150000J0D01*
G01*
G37*
G36*
G01*
X101323000Y-91546000D02*
X101623000Y-91546000D01*
G75*
G02*
X101773000Y-91696000I0J-150000D01*
G01*
X101773000Y-93346000D01*
G75*
G02*
X101623000Y-93496000I-150000J0D01*
G01*
X101323000Y-93496000D01*
G75*
G02*
X101173000Y-93346000I0J150000D01*
G01*
X101173000Y-91696000D01*
G75*
G02*
X101323000Y-91546000I150000J0D01*
G01*
G37*
G36*
G01*
X101323000Y-96496000D02*
X101623000Y-96496000D01*
G75*
G02*
X101773000Y-96646000I0J-150000D01*
G01*
X101773000Y-98296000D01*
G75*
G02*
X101623000Y-98446000I-150000J0D01*
G01*
X101323000Y-98446000D01*
G75*
G02*
X101173000Y-98296000I0J150000D01*
G01*
X101173000Y-96646000D01*
G75*
G02*
X101323000Y-96496000I150000J0D01*
G01*
G37*
G36*
G01*
X102593000Y-96496000D02*
X102893000Y-96496000D01*
G75*
G02*
X103043000Y-96646000I0J-150000D01*
G01*
X103043000Y-98296000D01*
G75*
G02*
X102893000Y-98446000I-150000J0D01*
G01*
X102593000Y-98446000D01*
G75*
G02*
X102443000Y-98296000I0J150000D01*
G01*
X102443000Y-96646000D01*
G75*
G02*
X102593000Y-96496000I150000J0D01*
G01*
G37*
G36*
G01*
X103863000Y-96496000D02*
X104163000Y-96496000D01*
G75*
G02*
X104313000Y-96646000I0J-150000D01*
G01*
X104313000Y-98296000D01*
G75*
G02*
X104163000Y-98446000I-150000J0D01*
G01*
X103863000Y-98446000D01*
G75*
G02*
X103713000Y-98296000I0J150000D01*
G01*
X103713000Y-96646000D01*
G75*
G02*
X103863000Y-96496000I150000J0D01*
G01*
G37*
G36*
G01*
X105133000Y-96496000D02*
X105433000Y-96496000D01*
G75*
G02*
X105583000Y-96646000I0J-150000D01*
G01*
X105583000Y-98296000D01*
G75*
G02*
X105433000Y-98446000I-150000J0D01*
G01*
X105133000Y-98446000D01*
G75*
G02*
X104983000Y-98296000I0J150000D01*
G01*
X104983000Y-96646000D01*
G75*
G02*
X105133000Y-96496000I150000J0D01*
G01*
G37*
%TD*%
D10*
%TO.C,IC1*%
X89290000Y-65400000D03*
X89290000Y-66670000D03*
X89290000Y-67940000D03*
X89290000Y-69210000D03*
X89290000Y-70480000D03*
X89290000Y-71750000D03*
X89290000Y-73020000D03*
X89290000Y-74290000D03*
X89290000Y-75560000D03*
X89290000Y-76830000D03*
X89290000Y-78100000D03*
X89290000Y-79370000D03*
X89290000Y-80640000D03*
X89290000Y-81910000D03*
X89290000Y-83180000D03*
X89290000Y-84450000D03*
X89290000Y-85720000D03*
X89290000Y-86990000D03*
X89290000Y-88260000D03*
X106290000Y-88260000D03*
X106290000Y-86990000D03*
X106290000Y-85720000D03*
X106290000Y-84450000D03*
X106290000Y-83180000D03*
X106290000Y-81910000D03*
X106290000Y-80640000D03*
X106290000Y-79370000D03*
X106290000Y-78100000D03*
X106290000Y-76830000D03*
X106290000Y-75560000D03*
X106290000Y-74290000D03*
X106290000Y-73020000D03*
X106290000Y-71750000D03*
X106290000Y-70480000D03*
X106290000Y-69210000D03*
X106290000Y-67940000D03*
X106290000Y-66670000D03*
X106290000Y-65400000D03*
D11*
X96790000Y-72900000D03*
X94955000Y-71065000D03*
X94955000Y-72900000D03*
X94955000Y-74735000D03*
X96790000Y-74735000D03*
X98625000Y-74735000D03*
X98625000Y-72900000D03*
X98625000Y-71065000D03*
X96790000Y-71065000D03*
%TD*%
%TO.C,C4*%
G36*
G01*
X99572000Y-93101000D02*
X100072000Y-93101000D01*
G75*
G02*
X100297000Y-93326000I0J-225000D01*
G01*
X100297000Y-93776000D01*
G75*
G02*
X100072000Y-94001000I-225000J0D01*
G01*
X99572000Y-94001000D01*
G75*
G02*
X99347000Y-93776000I0J225000D01*
G01*
X99347000Y-93326000D01*
G75*
G02*
X99572000Y-93101000I225000J0D01*
G01*
G37*
G36*
G01*
X99572000Y-91551000D02*
X100072000Y-91551000D01*
G75*
G02*
X100297000Y-91776000I0J-225000D01*
G01*
X100297000Y-92226000D01*
G75*
G02*
X100072000Y-92451000I-225000J0D01*
G01*
X99572000Y-92451000D01*
G75*
G02*
X99347000Y-92226000I0J225000D01*
G01*
X99347000Y-91776000D01*
G75*
G02*
X99572000Y-91551000I225000J0D01*
G01*
G37*
%TD*%
%TO.C,C5*%
G36*
G01*
X88396000Y-91551000D02*
X88896000Y-91551000D01*
G75*
G02*
X89121000Y-91776000I0J-225000D01*
G01*
X89121000Y-92226000D01*
G75*
G02*
X88896000Y-92451000I-225000J0D01*
G01*
X88396000Y-92451000D01*
G75*
G02*
X88171000Y-92226000I0J225000D01*
G01*
X88171000Y-91776000D01*
G75*
G02*
X88396000Y-91551000I225000J0D01*
G01*
G37*
G36*
G01*
X88396000Y-93101000D02*
X88896000Y-93101000D01*
G75*
G02*
X89121000Y-93326000I0J-225000D01*
G01*
X89121000Y-93776000D01*
G75*
G02*
X88896000Y-94001000I-225000J0D01*
G01*
X88396000Y-94001000D01*
G75*
G02*
X88171000Y-93776000I0J225000D01*
G01*
X88171000Y-93326000D01*
G75*
G02*
X88396000Y-93101000I225000J0D01*
G01*
G37*
%TD*%
%TO.C,C6*%
G36*
G01*
X88896000Y-98761000D02*
X88396000Y-98761000D01*
G75*
G02*
X88171000Y-98536000I0J225000D01*
G01*
X88171000Y-98086000D01*
G75*
G02*
X88396000Y-97861000I225000J0D01*
G01*
X88896000Y-97861000D01*
G75*
G02*
X89121000Y-98086000I0J-225000D01*
G01*
X89121000Y-98536000D01*
G75*
G02*
X88896000Y-98761000I-225000J0D01*
G01*
G37*
G36*
G01*
X88896000Y-97211000D02*
X88396000Y-97211000D01*
G75*
G02*
X88171000Y-96986000I0J225000D01*
G01*
X88171000Y-96536000D01*
G75*
G02*
X88396000Y-96311000I225000J0D01*
G01*
X88896000Y-96311000D01*
G75*
G02*
X89121000Y-96536000I0J-225000D01*
G01*
X89121000Y-96986000D01*
G75*
G02*
X88896000Y-97211000I-225000J0D01*
G01*
G37*
%TD*%
%TO.C,R7*%
G36*
G01*
X90379000Y-99801000D02*
X90379000Y-100351000D01*
G75*
G02*
X90179000Y-100551000I-200000J0D01*
G01*
X89779000Y-100551000D01*
G75*
G02*
X89579000Y-100351000I0J200000D01*
G01*
X89579000Y-99801000D01*
G75*
G02*
X89779000Y-99601000I200000J0D01*
G01*
X90179000Y-99601000D01*
G75*
G02*
X90379000Y-99801000I0J-200000D01*
G01*
G37*
G36*
G01*
X88729000Y-99801000D02*
X88729000Y-100351000D01*
G75*
G02*
X88529000Y-100551000I-200000J0D01*
G01*
X88129000Y-100551000D01*
G75*
G02*
X87929000Y-100351000I0J200000D01*
G01*
X87929000Y-99801000D01*
G75*
G02*
X88129000Y-99601000I200000J0D01*
G01*
X88529000Y-99601000D01*
G75*
G02*
X88729000Y-99801000I0J-200000D01*
G01*
G37*
%TD*%
%TO.C,R6*%
G36*
G01*
X104415000Y-104095000D02*
X103865000Y-104095000D01*
G75*
G02*
X103665000Y-103895000I0J200000D01*
G01*
X103665000Y-103495000D01*
G75*
G02*
X103865000Y-103295000I200000J0D01*
G01*
X104415000Y-103295000D01*
G75*
G02*
X104615000Y-103495000I0J-200000D01*
G01*
X104615000Y-103895000D01*
G75*
G02*
X104415000Y-104095000I-200000J0D01*
G01*
G37*
G36*
G01*
X104415000Y-102445000D02*
X103865000Y-102445000D01*
G75*
G02*
X103665000Y-102245000I0J200000D01*
G01*
X103665000Y-101845000D01*
G75*
G02*
X103865000Y-101645000I200000J0D01*
G01*
X104415000Y-101645000D01*
G75*
G02*
X104615000Y-101845000I0J-200000D01*
G01*
X104615000Y-102245000D01*
G75*
G02*
X104415000Y-102445000I-200000J0D01*
G01*
G37*
%TD*%
D12*
%TO.C,U1*%
X90170000Y-97696000D03*
X91440000Y-97696000D03*
X92710000Y-97696000D03*
X93980000Y-97696000D03*
X95250000Y-97696000D03*
X96520000Y-97696000D03*
X97790000Y-97696000D03*
X97790000Y-92296000D03*
X96520000Y-92296000D03*
X95250000Y-92296000D03*
X93980000Y-92296000D03*
X92710000Y-92296000D03*
X91440000Y-92296000D03*
X90170000Y-92296000D03*
%TD*%
D13*
%TO.C,Y1*%
X99608000Y-100592000D03*
X98258000Y-100592000D03*
X98258000Y-101592000D03*
X99608000Y-101592000D03*
%TD*%
D14*
%TO.C,U3*%
X90236000Y-104097000D03*
X91186000Y-104097000D03*
X92136000Y-104097000D03*
X92136000Y-101897000D03*
X90236000Y-101897000D03*
X91186000Y-101897000D03*
%TD*%
M02*
