M48
; DRILL file {KiCad (5.1.10)-1} date 07/26/21 15:24:51
; FORMAT={-:-/ absolute / metric / decimal}
; #@! TF.CreationDate,2021-07-26T15:24:51+02:00
; #@! TF.GenerationSoftware,Kicad,Pcbnew,(5.1.10)-1
; #@! TF.FileFunction,Plated,1,2,PTH
FMAT,2
METRIC
T1C0.400
T2C1.000
%
G90
G05
T1
X90.462Y-94.551
X90.802Y-75.847
X90.904Y-79.875
X90.936Y-77.322
X90.948Y-82.443
X91.018Y-83.808
X91.25Y-87.606
X91.84Y-86.518
X91.846Y-95.856
X92.136Y-100.756
X93.195Y-100.729
X94.955Y-71.983
X94.955Y-73.817
X95.202Y-84.976
X95.468Y-100.848
X95.873Y-71.065
X95.873Y-72.9
X95.873Y-74.735
X96.581Y-95.344
X96.79Y-71.983
X96.79Y-73.817
X96.83Y-101.23
X96.84Y-87.71
X97.707Y-71.065
X97.707Y-72.9
X97.707Y-74.735
X98.625Y-71.983
X98.625Y-73.817
X98.75Y-91.183
X100.049Y-90.935
X103.035Y-95.563
X103.843Y-80.331
X104.635Y-81.192
X104.66Y-82.386
X104.665Y-83.48
X104.666Y-72.822
X104.675Y-74.83
T2
X86.36Y-66.04
X86.36Y-68.58
X86.36Y-71.12
X86.36Y-73.66
X86.36Y-76.2
X86.36Y-78.74
X86.36Y-81.28
X86.36Y-83.82
X86.36Y-86.36
X86.36Y-88.9
X86.36Y-91.44
X86.36Y-93.98
X86.36Y-96.52
X86.36Y-99.06
X109.22Y-66.04
X109.22Y-68.58
X109.22Y-71.12
X109.22Y-73.66
X109.22Y-76.2
X109.22Y-78.74
X109.22Y-81.28
X109.22Y-83.82
X109.22Y-86.36
X109.22Y-88.9
X109.22Y-91.44
X109.22Y-93.98
X109.22Y-96.52
X109.22Y-99.06
X109.22Y-101.6
X109.22Y-104.14
T0
M30
