M48
; DRILL file {KiCad (5.1.10)-1} date 08/06/21 13:08:46
; FORMAT={-:-/ absolute / metric / decimal}
; #@! TF.CreationDate,2021-08-06T13:08:46+02:00
; #@! TF.GenerationSoftware,Kicad,Pcbnew,(5.1.10)-1
; #@! TF.FileFunction,Plated,1,2,PTH
FMAT,2
METRIC
T1C0.400
T2C1.000
%
G90
G05
T1
X87.432Y-102.914
X87.762Y-92.775
X89.163Y-102.825
X89.302Y-94.722
X90.807Y-75.841
X90.901Y-82.877
X90.913Y-87.078
X91.304Y-99.109
X91.478Y-87.928
X91.721Y-100.438
X91.754Y-95.881
X91.978Y-94.584
X92.366Y-82.903
X92.665Y-86.003
X92.873Y-84.767
X93.378Y-89.494
X94.955Y-71.983
X94.955Y-73.817
X95.524Y-83.635
X95.873Y-71.065
X95.873Y-72.9
X95.873Y-74.735
X96.79Y-71.983
X96.79Y-73.817
X97.019Y-102.514
X97.707Y-71.065
X97.707Y-72.9
X97.707Y-74.735
X98.189Y-96.235
X98.458Y-87.389
X98.625Y-71.983
X98.625Y-73.817
X99.822Y-90.769
X100.549Y-96.372
X101.473Y-87.122
X102.474Y-87.028
X103.047Y-83.961
X104.059Y-81.91
X104.666Y-72.596
X104.671Y-80.959
X104.687Y-74.8
X106.966Y-90.381
T2
X86.36Y-66.04
X86.36Y-68.58
X86.36Y-71.12
X86.36Y-73.66
X86.36Y-76.2
X86.36Y-78.74
X86.36Y-81.28
X86.36Y-83.82
X86.36Y-86.36
X86.36Y-88.9
X86.36Y-91.44
X86.36Y-93.98
X86.36Y-96.52
X86.36Y-99.06
X109.22Y-66.04
X109.22Y-68.58
X109.22Y-71.12
X109.22Y-73.66
X109.22Y-76.2
X109.22Y-78.74
X109.22Y-81.28
X109.22Y-83.82
X109.22Y-86.36
X109.22Y-88.9
X109.22Y-91.44
X109.22Y-93.98
X109.22Y-96.52
X109.22Y-99.06
X109.22Y-101.6
X109.22Y-104.14
T0
M30
