G04 #@! TF.GenerationSoftware,KiCad,Pcbnew,(5.1.10)-1*
G04 #@! TF.CreationDate,2021-11-05T15:55:45+01:00*
G04 #@! TF.ProjectId,esp32,65737033-322e-46b6-9963-61645f706362,rev?*
G04 #@! TF.SameCoordinates,Original*
G04 #@! TF.FileFunction,Copper,L2,Bot*
G04 #@! TF.FilePolarity,Positive*
%FSLAX46Y46*%
G04 Gerber Fmt 4.6, Leading zero omitted, Abs format (unit mm)*
G04 Created by KiCad (PCBNEW (5.1.10)-1) date 2021-11-05 15:55:45*
%MOMM*%
%LPD*%
G01*
G04 APERTURE LIST*
G04 #@! TA.AperFunction,SMDPad,CuDef*
%ADD10R,1.600000X1.400000*%
G04 #@! TD*
G04 #@! TA.AperFunction,SMDPad,CuDef*
%ADD11R,1.200000X2.200000*%
G04 #@! TD*
G04 #@! TA.AperFunction,SMDPad,CuDef*
%ADD12R,0.700000X1.400000*%
G04 #@! TD*
G04 #@! TA.AperFunction,ComponentPad*
%ADD13R,1.700000X1.700000*%
G04 #@! TD*
G04 #@! TA.AperFunction,ComponentPad*
%ADD14O,1.700000X1.700000*%
G04 #@! TD*
G04 #@! TA.AperFunction,SMDPad,CuDef*
%ADD15C,0.100000*%
G04 #@! TD*
G04 #@! TA.AperFunction,ViaPad*
%ADD16C,0.800000*%
G04 #@! TD*
G04 #@! TA.AperFunction,Conductor*
%ADD17C,0.200000*%
G04 #@! TD*
G04 #@! TA.AperFunction,Conductor*
%ADD18C,0.250000*%
G04 #@! TD*
G04 #@! TA.AperFunction,Conductor*
%ADD19C,0.254000*%
G04 #@! TD*
G04 #@! TA.AperFunction,Conductor*
%ADD20C,0.100000*%
G04 #@! TD*
G04 APERTURE END LIST*
D10*
X105565000Y-89822000D03*
D11*
X105315000Y-99422000D03*
X89815000Y-99422000D03*
D10*
X90715000Y-89822000D03*
D12*
X104115000Y-89222000D03*
X103015000Y-89222000D03*
X101915000Y-89222000D03*
X100815000Y-89222000D03*
X99715000Y-89222000D03*
X98615000Y-89222000D03*
X97515000Y-89222000D03*
X96415000Y-89222000D03*
X95315000Y-89222000D03*
D13*
X86360000Y-66040000D03*
D14*
X86360000Y-68580000D03*
X86360000Y-71120000D03*
X86360000Y-73660000D03*
X86360000Y-76200000D03*
X86360000Y-78740000D03*
X86360000Y-81280000D03*
X86360000Y-83820000D03*
X86360000Y-86360000D03*
X86360000Y-88900000D03*
X86360000Y-91440000D03*
X86360000Y-93980000D03*
X86360000Y-96520000D03*
X86360000Y-99060000D03*
X109220000Y-104140000D03*
X109220000Y-101600000D03*
X109220000Y-99060000D03*
X109220000Y-96520000D03*
X109220000Y-93980000D03*
X109220000Y-91440000D03*
X109220000Y-88900000D03*
X109220000Y-86360000D03*
X109220000Y-83820000D03*
X109220000Y-81280000D03*
X109220000Y-78740000D03*
X109220000Y-76200000D03*
X109220000Y-73660000D03*
X109220000Y-71120000D03*
X109220000Y-68580000D03*
X109220000Y-66040000D03*
G04 #@! TA.AperFunction,SMDPad,CuDef*
D15*
G36*
X103390602Y-84694000D02*
G01*
X103390602Y-84669466D01*
X103395412Y-84620635D01*
X103404984Y-84572510D01*
X103419228Y-84525555D01*
X103438005Y-84480222D01*
X103461136Y-84436949D01*
X103488396Y-84396150D01*
X103519524Y-84358221D01*
X103554221Y-84323524D01*
X103592150Y-84292396D01*
X103632949Y-84265136D01*
X103676222Y-84242005D01*
X103721555Y-84223228D01*
X103768510Y-84208984D01*
X103816635Y-84199412D01*
X103865466Y-84194602D01*
X103890000Y-84194602D01*
X103890000Y-84194000D01*
X104390000Y-84194000D01*
X104390000Y-84194602D01*
X104414534Y-84194602D01*
X104463365Y-84199412D01*
X104511490Y-84208984D01*
X104558445Y-84223228D01*
X104603778Y-84242005D01*
X104647051Y-84265136D01*
X104687850Y-84292396D01*
X104725779Y-84323524D01*
X104760476Y-84358221D01*
X104791604Y-84396150D01*
X104818864Y-84436949D01*
X104841995Y-84480222D01*
X104860772Y-84525555D01*
X104875016Y-84572510D01*
X104884588Y-84620635D01*
X104889398Y-84669466D01*
X104889398Y-84694000D01*
X104890000Y-84694000D01*
X104890000Y-85194000D01*
X103390000Y-85194000D01*
X103390000Y-84694000D01*
X103390602Y-84694000D01*
G37*
G04 #@! TD.AperFunction*
G04 #@! TA.AperFunction,SMDPad,CuDef*
G36*
X104890000Y-85494000D02*
G01*
X104890000Y-85994000D01*
X104889398Y-85994000D01*
X104889398Y-86018534D01*
X104884588Y-86067365D01*
X104875016Y-86115490D01*
X104860772Y-86162445D01*
X104841995Y-86207778D01*
X104818864Y-86251051D01*
X104791604Y-86291850D01*
X104760476Y-86329779D01*
X104725779Y-86364476D01*
X104687850Y-86395604D01*
X104647051Y-86422864D01*
X104603778Y-86445995D01*
X104558445Y-86464772D01*
X104511490Y-86479016D01*
X104463365Y-86488588D01*
X104414534Y-86493398D01*
X104390000Y-86493398D01*
X104390000Y-86494000D01*
X103890000Y-86494000D01*
X103890000Y-86493398D01*
X103865466Y-86493398D01*
X103816635Y-86488588D01*
X103768510Y-86479016D01*
X103721555Y-86464772D01*
X103676222Y-86445995D01*
X103632949Y-86422864D01*
X103592150Y-86395604D01*
X103554221Y-86364476D01*
X103519524Y-86329779D01*
X103488396Y-86291850D01*
X103461136Y-86251051D01*
X103438005Y-86207778D01*
X103419228Y-86162445D01*
X103404984Y-86115490D01*
X103395412Y-86067365D01*
X103390602Y-86018534D01*
X103390602Y-85994000D01*
X103390000Y-85994000D01*
X103390000Y-85494000D01*
X104890000Y-85494000D01*
G37*
G04 #@! TD.AperFunction*
G04 #@! TA.AperFunction,SMDPad,CuDef*
G36*
X102223000Y-85494000D02*
G01*
X102223000Y-85994000D01*
X102222398Y-85994000D01*
X102222398Y-86018534D01*
X102217588Y-86067365D01*
X102208016Y-86115490D01*
X102193772Y-86162445D01*
X102174995Y-86207778D01*
X102151864Y-86251051D01*
X102124604Y-86291850D01*
X102093476Y-86329779D01*
X102058779Y-86364476D01*
X102020850Y-86395604D01*
X101980051Y-86422864D01*
X101936778Y-86445995D01*
X101891445Y-86464772D01*
X101844490Y-86479016D01*
X101796365Y-86488588D01*
X101747534Y-86493398D01*
X101723000Y-86493398D01*
X101723000Y-86494000D01*
X101223000Y-86494000D01*
X101223000Y-86493398D01*
X101198466Y-86493398D01*
X101149635Y-86488588D01*
X101101510Y-86479016D01*
X101054555Y-86464772D01*
X101009222Y-86445995D01*
X100965949Y-86422864D01*
X100925150Y-86395604D01*
X100887221Y-86364476D01*
X100852524Y-86329779D01*
X100821396Y-86291850D01*
X100794136Y-86251051D01*
X100771005Y-86207778D01*
X100752228Y-86162445D01*
X100737984Y-86115490D01*
X100728412Y-86067365D01*
X100723602Y-86018534D01*
X100723602Y-85994000D01*
X100723000Y-85994000D01*
X100723000Y-85494000D01*
X102223000Y-85494000D01*
G37*
G04 #@! TD.AperFunction*
G04 #@! TA.AperFunction,SMDPad,CuDef*
G36*
X100723602Y-84694000D02*
G01*
X100723602Y-84669466D01*
X100728412Y-84620635D01*
X100737984Y-84572510D01*
X100752228Y-84525555D01*
X100771005Y-84480222D01*
X100794136Y-84436949D01*
X100821396Y-84396150D01*
X100852524Y-84358221D01*
X100887221Y-84323524D01*
X100925150Y-84292396D01*
X100965949Y-84265136D01*
X101009222Y-84242005D01*
X101054555Y-84223228D01*
X101101510Y-84208984D01*
X101149635Y-84199412D01*
X101198466Y-84194602D01*
X101223000Y-84194602D01*
X101223000Y-84194000D01*
X101723000Y-84194000D01*
X101723000Y-84194602D01*
X101747534Y-84194602D01*
X101796365Y-84199412D01*
X101844490Y-84208984D01*
X101891445Y-84223228D01*
X101936778Y-84242005D01*
X101980051Y-84265136D01*
X102020850Y-84292396D01*
X102058779Y-84323524D01*
X102093476Y-84358221D01*
X102124604Y-84396150D01*
X102151864Y-84436949D01*
X102174995Y-84480222D01*
X102193772Y-84525555D01*
X102208016Y-84572510D01*
X102217588Y-84620635D01*
X102222398Y-84669466D01*
X102222398Y-84694000D01*
X102223000Y-84694000D01*
X102223000Y-85194000D01*
X100723000Y-85194000D01*
X100723000Y-84694000D01*
X100723602Y-84694000D01*
G37*
G04 #@! TD.AperFunction*
G04 #@! TA.AperFunction,SMDPad,CuDef*
G36*
G01*
X89827000Y-67727000D02*
X89827000Y-65877000D01*
G75*
G02*
X90077000Y-65627000I250000J0D01*
G01*
X91077000Y-65627000D01*
G75*
G02*
X91327000Y-65877000I0J-250000D01*
G01*
X91327000Y-67727000D01*
G75*
G02*
X91077000Y-67977000I-250000J0D01*
G01*
X90077000Y-67977000D01*
G75*
G02*
X89827000Y-67727000I0J250000D01*
G01*
G37*
G04 #@! TD.AperFunction*
G04 #@! TA.AperFunction,SMDPad,CuDef*
G36*
G01*
X93077000Y-67727000D02*
X93077000Y-65877000D01*
G75*
G02*
X93327000Y-65627000I250000J0D01*
G01*
X94327000Y-65627000D01*
G75*
G02*
X94577000Y-65877000I0J-250000D01*
G01*
X94577000Y-67727000D01*
G75*
G02*
X94327000Y-67977000I-250000J0D01*
G01*
X93327000Y-67977000D01*
G75*
G02*
X93077000Y-67727000I0J250000D01*
G01*
G37*
G04 #@! TD.AperFunction*
D16*
X90801100Y-73313400D03*
X91816400Y-85731600D03*
X91672700Y-100114200D03*
X93407500Y-94154000D03*
X100965000Y-103759000D03*
X91483100Y-87355800D03*
X90092000Y-93657300D03*
X103012800Y-87910600D03*
X98625000Y-71982500D03*
X97707500Y-74735000D03*
X96790000Y-73817500D03*
X97707500Y-72900000D03*
X97707500Y-71065000D03*
X96790000Y-71982500D03*
X95872500Y-74735000D03*
X95872500Y-72900000D03*
X95872500Y-71065000D03*
X94955000Y-73817500D03*
X94955000Y-71982500D03*
X98625000Y-73817500D03*
X99255100Y-97696000D03*
X91186000Y-105029000D03*
X96520000Y-99568000D03*
X92303600Y-88083000D03*
X103946000Y-101428200D03*
X104661500Y-83272600D03*
X89326000Y-102699600D03*
X94816100Y-103049900D03*
X91301100Y-88385900D03*
X93635200Y-83885800D03*
X89603800Y-94588200D03*
X92623100Y-81705500D03*
X102300900Y-82269600D03*
X95414600Y-86096600D03*
X93936700Y-86075600D03*
X104683000Y-74822700D03*
X96139000Y-82169000D03*
X97122900Y-94243300D03*
X92217400Y-95563800D03*
X104659600Y-73033000D03*
X107223700Y-92175300D03*
X102475800Y-83861700D03*
X103824100Y-82035700D03*
X106203700Y-92286800D03*
X92704600Y-99207300D03*
X105283000Y-94138800D03*
X92909700Y-96317400D03*
X101218100Y-87459600D03*
X101473000Y-90932000D03*
X99564400Y-82821500D03*
X87553100Y-84893100D03*
X91496900Y-80590400D03*
D17*
X90801100Y-73313400D02*
X86449500Y-77665000D01*
X86449500Y-77665000D02*
X86360000Y-77665000D01*
X86360000Y-78740000D02*
X86360000Y-77665000D01*
D18*
X86360000Y-95344700D02*
X86727400Y-95344700D01*
X86727400Y-95344700D02*
X87535300Y-94536800D01*
X87535300Y-94536800D02*
X87535300Y-89635900D01*
X87535300Y-89635900D02*
X91439600Y-85731600D01*
X91439600Y-85731600D02*
X91816400Y-85731600D01*
X86360000Y-96520000D02*
X86360000Y-95344700D01*
X93407500Y-94154000D02*
X92542900Y-94154000D01*
X92542900Y-94154000D02*
X91443800Y-95253100D01*
X91443800Y-95253100D02*
X91443800Y-99885300D01*
X91443800Y-99885300D02*
X91672700Y-100114200D01*
X98615000Y-90247300D02*
X94708300Y-94154000D01*
X94708300Y-94154000D02*
X93407500Y-94154000D01*
X98615000Y-89222000D02*
X98615000Y-90247300D01*
X86360000Y-66040000D02*
X87535300Y-66040000D01*
X90577000Y-66802000D02*
X88297300Y-66802000D01*
X88297300Y-66802000D02*
X87535300Y-66040000D01*
X103012800Y-88196700D02*
X103012800Y-87910600D01*
X103012800Y-88196700D02*
X100815000Y-88196700D01*
X105565000Y-88796700D02*
X104965000Y-88196700D01*
X104965000Y-88196700D02*
X103012800Y-88196700D01*
X89815000Y-99422000D02*
X89815000Y-100847300D01*
X100815000Y-88196700D02*
X99974100Y-87355800D01*
X99974100Y-87355800D02*
X91483100Y-87355800D01*
X90275900Y-93473400D02*
X90092000Y-93657300D01*
X90275900Y-89822000D02*
X89903600Y-89822000D01*
X90715000Y-89822000D02*
X90275900Y-89822000D01*
X105315000Y-99422000D02*
X104300200Y-99422000D01*
X104300200Y-99422000D02*
X103732200Y-99990000D01*
X105565000Y-89822000D02*
X105565000Y-88796700D01*
X100815000Y-89222000D02*
X100815000Y-88196700D01*
X109220000Y-66040000D02*
X108044700Y-66040000D01*
X93827000Y-66802000D02*
X107282700Y-66802000D01*
X107282700Y-66802000D02*
X108044700Y-66040000D01*
X91258198Y-87355800D02*
X91483100Y-87355800D01*
X90551000Y-88062998D02*
X91258198Y-87355800D01*
X90551000Y-88708000D02*
X90551000Y-88062998D01*
X90715000Y-88872000D02*
X90551000Y-88708000D01*
X90715000Y-89822000D02*
X90715000Y-88872000D01*
X99715000Y-88196700D02*
X99601300Y-88083000D01*
X99601300Y-88083000D02*
X92303600Y-88083000D01*
X99715000Y-89222000D02*
X99715000Y-88196700D01*
X105444600Y-91386600D02*
X105444600Y-92564600D01*
X105444600Y-92564600D02*
X106932200Y-94052200D01*
X105444600Y-91386600D02*
X105970600Y-91386600D01*
X105970600Y-91386600D02*
X106728000Y-90629200D01*
X106728000Y-90629200D02*
X106728000Y-88955100D01*
X106728000Y-88955100D02*
X105519200Y-87746300D01*
X105519200Y-87746300D02*
X104442100Y-87746300D01*
X104442100Y-87746300D02*
X103013500Y-86317700D01*
X103013500Y-86317700D02*
X103013500Y-84398100D01*
X103013500Y-84398100D02*
X104139000Y-83272600D01*
X104139000Y-83272600D02*
X104661500Y-83272600D01*
X108044700Y-93980000D02*
X107972500Y-94052200D01*
X107972500Y-94052200D02*
X106932200Y-94052200D01*
X103946000Y-101428200D02*
X105538700Y-101428200D01*
X105538700Y-101428200D02*
X106932200Y-100034700D01*
X106932200Y-100034700D02*
X106932200Y-94052200D01*
X105444600Y-91386600D02*
X103054300Y-91386600D01*
X103054300Y-91386600D02*
X101915000Y-90247300D01*
X109220000Y-93980000D02*
X108044700Y-93980000D01*
X101915000Y-89222000D02*
X101915000Y-90247300D01*
X97515000Y-90247300D02*
X94333600Y-93428700D01*
X94333600Y-93428700D02*
X92579200Y-93428700D01*
X92579200Y-93428700D02*
X88868900Y-97139000D01*
X88868900Y-97139000D02*
X88868900Y-101696400D01*
X88868900Y-101696400D02*
X89326000Y-102153500D01*
X89326000Y-102699600D02*
X89326000Y-102153500D01*
X89326000Y-102153500D02*
X105450300Y-102153500D01*
X105450300Y-102153500D02*
X108044700Y-99559100D01*
X108044700Y-99559100D02*
X108044700Y-98503200D01*
X108044700Y-98503200D02*
X108852600Y-97695300D01*
X108852600Y-97695300D02*
X109220000Y-97695300D01*
X109220000Y-96520000D02*
X109220000Y-97695300D01*
X97515000Y-89222000D02*
X97515000Y-90247300D01*
X94816100Y-103049900D02*
X94418800Y-103447200D01*
X94418800Y-103447200D02*
X88984400Y-103447200D01*
X88984400Y-103447200D02*
X86360000Y-100822800D01*
X86360000Y-100822800D02*
X86360000Y-99060000D01*
X93545400Y-90630200D02*
X93545400Y-91684800D01*
X93545400Y-91684800D02*
X87345500Y-97884700D01*
X87345500Y-97884700D02*
X86360000Y-97884700D01*
X91301100Y-88385900D02*
X93545400Y-90630200D01*
X93545400Y-90630200D02*
X96032100Y-90630200D01*
X96032100Y-90630200D02*
X96415000Y-90247300D01*
X96415000Y-89222000D02*
X96415000Y-90247300D01*
X86360000Y-99060000D02*
X86360000Y-97884700D01*
X86360000Y-86360000D02*
X87535300Y-86360000D01*
X93635200Y-83885800D02*
X90009500Y-83885800D01*
X90009500Y-83885800D02*
X87535300Y-86360000D01*
X92581900Y-84964800D02*
X92581900Y-85991900D01*
X92581900Y-85991900D02*
X92116900Y-86456900D01*
X92116900Y-86456900D02*
X91352800Y-86456900D01*
X91352800Y-86456900D02*
X89339200Y-88470500D01*
X89339200Y-88470500D02*
X89339200Y-94323600D01*
X89339200Y-94323600D02*
X89603800Y-94588200D01*
X92581900Y-84964800D02*
X93586200Y-84964800D01*
X93586200Y-84964800D02*
X94399700Y-84151300D01*
X94399700Y-84151300D02*
X94399700Y-83482100D01*
X94399700Y-83482100D02*
X92623100Y-81705500D01*
X87535300Y-88900000D02*
X91470500Y-84964800D01*
X91470500Y-84964800D02*
X92581900Y-84964800D01*
X86360000Y-88900000D02*
X87535300Y-88900000D01*
X102300900Y-82269600D02*
X103290700Y-81279800D01*
X103290700Y-81279800D02*
X105504500Y-81279800D01*
X105504500Y-81279800D02*
X108044700Y-83820000D01*
X95414600Y-86096600D02*
X98473900Y-86096600D01*
X98473900Y-86096600D02*
X102300900Y-82269600D01*
X109220000Y-83820000D02*
X108044700Y-83820000D01*
X104683000Y-80829400D02*
X104683000Y-74822700D01*
X108044700Y-81280000D02*
X107594100Y-80829400D01*
X107594100Y-80829400D02*
X104683000Y-80829400D01*
X93936700Y-86075600D02*
X96368500Y-83643800D01*
X96368500Y-83643800D02*
X99804300Y-83643800D01*
X99804300Y-83643800D02*
X102618700Y-80829400D01*
X102618700Y-80829400D02*
X104683000Y-80829400D01*
X109220000Y-81280000D02*
X108044700Y-81280000D01*
X108044700Y-68580000D02*
X109220000Y-68580000D01*
X103012800Y-73611900D02*
X108044700Y-68580000D01*
X103012800Y-77278836D02*
X103012800Y-73611900D01*
X98122636Y-82169000D02*
X103012800Y-77278836D01*
X96139000Y-82169000D02*
X98122636Y-82169000D01*
X97122900Y-94243300D02*
X95802400Y-95563800D01*
X95802400Y-95563800D02*
X92217400Y-95563800D01*
X108044700Y-76200000D02*
X104877700Y-73033000D01*
X104877700Y-73033000D02*
X104659600Y-73033000D01*
X109220000Y-76200000D02*
X108044700Y-76200000D01*
X109220000Y-90075300D02*
X108852600Y-90075300D01*
X108852600Y-90075300D02*
X107223700Y-91704200D01*
X107223700Y-91704200D02*
X107223700Y-92175300D01*
X101473000Y-84694000D02*
X101643500Y-84694000D01*
X101643500Y-84694000D02*
X102475800Y-83861700D01*
X109220000Y-88900000D02*
X109220000Y-90075300D01*
X105398500Y-84694000D02*
X106378700Y-84694000D01*
X106378700Y-84694000D02*
X108044700Y-86360000D01*
X104140000Y-84694000D02*
X105398500Y-84694000D01*
X103824100Y-82035700D02*
X104530000Y-82035700D01*
X104530000Y-82035700D02*
X105398500Y-82904200D01*
X105398500Y-82904200D02*
X105398500Y-84694000D01*
X109220000Y-86360000D02*
X108044700Y-86360000D01*
X106203700Y-92286800D02*
X106203700Y-92087300D01*
X106203700Y-92087300D02*
X107183100Y-91107900D01*
X107183100Y-91107900D02*
X107183100Y-88745900D01*
X107183100Y-88745900D02*
X104431200Y-85994000D01*
X104431200Y-85994000D02*
X104140000Y-85994000D01*
X92704600Y-99207300D02*
X93887200Y-99207300D01*
X93887200Y-99207300D02*
X98955700Y-94138800D01*
X98955700Y-94138800D02*
X105283000Y-94138800D01*
X101473000Y-90932000D02*
X96087600Y-96317400D01*
X96087600Y-96317400D02*
X92909700Y-96317400D01*
X101473000Y-85994000D02*
X101473000Y-87204700D01*
X101473000Y-87204700D02*
X101218100Y-87459600D01*
X87553100Y-84893100D02*
X87553100Y-84534200D01*
X87553100Y-84534200D02*
X91496900Y-80590400D01*
X99258890Y-83127010D02*
X99564400Y-82821500D01*
X96024008Y-83127010D02*
X99258890Y-83127010D01*
X93487398Y-80590400D02*
X96024008Y-83127010D01*
X91496900Y-80590400D02*
X93487398Y-80590400D01*
D19*
X108447760Y-100330000D02*
X108273368Y-100446525D01*
X108066525Y-100653368D01*
X107904010Y-100896589D01*
X107792068Y-101166842D01*
X107735000Y-101453740D01*
X107735000Y-101746260D01*
X107792068Y-102033158D01*
X107904010Y-102303411D01*
X108066525Y-102546632D01*
X108273368Y-102753475D01*
X108447760Y-102870000D01*
X108273368Y-102986525D01*
X108066525Y-103193368D01*
X107904010Y-103436589D01*
X107792068Y-103706842D01*
X107735000Y-103993740D01*
X107735000Y-104286260D01*
X107792068Y-104573158D01*
X107904010Y-104843411D01*
X108066525Y-105086632D01*
X108273368Y-105293475D01*
X108410345Y-105385000D01*
X85750000Y-105385000D01*
X85750000Y-101277507D01*
X85751402Y-101279215D01*
X85819999Y-101362801D01*
X85849003Y-101386604D01*
X88420601Y-103958203D01*
X88444399Y-103987201D01*
X88473397Y-104010999D01*
X88560123Y-104082174D01*
X88692153Y-104152746D01*
X88835414Y-104196203D01*
X88947067Y-104207200D01*
X88947076Y-104207200D01*
X88984399Y-104210876D01*
X89021722Y-104207200D01*
X94381478Y-104207200D01*
X94418800Y-104210876D01*
X94456122Y-104207200D01*
X94456133Y-104207200D01*
X94567786Y-104196203D01*
X94711047Y-104152746D01*
X94837976Y-104084900D01*
X94918039Y-104084900D01*
X95117998Y-104045126D01*
X95306356Y-103967105D01*
X95475874Y-103853837D01*
X95620037Y-103709674D01*
X95733305Y-103540156D01*
X95811326Y-103351798D01*
X95851100Y-103151839D01*
X95851100Y-102947961D01*
X95844245Y-102913500D01*
X105412978Y-102913500D01*
X105450300Y-102917176D01*
X105487622Y-102913500D01*
X105487633Y-102913500D01*
X105599286Y-102902503D01*
X105742547Y-102859046D01*
X105874576Y-102788474D01*
X105990301Y-102693501D01*
X106014104Y-102664497D01*
X108388319Y-100290283D01*
X108447760Y-100330000D01*
G04 #@! TA.AperFunction,Conductor*
D20*
G36*
X108447760Y-100330000D02*
G01*
X108273368Y-100446525D01*
X108066525Y-100653368D01*
X107904010Y-100896589D01*
X107792068Y-101166842D01*
X107735000Y-101453740D01*
X107735000Y-101746260D01*
X107792068Y-102033158D01*
X107904010Y-102303411D01*
X108066525Y-102546632D01*
X108273368Y-102753475D01*
X108447760Y-102870000D01*
X108273368Y-102986525D01*
X108066525Y-103193368D01*
X107904010Y-103436589D01*
X107792068Y-103706842D01*
X107735000Y-103993740D01*
X107735000Y-104286260D01*
X107792068Y-104573158D01*
X107904010Y-104843411D01*
X108066525Y-105086632D01*
X108273368Y-105293475D01*
X108410345Y-105385000D01*
X85750000Y-105385000D01*
X85750000Y-101277507D01*
X85751402Y-101279215D01*
X85819999Y-101362801D01*
X85849003Y-101386604D01*
X88420601Y-103958203D01*
X88444399Y-103987201D01*
X88473397Y-104010999D01*
X88560123Y-104082174D01*
X88692153Y-104152746D01*
X88835414Y-104196203D01*
X88947067Y-104207200D01*
X88947076Y-104207200D01*
X88984399Y-104210876D01*
X89021722Y-104207200D01*
X94381478Y-104207200D01*
X94418800Y-104210876D01*
X94456122Y-104207200D01*
X94456133Y-104207200D01*
X94567786Y-104196203D01*
X94711047Y-104152746D01*
X94837976Y-104084900D01*
X94918039Y-104084900D01*
X95117998Y-104045126D01*
X95306356Y-103967105D01*
X95475874Y-103853837D01*
X95620037Y-103709674D01*
X95733305Y-103540156D01*
X95811326Y-103351798D01*
X95851100Y-103151839D01*
X95851100Y-102947961D01*
X95844245Y-102913500D01*
X105412978Y-102913500D01*
X105450300Y-102917176D01*
X105487622Y-102913500D01*
X105487633Y-102913500D01*
X105599286Y-102902503D01*
X105742547Y-102859046D01*
X105874576Y-102788474D01*
X105990301Y-102693501D01*
X106014104Y-102664497D01*
X108388319Y-100290283D01*
X108447760Y-100330000D01*
G37*
G04 #@! TD.AperFunction*
D19*
X106172200Y-97739458D02*
X106159180Y-97732498D01*
X106039482Y-97696188D01*
X105915000Y-97683928D01*
X105600750Y-97687000D01*
X105442000Y-97845750D01*
X105442000Y-99295000D01*
X105462000Y-99295000D01*
X105462000Y-99549000D01*
X105442000Y-99549000D01*
X105442000Y-99569000D01*
X105188000Y-99569000D01*
X105188000Y-99549000D01*
X104238750Y-99549000D01*
X104080000Y-99707750D01*
X104077392Y-100399058D01*
X104047939Y-100393200D01*
X103844061Y-100393200D01*
X103644102Y-100432974D01*
X103455744Y-100510995D01*
X103381587Y-100560545D01*
X103396612Y-100545520D01*
X103520824Y-100359624D01*
X103606383Y-100153067D01*
X103650000Y-99933788D01*
X103650000Y-99710212D01*
X103606383Y-99490933D01*
X103520824Y-99284376D01*
X103396612Y-99098480D01*
X103238520Y-98940388D01*
X103052624Y-98816176D01*
X102846067Y-98730617D01*
X102626788Y-98687000D01*
X102403212Y-98687000D01*
X102183933Y-98730617D01*
X101977376Y-98816176D01*
X101791480Y-98940388D01*
X101633388Y-99098480D01*
X101509176Y-99284376D01*
X101423617Y-99490933D01*
X101380000Y-99710212D01*
X101380000Y-99933788D01*
X101423617Y-100153067D01*
X101509176Y-100359624D01*
X101633388Y-100545520D01*
X101791480Y-100703612D01*
X101977376Y-100827824D01*
X102183933Y-100913383D01*
X102403212Y-100957000D01*
X102626788Y-100957000D01*
X102846067Y-100913383D01*
X103052624Y-100827824D01*
X103143158Y-100767331D01*
X103142063Y-100768426D01*
X103028795Y-100937944D01*
X102950774Y-101126302D01*
X102911000Y-101326261D01*
X102911000Y-101393500D01*
X89640801Y-101393500D01*
X89628900Y-101381599D01*
X89628900Y-101057350D01*
X89688000Y-100998250D01*
X89688000Y-99549000D01*
X89668000Y-99549000D01*
X89668000Y-99295000D01*
X89688000Y-99295000D01*
X89688000Y-97845750D01*
X89628900Y-97786650D01*
X89628900Y-97453801D01*
X90683800Y-96398901D01*
X90683801Y-97745658D01*
X90659180Y-97732498D01*
X90539482Y-97696188D01*
X90415000Y-97683928D01*
X90100750Y-97687000D01*
X89942000Y-97845750D01*
X89942000Y-99295000D01*
X89962000Y-99295000D01*
X89962000Y-99549000D01*
X89942000Y-99549000D01*
X89942000Y-100998250D01*
X90100750Y-101157000D01*
X90415000Y-101160072D01*
X90539482Y-101147812D01*
X90659180Y-101111502D01*
X90769494Y-101052537D01*
X90866185Y-100973185D01*
X90945537Y-100876494D01*
X90954505Y-100859716D01*
X91012926Y-100918137D01*
X91182444Y-101031405D01*
X91370802Y-101109426D01*
X91570761Y-101149200D01*
X91774639Y-101149200D01*
X91974598Y-101109426D01*
X92162956Y-101031405D01*
X92332474Y-100918137D01*
X92476637Y-100773974D01*
X92589905Y-100604456D01*
X92667926Y-100416098D01*
X92702496Y-100242300D01*
X92806539Y-100242300D01*
X93006498Y-100202526D01*
X93194856Y-100124505D01*
X93364374Y-100011237D01*
X93390257Y-99985354D01*
X93423617Y-100153067D01*
X93509176Y-100359624D01*
X93633388Y-100545520D01*
X93791480Y-100703612D01*
X93977376Y-100827824D01*
X94183933Y-100913383D01*
X94403212Y-100957000D01*
X94626788Y-100957000D01*
X94846067Y-100913383D01*
X95052624Y-100827824D01*
X95238520Y-100703612D01*
X95396612Y-100545520D01*
X95520824Y-100359624D01*
X95606383Y-100153067D01*
X95650000Y-99933788D01*
X95650000Y-99710212D01*
X95606383Y-99490933D01*
X95520824Y-99284376D01*
X95396612Y-99098480D01*
X95238520Y-98940388D01*
X95232761Y-98936540D01*
X95847301Y-98322000D01*
X104076928Y-98322000D01*
X104080000Y-99136250D01*
X104238750Y-99295000D01*
X105188000Y-99295000D01*
X105188000Y-97845750D01*
X105029250Y-97687000D01*
X104715000Y-97683928D01*
X104590518Y-97696188D01*
X104470820Y-97732498D01*
X104360506Y-97791463D01*
X104263815Y-97870815D01*
X104184463Y-97967506D01*
X104125498Y-98077820D01*
X104089188Y-98197518D01*
X104076928Y-98322000D01*
X95847301Y-98322000D01*
X99270503Y-94898800D01*
X104579289Y-94898800D01*
X104623226Y-94942737D01*
X104792744Y-95056005D01*
X104981102Y-95134026D01*
X105181061Y-95173800D01*
X105384939Y-95173800D01*
X105584898Y-95134026D01*
X105773256Y-95056005D01*
X105942774Y-94942737D01*
X106086937Y-94798574D01*
X106172201Y-94670967D01*
X106172200Y-97739458D01*
G04 #@! TA.AperFunction,Conductor*
D20*
G36*
X106172200Y-97739458D02*
G01*
X106159180Y-97732498D01*
X106039482Y-97696188D01*
X105915000Y-97683928D01*
X105600750Y-97687000D01*
X105442000Y-97845750D01*
X105442000Y-99295000D01*
X105462000Y-99295000D01*
X105462000Y-99549000D01*
X105442000Y-99549000D01*
X105442000Y-99569000D01*
X105188000Y-99569000D01*
X105188000Y-99549000D01*
X104238750Y-99549000D01*
X104080000Y-99707750D01*
X104077392Y-100399058D01*
X104047939Y-100393200D01*
X103844061Y-100393200D01*
X103644102Y-100432974D01*
X103455744Y-100510995D01*
X103381587Y-100560545D01*
X103396612Y-100545520D01*
X103520824Y-100359624D01*
X103606383Y-100153067D01*
X103650000Y-99933788D01*
X103650000Y-99710212D01*
X103606383Y-99490933D01*
X103520824Y-99284376D01*
X103396612Y-99098480D01*
X103238520Y-98940388D01*
X103052624Y-98816176D01*
X102846067Y-98730617D01*
X102626788Y-98687000D01*
X102403212Y-98687000D01*
X102183933Y-98730617D01*
X101977376Y-98816176D01*
X101791480Y-98940388D01*
X101633388Y-99098480D01*
X101509176Y-99284376D01*
X101423617Y-99490933D01*
X101380000Y-99710212D01*
X101380000Y-99933788D01*
X101423617Y-100153067D01*
X101509176Y-100359624D01*
X101633388Y-100545520D01*
X101791480Y-100703612D01*
X101977376Y-100827824D01*
X102183933Y-100913383D01*
X102403212Y-100957000D01*
X102626788Y-100957000D01*
X102846067Y-100913383D01*
X103052624Y-100827824D01*
X103143158Y-100767331D01*
X103142063Y-100768426D01*
X103028795Y-100937944D01*
X102950774Y-101126302D01*
X102911000Y-101326261D01*
X102911000Y-101393500D01*
X89640801Y-101393500D01*
X89628900Y-101381599D01*
X89628900Y-101057350D01*
X89688000Y-100998250D01*
X89688000Y-99549000D01*
X89668000Y-99549000D01*
X89668000Y-99295000D01*
X89688000Y-99295000D01*
X89688000Y-97845750D01*
X89628900Y-97786650D01*
X89628900Y-97453801D01*
X90683800Y-96398901D01*
X90683801Y-97745658D01*
X90659180Y-97732498D01*
X90539482Y-97696188D01*
X90415000Y-97683928D01*
X90100750Y-97687000D01*
X89942000Y-97845750D01*
X89942000Y-99295000D01*
X89962000Y-99295000D01*
X89962000Y-99549000D01*
X89942000Y-99549000D01*
X89942000Y-100998250D01*
X90100750Y-101157000D01*
X90415000Y-101160072D01*
X90539482Y-101147812D01*
X90659180Y-101111502D01*
X90769494Y-101052537D01*
X90866185Y-100973185D01*
X90945537Y-100876494D01*
X90954505Y-100859716D01*
X91012926Y-100918137D01*
X91182444Y-101031405D01*
X91370802Y-101109426D01*
X91570761Y-101149200D01*
X91774639Y-101149200D01*
X91974598Y-101109426D01*
X92162956Y-101031405D01*
X92332474Y-100918137D01*
X92476637Y-100773974D01*
X92589905Y-100604456D01*
X92667926Y-100416098D01*
X92702496Y-100242300D01*
X92806539Y-100242300D01*
X93006498Y-100202526D01*
X93194856Y-100124505D01*
X93364374Y-100011237D01*
X93390257Y-99985354D01*
X93423617Y-100153067D01*
X93509176Y-100359624D01*
X93633388Y-100545520D01*
X93791480Y-100703612D01*
X93977376Y-100827824D01*
X94183933Y-100913383D01*
X94403212Y-100957000D01*
X94626788Y-100957000D01*
X94846067Y-100913383D01*
X95052624Y-100827824D01*
X95238520Y-100703612D01*
X95396612Y-100545520D01*
X95520824Y-100359624D01*
X95606383Y-100153067D01*
X95650000Y-99933788D01*
X95650000Y-99710212D01*
X95606383Y-99490933D01*
X95520824Y-99284376D01*
X95396612Y-99098480D01*
X95238520Y-98940388D01*
X95232761Y-98936540D01*
X95847301Y-98322000D01*
X104076928Y-98322000D01*
X104080000Y-99136250D01*
X104238750Y-99295000D01*
X105188000Y-99295000D01*
X105188000Y-97845750D01*
X105029250Y-97687000D01*
X104715000Y-97683928D01*
X104590518Y-97696188D01*
X104470820Y-97732498D01*
X104360506Y-97791463D01*
X104263815Y-97870815D01*
X104184463Y-97967506D01*
X104125498Y-98077820D01*
X104089188Y-98197518D01*
X104076928Y-98322000D01*
X95847301Y-98322000D01*
X99270503Y-94898800D01*
X104579289Y-94898800D01*
X104623226Y-94942737D01*
X104792744Y-95056005D01*
X104981102Y-95134026D01*
X105181061Y-95173800D01*
X105384939Y-95173800D01*
X105584898Y-95134026D01*
X105773256Y-95056005D01*
X105942774Y-94942737D01*
X106086937Y-94798574D01*
X106172201Y-94670967D01*
X106172200Y-97739458D01*
G37*
G04 #@! TD.AperFunction*
D19*
X90842000Y-89695000D02*
X90862000Y-89695000D01*
X90862000Y-89949000D01*
X90842000Y-89949000D01*
X90842000Y-90998250D01*
X91000750Y-91157000D01*
X91515000Y-91160072D01*
X91639482Y-91147812D01*
X91759180Y-91111502D01*
X91869494Y-91052537D01*
X91966185Y-90973185D01*
X92045537Y-90876494D01*
X92104502Y-90766180D01*
X92140812Y-90646482D01*
X92153072Y-90522000D01*
X92151508Y-90311110D01*
X92785400Y-90945003D01*
X92785401Y-91369997D01*
X90317355Y-93838044D01*
X90263574Y-93784263D01*
X90099200Y-93674432D01*
X90099200Y-91158972D01*
X90429250Y-91157000D01*
X90588000Y-90998250D01*
X90588000Y-89949000D01*
X90568000Y-89949000D01*
X90568000Y-89695000D01*
X90588000Y-89695000D01*
X90588000Y-89675000D01*
X90842000Y-89675000D01*
X90842000Y-89695000D01*
G04 #@! TA.AperFunction,Conductor*
D20*
G36*
X90842000Y-89695000D02*
G01*
X90862000Y-89695000D01*
X90862000Y-89949000D01*
X90842000Y-89949000D01*
X90842000Y-90998250D01*
X91000750Y-91157000D01*
X91515000Y-91160072D01*
X91639482Y-91147812D01*
X91759180Y-91111502D01*
X91869494Y-91052537D01*
X91966185Y-90973185D01*
X92045537Y-90876494D01*
X92104502Y-90766180D01*
X92140812Y-90646482D01*
X92153072Y-90522000D01*
X92151508Y-90311110D01*
X92785400Y-90945003D01*
X92785401Y-91369997D01*
X90317355Y-93838044D01*
X90263574Y-93784263D01*
X90099200Y-93674432D01*
X90099200Y-91158972D01*
X90429250Y-91157000D01*
X90588000Y-90998250D01*
X90588000Y-89949000D01*
X90568000Y-89949000D01*
X90568000Y-89695000D01*
X90588000Y-89695000D01*
X90588000Y-89675000D01*
X90842000Y-89675000D01*
X90842000Y-89695000D01*
G37*
G04 #@! TD.AperFunction*
D19*
X105692000Y-89695000D02*
X105712000Y-89695000D01*
X105712000Y-89949000D01*
X105692000Y-89949000D01*
X105692000Y-89969000D01*
X105438000Y-89969000D01*
X105438000Y-89949000D01*
X105418000Y-89949000D01*
X105418000Y-89695000D01*
X105438000Y-89695000D01*
X105438000Y-89675000D01*
X105692000Y-89675000D01*
X105692000Y-89695000D01*
G04 #@! TA.AperFunction,Conductor*
D20*
G36*
X105692000Y-89695000D02*
G01*
X105712000Y-89695000D01*
X105712000Y-89949000D01*
X105692000Y-89949000D01*
X105692000Y-89969000D01*
X105438000Y-89969000D01*
X105438000Y-89949000D01*
X105418000Y-89949000D01*
X105418000Y-89695000D01*
X105438000Y-89695000D01*
X105438000Y-89675000D01*
X105692000Y-89675000D01*
X105692000Y-89695000D01*
G37*
G04 #@! TD.AperFunction*
D19*
X100926928Y-89369000D02*
X100703072Y-89369000D01*
X100703072Y-89075000D01*
X100926928Y-89075000D01*
X100926928Y-89369000D01*
G04 #@! TA.AperFunction,Conductor*
D20*
G36*
X100926928Y-89369000D02*
G01*
X100703072Y-89369000D01*
X100703072Y-89075000D01*
X100926928Y-89075000D01*
X100926928Y-89369000D01*
G37*
G04 #@! TD.AperFunction*
D19*
X100084928Y-85994000D02*
X100087336Y-86018450D01*
X100087336Y-86043009D01*
X100099596Y-86167490D01*
X100118718Y-86263623D01*
X100155027Y-86383319D01*
X100192536Y-86473875D01*
X100251502Y-86584192D01*
X100305958Y-86665691D01*
X100385310Y-86762382D01*
X100418459Y-86795531D01*
X100414163Y-86799826D01*
X100300895Y-86969344D01*
X100222874Y-87157702D01*
X100183100Y-87357661D01*
X100183100Y-87561539D01*
X100190167Y-87597066D01*
X100165104Y-87572003D01*
X100141301Y-87542999D01*
X100025576Y-87448026D01*
X99893547Y-87377454D01*
X99750286Y-87333997D01*
X99638633Y-87323000D01*
X99638622Y-87323000D01*
X99601300Y-87319324D01*
X99563978Y-87323000D01*
X93007311Y-87323000D01*
X92963374Y-87279063D01*
X92793856Y-87165795D01*
X92605498Y-87087774D01*
X92557746Y-87078276D01*
X92656901Y-86996901D01*
X92680704Y-86967897D01*
X93044829Y-86603772D01*
X93132763Y-86735374D01*
X93276926Y-86879537D01*
X93446444Y-86992805D01*
X93634802Y-87070826D01*
X93834761Y-87110600D01*
X94038639Y-87110600D01*
X94238598Y-87070826D01*
X94426956Y-86992805D01*
X94596474Y-86879537D01*
X94665150Y-86810861D01*
X94754826Y-86900537D01*
X94924344Y-87013805D01*
X95112702Y-87091826D01*
X95312661Y-87131600D01*
X95516539Y-87131600D01*
X95716498Y-87091826D01*
X95904856Y-87013805D01*
X96074374Y-86900537D01*
X96118311Y-86856600D01*
X98436578Y-86856600D01*
X98473900Y-86860276D01*
X98511222Y-86856600D01*
X98511233Y-86856600D01*
X98622886Y-86845603D01*
X98766147Y-86802146D01*
X98898176Y-86731574D01*
X99013901Y-86636601D01*
X99037704Y-86607597D01*
X100084928Y-85560373D01*
X100084928Y-85994000D01*
G04 #@! TA.AperFunction,Conductor*
D20*
G36*
X100084928Y-85994000D02*
G01*
X100087336Y-86018450D01*
X100087336Y-86043009D01*
X100099596Y-86167490D01*
X100118718Y-86263623D01*
X100155027Y-86383319D01*
X100192536Y-86473875D01*
X100251502Y-86584192D01*
X100305958Y-86665691D01*
X100385310Y-86762382D01*
X100418459Y-86795531D01*
X100414163Y-86799826D01*
X100300895Y-86969344D01*
X100222874Y-87157702D01*
X100183100Y-87357661D01*
X100183100Y-87561539D01*
X100190167Y-87597066D01*
X100165104Y-87572003D01*
X100141301Y-87542999D01*
X100025576Y-87448026D01*
X99893547Y-87377454D01*
X99750286Y-87333997D01*
X99638633Y-87323000D01*
X99638622Y-87323000D01*
X99601300Y-87319324D01*
X99563978Y-87323000D01*
X93007311Y-87323000D01*
X92963374Y-87279063D01*
X92793856Y-87165795D01*
X92605498Y-87087774D01*
X92557746Y-87078276D01*
X92656901Y-86996901D01*
X92680704Y-86967897D01*
X93044829Y-86603772D01*
X93132763Y-86735374D01*
X93276926Y-86879537D01*
X93446444Y-86992805D01*
X93634802Y-87070826D01*
X93834761Y-87110600D01*
X94038639Y-87110600D01*
X94238598Y-87070826D01*
X94426956Y-86992805D01*
X94596474Y-86879537D01*
X94665150Y-86810861D01*
X94754826Y-86900537D01*
X94924344Y-87013805D01*
X95112702Y-87091826D01*
X95312661Y-87131600D01*
X95516539Y-87131600D01*
X95716498Y-87091826D01*
X95904856Y-87013805D01*
X96074374Y-86900537D01*
X96118311Y-86856600D01*
X98436578Y-86856600D01*
X98473900Y-86860276D01*
X98511222Y-86856600D01*
X98511233Y-86856600D01*
X98622886Y-86845603D01*
X98766147Y-86802146D01*
X98898176Y-86731574D01*
X99013901Y-86636601D01*
X99037704Y-86607597D01*
X100084928Y-85560373D01*
X100084928Y-85994000D01*
G37*
G04 #@! TD.AperFunction*
D19*
X91643826Y-87279063D02*
X91543959Y-87378930D01*
X91511941Y-87372562D01*
X91667603Y-87216900D01*
X91736860Y-87216900D01*
X91643826Y-87279063D01*
G04 #@! TA.AperFunction,Conductor*
D20*
G36*
X91643826Y-87279063D02*
G01*
X91543959Y-87378930D01*
X91511941Y-87372562D01*
X91667603Y-87216900D01*
X91736860Y-87216900D01*
X91643826Y-87279063D01*
G37*
G04 #@! TD.AperFunction*
D19*
X108122412Y-65039731D02*
X107948359Y-65273080D01*
X107823175Y-65535901D01*
X107778524Y-65683110D01*
X107899845Y-65913000D01*
X109093000Y-65913000D01*
X109093000Y-65893000D01*
X109347000Y-65893000D01*
X109347000Y-65913000D01*
X109367000Y-65913000D01*
X109367000Y-66167000D01*
X109347000Y-66167000D01*
X109347000Y-66187000D01*
X109093000Y-66187000D01*
X109093000Y-66167000D01*
X107899845Y-66167000D01*
X107778524Y-66396890D01*
X107823175Y-66544099D01*
X107948359Y-66806920D01*
X108122412Y-67040269D01*
X108338645Y-67235178D01*
X108455534Y-67304805D01*
X108273368Y-67426525D01*
X108066525Y-67633368D01*
X107937204Y-67826911D01*
X107895714Y-67830997D01*
X107752453Y-67874454D01*
X107620424Y-67945026D01*
X107504699Y-68039999D01*
X107480901Y-68068997D01*
X102501798Y-73048101D01*
X102472800Y-73071899D01*
X102449002Y-73100897D01*
X102449001Y-73100898D01*
X102377826Y-73187624D01*
X102307254Y-73319654D01*
X102278229Y-73415339D01*
X102265509Y-73457276D01*
X102263798Y-73462915D01*
X102249124Y-73611900D01*
X102252801Y-73649232D01*
X102252800Y-76964034D01*
X97807835Y-81409000D01*
X96842711Y-81409000D01*
X96798774Y-81365063D01*
X96629256Y-81251795D01*
X96440898Y-81173774D01*
X96240939Y-81134000D01*
X96037061Y-81134000D01*
X95837102Y-81173774D01*
X95648744Y-81251795D01*
X95479226Y-81365063D01*
X95408044Y-81436245D01*
X94051202Y-80079403D01*
X94027399Y-80050399D01*
X93911674Y-79955426D01*
X93779645Y-79884854D01*
X93636384Y-79841397D01*
X93524731Y-79830400D01*
X93524720Y-79830400D01*
X93487398Y-79826724D01*
X93450076Y-79830400D01*
X92200611Y-79830400D01*
X92156674Y-79786463D01*
X91987156Y-79673195D01*
X91798798Y-79595174D01*
X91598839Y-79555400D01*
X91394961Y-79555400D01*
X91195002Y-79595174D01*
X91006644Y-79673195D01*
X90837126Y-79786463D01*
X90692963Y-79930626D01*
X90579695Y-80100144D01*
X90501674Y-80288502D01*
X90461900Y-80488461D01*
X90461900Y-80550597D01*
X87740403Y-83272096D01*
X87675990Y-83116589D01*
X87513475Y-82873368D01*
X87306632Y-82666525D01*
X87132240Y-82550000D01*
X87306632Y-82433475D01*
X87513475Y-82226632D01*
X87675990Y-81983411D01*
X87787932Y-81713158D01*
X87845000Y-81426260D01*
X87845000Y-81133740D01*
X87787932Y-80846842D01*
X87675990Y-80576589D01*
X87513475Y-80333368D01*
X87306632Y-80126525D01*
X87132240Y-80010000D01*
X87306632Y-79893475D01*
X87513475Y-79686632D01*
X87675990Y-79443411D01*
X87787932Y-79173158D01*
X87845000Y-78886260D01*
X87845000Y-78593740D01*
X87787932Y-78306842D01*
X87675990Y-78036589D01*
X87513475Y-77793368D01*
X87437027Y-77716920D01*
X90805547Y-74348400D01*
X90903039Y-74348400D01*
X91102998Y-74308626D01*
X91291356Y-74230605D01*
X91460874Y-74117337D01*
X91605037Y-73973174D01*
X91718305Y-73803656D01*
X91796326Y-73615298D01*
X91836100Y-73415339D01*
X91836100Y-73211461D01*
X91796326Y-73011502D01*
X91718305Y-72823144D01*
X91605037Y-72653626D01*
X91460874Y-72509463D01*
X91291356Y-72396195D01*
X91102998Y-72318174D01*
X90903039Y-72278400D01*
X90699161Y-72278400D01*
X90499202Y-72318174D01*
X90310844Y-72396195D01*
X90141326Y-72509463D01*
X89997163Y-72653626D01*
X89883895Y-72823144D01*
X89805874Y-73011502D01*
X89766100Y-73211461D01*
X89766100Y-73308953D01*
X87636927Y-75438127D01*
X87513475Y-75253368D01*
X87306632Y-75046525D01*
X87132240Y-74930000D01*
X87306632Y-74813475D01*
X87513475Y-74606632D01*
X87675990Y-74363411D01*
X87787932Y-74093158D01*
X87845000Y-73806260D01*
X87845000Y-73513740D01*
X87787932Y-73226842D01*
X87675990Y-72956589D01*
X87513475Y-72713368D01*
X87306632Y-72506525D01*
X87132240Y-72390000D01*
X87306632Y-72273475D01*
X87513475Y-72066632D01*
X87675990Y-71823411D01*
X87787932Y-71553158D01*
X87845000Y-71266260D01*
X87845000Y-70973740D01*
X87787932Y-70686842D01*
X87675990Y-70416589D01*
X87513475Y-70173368D01*
X87306632Y-69966525D01*
X87132240Y-69850000D01*
X87306632Y-69733475D01*
X87513475Y-69526632D01*
X87675990Y-69283411D01*
X87787932Y-69013158D01*
X87845000Y-68726260D01*
X87845000Y-68433740D01*
X87787932Y-68146842D01*
X87675990Y-67876589D01*
X87513475Y-67633368D01*
X87381620Y-67501513D01*
X87454180Y-67479502D01*
X87564494Y-67420537D01*
X87661185Y-67341185D01*
X87706485Y-67285987D01*
X87733501Y-67313002D01*
X87757299Y-67342001D01*
X87873024Y-67436974D01*
X88005053Y-67507546D01*
X88148314Y-67551003D01*
X88259967Y-67562000D01*
X88259975Y-67562000D01*
X88297300Y-67565676D01*
X88334625Y-67562000D01*
X89188928Y-67562000D01*
X89188928Y-67727000D01*
X89205992Y-67900254D01*
X89256528Y-68066850D01*
X89338595Y-68220386D01*
X89449038Y-68354962D01*
X89583614Y-68465405D01*
X89737150Y-68547472D01*
X89903746Y-68598008D01*
X90077000Y-68615072D01*
X91077000Y-68615072D01*
X91250254Y-68598008D01*
X91416850Y-68547472D01*
X91570386Y-68465405D01*
X91704962Y-68354962D01*
X91815405Y-68220386D01*
X91897472Y-68066850D01*
X91924727Y-67977000D01*
X92438928Y-67977000D01*
X92451188Y-68101482D01*
X92487498Y-68221180D01*
X92546463Y-68331494D01*
X92625815Y-68428185D01*
X92722506Y-68507537D01*
X92832820Y-68566502D01*
X92952518Y-68602812D01*
X93077000Y-68615072D01*
X93541250Y-68612000D01*
X93700000Y-68453250D01*
X93700000Y-66929000D01*
X93954000Y-66929000D01*
X93954000Y-68453250D01*
X94112750Y-68612000D01*
X94577000Y-68615072D01*
X94701482Y-68602812D01*
X94821180Y-68566502D01*
X94931494Y-68507537D01*
X95028185Y-68428185D01*
X95107537Y-68331494D01*
X95166502Y-68221180D01*
X95202812Y-68101482D01*
X95215072Y-67977000D01*
X95212000Y-67087750D01*
X95053250Y-66929000D01*
X93954000Y-66929000D01*
X93700000Y-66929000D01*
X92600750Y-66929000D01*
X92442000Y-67087750D01*
X92438928Y-67977000D01*
X91924727Y-67977000D01*
X91948008Y-67900254D01*
X91965072Y-67727000D01*
X91965072Y-65877000D01*
X91948008Y-65703746D01*
X91924728Y-65627000D01*
X92438928Y-65627000D01*
X92442000Y-66516250D01*
X92600750Y-66675000D01*
X93700000Y-66675000D01*
X93700000Y-65150750D01*
X93954000Y-65150750D01*
X93954000Y-66675000D01*
X95053250Y-66675000D01*
X95212000Y-66516250D01*
X95215072Y-65627000D01*
X95202812Y-65502518D01*
X95166502Y-65382820D01*
X95107537Y-65272506D01*
X95028185Y-65175815D01*
X94931494Y-65096463D01*
X94821180Y-65037498D01*
X94701482Y-65001188D01*
X94577000Y-64988928D01*
X94112750Y-64992000D01*
X93954000Y-65150750D01*
X93700000Y-65150750D01*
X93541250Y-64992000D01*
X93077000Y-64988928D01*
X92952518Y-65001188D01*
X92832820Y-65037498D01*
X92722506Y-65096463D01*
X92625815Y-65175815D01*
X92546463Y-65272506D01*
X92487498Y-65382820D01*
X92451188Y-65502518D01*
X92438928Y-65627000D01*
X91924728Y-65627000D01*
X91897472Y-65537150D01*
X91815405Y-65383614D01*
X91704962Y-65249038D01*
X91570386Y-65138595D01*
X91416850Y-65056528D01*
X91250254Y-65005992D01*
X91077000Y-64988928D01*
X90077000Y-64988928D01*
X89903746Y-65005992D01*
X89737150Y-65056528D01*
X89583614Y-65138595D01*
X89449038Y-65249038D01*
X89338595Y-65383614D01*
X89256528Y-65537150D01*
X89205992Y-65703746D01*
X89188928Y-65877000D01*
X89188928Y-66042000D01*
X88612102Y-66042000D01*
X88099103Y-65529002D01*
X88075301Y-65499999D01*
X87959576Y-65405026D01*
X87848072Y-65345425D01*
X87848072Y-65190000D01*
X87835812Y-65065518D01*
X87799502Y-64945820D01*
X87786770Y-64922000D01*
X108253023Y-64922000D01*
X108122412Y-65039731D01*
G04 #@! TA.AperFunction,Conductor*
D20*
G36*
X108122412Y-65039731D02*
G01*
X107948359Y-65273080D01*
X107823175Y-65535901D01*
X107778524Y-65683110D01*
X107899845Y-65913000D01*
X109093000Y-65913000D01*
X109093000Y-65893000D01*
X109347000Y-65893000D01*
X109347000Y-65913000D01*
X109367000Y-65913000D01*
X109367000Y-66167000D01*
X109347000Y-66167000D01*
X109347000Y-66187000D01*
X109093000Y-66187000D01*
X109093000Y-66167000D01*
X107899845Y-66167000D01*
X107778524Y-66396890D01*
X107823175Y-66544099D01*
X107948359Y-66806920D01*
X108122412Y-67040269D01*
X108338645Y-67235178D01*
X108455534Y-67304805D01*
X108273368Y-67426525D01*
X108066525Y-67633368D01*
X107937204Y-67826911D01*
X107895714Y-67830997D01*
X107752453Y-67874454D01*
X107620424Y-67945026D01*
X107504699Y-68039999D01*
X107480901Y-68068997D01*
X102501798Y-73048101D01*
X102472800Y-73071899D01*
X102449002Y-73100897D01*
X102449001Y-73100898D01*
X102377826Y-73187624D01*
X102307254Y-73319654D01*
X102278229Y-73415339D01*
X102265509Y-73457276D01*
X102263798Y-73462915D01*
X102249124Y-73611900D01*
X102252801Y-73649232D01*
X102252800Y-76964034D01*
X97807835Y-81409000D01*
X96842711Y-81409000D01*
X96798774Y-81365063D01*
X96629256Y-81251795D01*
X96440898Y-81173774D01*
X96240939Y-81134000D01*
X96037061Y-81134000D01*
X95837102Y-81173774D01*
X95648744Y-81251795D01*
X95479226Y-81365063D01*
X95408044Y-81436245D01*
X94051202Y-80079403D01*
X94027399Y-80050399D01*
X93911674Y-79955426D01*
X93779645Y-79884854D01*
X93636384Y-79841397D01*
X93524731Y-79830400D01*
X93524720Y-79830400D01*
X93487398Y-79826724D01*
X93450076Y-79830400D01*
X92200611Y-79830400D01*
X92156674Y-79786463D01*
X91987156Y-79673195D01*
X91798798Y-79595174D01*
X91598839Y-79555400D01*
X91394961Y-79555400D01*
X91195002Y-79595174D01*
X91006644Y-79673195D01*
X90837126Y-79786463D01*
X90692963Y-79930626D01*
X90579695Y-80100144D01*
X90501674Y-80288502D01*
X90461900Y-80488461D01*
X90461900Y-80550597D01*
X87740403Y-83272096D01*
X87675990Y-83116589D01*
X87513475Y-82873368D01*
X87306632Y-82666525D01*
X87132240Y-82550000D01*
X87306632Y-82433475D01*
X87513475Y-82226632D01*
X87675990Y-81983411D01*
X87787932Y-81713158D01*
X87845000Y-81426260D01*
X87845000Y-81133740D01*
X87787932Y-80846842D01*
X87675990Y-80576589D01*
X87513475Y-80333368D01*
X87306632Y-80126525D01*
X87132240Y-80010000D01*
X87306632Y-79893475D01*
X87513475Y-79686632D01*
X87675990Y-79443411D01*
X87787932Y-79173158D01*
X87845000Y-78886260D01*
X87845000Y-78593740D01*
X87787932Y-78306842D01*
X87675990Y-78036589D01*
X87513475Y-77793368D01*
X87437027Y-77716920D01*
X90805547Y-74348400D01*
X90903039Y-74348400D01*
X91102998Y-74308626D01*
X91291356Y-74230605D01*
X91460874Y-74117337D01*
X91605037Y-73973174D01*
X91718305Y-73803656D01*
X91796326Y-73615298D01*
X91836100Y-73415339D01*
X91836100Y-73211461D01*
X91796326Y-73011502D01*
X91718305Y-72823144D01*
X91605037Y-72653626D01*
X91460874Y-72509463D01*
X91291356Y-72396195D01*
X91102998Y-72318174D01*
X90903039Y-72278400D01*
X90699161Y-72278400D01*
X90499202Y-72318174D01*
X90310844Y-72396195D01*
X90141326Y-72509463D01*
X89997163Y-72653626D01*
X89883895Y-72823144D01*
X89805874Y-73011502D01*
X89766100Y-73211461D01*
X89766100Y-73308953D01*
X87636927Y-75438127D01*
X87513475Y-75253368D01*
X87306632Y-75046525D01*
X87132240Y-74930000D01*
X87306632Y-74813475D01*
X87513475Y-74606632D01*
X87675990Y-74363411D01*
X87787932Y-74093158D01*
X87845000Y-73806260D01*
X87845000Y-73513740D01*
X87787932Y-73226842D01*
X87675990Y-72956589D01*
X87513475Y-72713368D01*
X87306632Y-72506525D01*
X87132240Y-72390000D01*
X87306632Y-72273475D01*
X87513475Y-72066632D01*
X87675990Y-71823411D01*
X87787932Y-71553158D01*
X87845000Y-71266260D01*
X87845000Y-70973740D01*
X87787932Y-70686842D01*
X87675990Y-70416589D01*
X87513475Y-70173368D01*
X87306632Y-69966525D01*
X87132240Y-69850000D01*
X87306632Y-69733475D01*
X87513475Y-69526632D01*
X87675990Y-69283411D01*
X87787932Y-69013158D01*
X87845000Y-68726260D01*
X87845000Y-68433740D01*
X87787932Y-68146842D01*
X87675990Y-67876589D01*
X87513475Y-67633368D01*
X87381620Y-67501513D01*
X87454180Y-67479502D01*
X87564494Y-67420537D01*
X87661185Y-67341185D01*
X87706485Y-67285987D01*
X87733501Y-67313002D01*
X87757299Y-67342001D01*
X87873024Y-67436974D01*
X88005053Y-67507546D01*
X88148314Y-67551003D01*
X88259967Y-67562000D01*
X88259975Y-67562000D01*
X88297300Y-67565676D01*
X88334625Y-67562000D01*
X89188928Y-67562000D01*
X89188928Y-67727000D01*
X89205992Y-67900254D01*
X89256528Y-68066850D01*
X89338595Y-68220386D01*
X89449038Y-68354962D01*
X89583614Y-68465405D01*
X89737150Y-68547472D01*
X89903746Y-68598008D01*
X90077000Y-68615072D01*
X91077000Y-68615072D01*
X91250254Y-68598008D01*
X91416850Y-68547472D01*
X91570386Y-68465405D01*
X91704962Y-68354962D01*
X91815405Y-68220386D01*
X91897472Y-68066850D01*
X91924727Y-67977000D01*
X92438928Y-67977000D01*
X92451188Y-68101482D01*
X92487498Y-68221180D01*
X92546463Y-68331494D01*
X92625815Y-68428185D01*
X92722506Y-68507537D01*
X92832820Y-68566502D01*
X92952518Y-68602812D01*
X93077000Y-68615072D01*
X93541250Y-68612000D01*
X93700000Y-68453250D01*
X93700000Y-66929000D01*
X93954000Y-66929000D01*
X93954000Y-68453250D01*
X94112750Y-68612000D01*
X94577000Y-68615072D01*
X94701482Y-68602812D01*
X94821180Y-68566502D01*
X94931494Y-68507537D01*
X95028185Y-68428185D01*
X95107537Y-68331494D01*
X95166502Y-68221180D01*
X95202812Y-68101482D01*
X95215072Y-67977000D01*
X95212000Y-67087750D01*
X95053250Y-66929000D01*
X93954000Y-66929000D01*
X93700000Y-66929000D01*
X92600750Y-66929000D01*
X92442000Y-67087750D01*
X92438928Y-67977000D01*
X91924727Y-67977000D01*
X91948008Y-67900254D01*
X91965072Y-67727000D01*
X91965072Y-65877000D01*
X91948008Y-65703746D01*
X91924728Y-65627000D01*
X92438928Y-65627000D01*
X92442000Y-66516250D01*
X92600750Y-66675000D01*
X93700000Y-66675000D01*
X93700000Y-65150750D01*
X93954000Y-65150750D01*
X93954000Y-66675000D01*
X95053250Y-66675000D01*
X95212000Y-66516250D01*
X95215072Y-65627000D01*
X95202812Y-65502518D01*
X95166502Y-65382820D01*
X95107537Y-65272506D01*
X95028185Y-65175815D01*
X94931494Y-65096463D01*
X94821180Y-65037498D01*
X94701482Y-65001188D01*
X94577000Y-64988928D01*
X94112750Y-64992000D01*
X93954000Y-65150750D01*
X93700000Y-65150750D01*
X93541250Y-64992000D01*
X93077000Y-64988928D01*
X92952518Y-65001188D01*
X92832820Y-65037498D01*
X92722506Y-65096463D01*
X92625815Y-65175815D01*
X92546463Y-65272506D01*
X92487498Y-65382820D01*
X92451188Y-65502518D01*
X92438928Y-65627000D01*
X91924728Y-65627000D01*
X91897472Y-65537150D01*
X91815405Y-65383614D01*
X91704962Y-65249038D01*
X91570386Y-65138595D01*
X91416850Y-65056528D01*
X91250254Y-65005992D01*
X91077000Y-64988928D01*
X90077000Y-64988928D01*
X89903746Y-65005992D01*
X89737150Y-65056528D01*
X89583614Y-65138595D01*
X89449038Y-65249038D01*
X89338595Y-65383614D01*
X89256528Y-65537150D01*
X89205992Y-65703746D01*
X89188928Y-65877000D01*
X89188928Y-66042000D01*
X88612102Y-66042000D01*
X88099103Y-65529002D01*
X88075301Y-65499999D01*
X87959576Y-65405026D01*
X87848072Y-65345425D01*
X87848072Y-65190000D01*
X87835812Y-65065518D01*
X87799502Y-64945820D01*
X87786770Y-64922000D01*
X108253023Y-64922000D01*
X108122412Y-65039731D01*
G37*
G04 #@! TD.AperFunction*
M02*
