G04 #@! TF.GenerationSoftware,KiCad,Pcbnew,(5.1.10)-1*
G04 #@! TF.CreationDate,2021-11-05T15:55:45+01:00*
G04 #@! TF.ProjectId,esp32,65737033-322e-46b6-9963-61645f706362,rev?*
G04 #@! TF.SameCoordinates,Original*
G04 #@! TF.FileFunction,Legend,Top*
G04 #@! TF.FilePolarity,Positive*
%FSLAX46Y46*%
G04 Gerber Fmt 4.6, Leading zero omitted, Abs format (unit mm)*
G04 Created by KiCad (PCBNEW (5.1.10)-1) date 2021-11-05 15:55:45*
%MOMM*%
%LPD*%
G01*
G04 APERTURE LIST*
%ADD10C,0.120000*%
%ADD11C,0.100000*%
%ADD12C,0.200000*%
%ADD13C,1.000000*%
%ADD14R,1.700000X1.700000*%
%ADD15O,1.700000X1.700000*%
%ADD16R,2.000000X0.900000*%
%ADD17R,1.330000X1.330000*%
%ADD18R,0.650000X1.500000*%
%ADD19R,0.650000X1.060000*%
%ADD20R,1.400000X1.200000*%
G04 APERTURE END LIST*
D10*
X110490000Y-64770000D02*
X110490000Y-105410000D01*
X107950000Y-64770000D02*
X107950000Y-105410000D01*
X107950000Y-105410000D02*
X110490000Y-105410000D01*
X85030000Y-100390000D02*
X87630000Y-100390000D01*
X85030000Y-67310000D02*
X85030000Y-100390000D01*
X87630000Y-64710000D02*
X87630000Y-100390000D01*
X87630000Y-67310000D02*
X87630000Y-64710000D01*
X85030000Y-66040000D02*
X85030000Y-64710000D01*
X100818000Y-94996000D02*
X100818000Y-96946000D01*
X100818000Y-94996000D02*
X100818000Y-93046000D01*
X105938000Y-94996000D02*
X105938000Y-96946000D01*
X105938000Y-94996000D02*
X105938000Y-91546000D01*
D11*
X88790000Y-89360000D02*
X106790000Y-89360000D01*
X88790000Y-64160000D02*
X88790000Y-57960000D01*
X88790000Y-57960000D02*
X106790000Y-57960000D01*
X106790000Y-57960000D02*
X106790000Y-64160000D01*
X87790000Y-65460000D02*
X87790000Y-65460000D01*
X87890000Y-65460000D02*
X87890000Y-65460000D01*
X87890000Y-65460000D02*
G75*
G02*
X87790000Y-65460000I-50000J0D01*
G01*
X87790000Y-65460000D02*
G75*
G02*
X87890000Y-65460000I50000J0D01*
G01*
D12*
X89495000Y-98446000D02*
X89495000Y-96946000D01*
X98305000Y-96596000D02*
X89655000Y-96596000D01*
X98305000Y-93396000D02*
X98305000Y-96596000D01*
X89655000Y-93396000D02*
X98305000Y-93396000D01*
X89655000Y-96596000D02*
X89655000Y-93396000D01*
D10*
X89576000Y-102097000D02*
X89576000Y-104547000D01*
X92796000Y-103897000D02*
X92796000Y-102097000D01*
X99079267Y-103376000D02*
X98786733Y-103376000D01*
X99079267Y-104396000D02*
X98786733Y-104396000D01*
X102618000Y-102723733D02*
X102618000Y-103016267D01*
X101598000Y-102723733D02*
X101598000Y-103016267D01*
X99312000Y-92629733D02*
X99312000Y-92922267D01*
X100332000Y-92629733D02*
X100332000Y-92922267D01*
X89156000Y-92629733D02*
X89156000Y-92922267D01*
X88136000Y-92629733D02*
X88136000Y-92922267D01*
X88136000Y-97682267D02*
X88136000Y-97389733D01*
X89156000Y-97682267D02*
X89156000Y-97389733D01*
X93457500Y-103251724D02*
X93457500Y-102742276D01*
X94502500Y-103251724D02*
X94502500Y-102742276D01*
X88787500Y-103124724D02*
X88787500Y-102615276D01*
X87742500Y-103124724D02*
X87742500Y-102615276D01*
X87009500Y-102615276D02*
X87009500Y-103124724D01*
X85964500Y-102615276D02*
X85964500Y-103124724D01*
X95235500Y-102742276D02*
X95235500Y-103251724D01*
X96280500Y-102742276D02*
X96280500Y-103251724D01*
X107456500Y-99441724D02*
X107456500Y-98932276D01*
X106411500Y-99441724D02*
X106411500Y-98932276D01*
X89916724Y-100598500D02*
X89407276Y-100598500D01*
X89916724Y-99553500D02*
X89407276Y-99553500D01*
X100933000Y-102742000D02*
X100933000Y-99442000D01*
X100933000Y-99442000D02*
X96933000Y-99442000D01*
X106726000Y-104270000D02*
X106126000Y-104270000D01*
X107426000Y-102170000D02*
X107426000Y-103570000D01*
X106126000Y-101470000D02*
X106726000Y-101470000D01*
X105426000Y-103570000D02*
X105426000Y-102170000D01*
X105426000Y-102170000D02*
G75*
G02*
X106126000Y-101470000I700000J0D01*
G01*
X106726000Y-101470000D02*
G75*
G02*
X107426000Y-102170000I0J-700000D01*
G01*
X107426000Y-103570000D02*
G75*
G02*
X106726000Y-104270000I-700000J0D01*
G01*
X106126000Y-104270000D02*
G75*
G02*
X105426000Y-103570000I0J700000D01*
G01*
D11*
X87396666Y-63326666D02*
X87396666Y-63826666D01*
X87363333Y-63926666D01*
X87296666Y-63993333D01*
X87196666Y-64026666D01*
X87130000Y-64026666D01*
X88030000Y-63560000D02*
X88030000Y-64026666D01*
X87863333Y-63293333D02*
X87696666Y-63793333D01*
X88130000Y-63793333D01*
X85740952Y-64496190D02*
X86050476Y-64496190D01*
X85883809Y-64686666D01*
X85955238Y-64686666D01*
X86002857Y-64710476D01*
X86026666Y-64734285D01*
X86050476Y-64781904D01*
X86050476Y-64900952D01*
X86026666Y-64948571D01*
X86002857Y-64972380D01*
X85955238Y-64996190D01*
X85812380Y-64996190D01*
X85764761Y-64972380D01*
X85740952Y-64948571D01*
X86193333Y-64496190D02*
X86360000Y-64996190D01*
X86526666Y-64496190D01*
X86645714Y-64496190D02*
X86955238Y-64496190D01*
X86788571Y-64686666D01*
X86860000Y-64686666D01*
X86907619Y-64710476D01*
X86931428Y-64734285D01*
X86955238Y-64781904D01*
X86955238Y-64900952D01*
X86931428Y-64948571D01*
X86907619Y-64972380D01*
X86860000Y-64996190D01*
X86717142Y-64996190D01*
X86669523Y-64972380D01*
X86645714Y-64948571D01*
X85990952Y-67274285D02*
X86157619Y-67274285D01*
X86229047Y-67536190D02*
X85990952Y-67536190D01*
X85990952Y-67036190D01*
X86229047Y-67036190D01*
X86443333Y-67536190D02*
X86443333Y-67036190D01*
X86729047Y-67536190D01*
X86729047Y-67036190D01*
X85752857Y-70052380D02*
X85824285Y-70076190D01*
X85943333Y-70076190D01*
X85990952Y-70052380D01*
X86014761Y-70028571D01*
X86038571Y-69980952D01*
X86038571Y-69933333D01*
X86014761Y-69885714D01*
X85990952Y-69861904D01*
X85943333Y-69838095D01*
X85848095Y-69814285D01*
X85800476Y-69790476D01*
X85776666Y-69766666D01*
X85752857Y-69719047D01*
X85752857Y-69671428D01*
X85776666Y-69623809D01*
X85800476Y-69600000D01*
X85848095Y-69576190D01*
X85967142Y-69576190D01*
X86038571Y-69600000D01*
X86181428Y-69576190D02*
X86348095Y-70076190D01*
X86514761Y-69576190D01*
X86681428Y-70076190D02*
X86681428Y-69576190D01*
X86871904Y-69576190D01*
X86919523Y-69600000D01*
X86943333Y-69623809D01*
X86967142Y-69671428D01*
X86967142Y-69742857D01*
X86943333Y-69790476D01*
X86919523Y-69814285D01*
X86871904Y-69838095D01*
X86681428Y-69838095D01*
X85740952Y-72592380D02*
X85812380Y-72616190D01*
X85931428Y-72616190D01*
X85979047Y-72592380D01*
X86002857Y-72568571D01*
X86026666Y-72520952D01*
X86026666Y-72473333D01*
X86002857Y-72425714D01*
X85979047Y-72401904D01*
X85931428Y-72378095D01*
X85836190Y-72354285D01*
X85788571Y-72330476D01*
X85764761Y-72306666D01*
X85740952Y-72259047D01*
X85740952Y-72211428D01*
X85764761Y-72163809D01*
X85788571Y-72140000D01*
X85836190Y-72116190D01*
X85955238Y-72116190D01*
X86026666Y-72140000D01*
X86169523Y-72116190D02*
X86336190Y-72616190D01*
X86502857Y-72116190D01*
X86669523Y-72616190D02*
X86669523Y-72116190D01*
X86955238Y-72616190D01*
X86955238Y-72116190D01*
X85621904Y-75156190D02*
X85621904Y-74656190D01*
X85955238Y-74656190D02*
X86050476Y-74656190D01*
X86098095Y-74680000D01*
X86145714Y-74727619D01*
X86169523Y-74822857D01*
X86169523Y-74989523D01*
X86145714Y-75084761D01*
X86098095Y-75132380D01*
X86050476Y-75156190D01*
X85955238Y-75156190D01*
X85907619Y-75132380D01*
X85860000Y-75084761D01*
X85836190Y-74989523D01*
X85836190Y-74822857D01*
X85860000Y-74727619D01*
X85907619Y-74680000D01*
X85955238Y-74656190D01*
X86336190Y-74656190D02*
X86645714Y-74656190D01*
X86479047Y-74846666D01*
X86550476Y-74846666D01*
X86598095Y-74870476D01*
X86621904Y-74894285D01*
X86645714Y-74941904D01*
X86645714Y-75060952D01*
X86621904Y-75108571D01*
X86598095Y-75132380D01*
X86550476Y-75156190D01*
X86407619Y-75156190D01*
X86360000Y-75132380D01*
X86336190Y-75108571D01*
X87074285Y-74822857D02*
X87074285Y-75156190D01*
X86955238Y-74632380D02*
X86836190Y-74989523D01*
X87145714Y-74989523D01*
X85621904Y-77696190D02*
X85621904Y-77196190D01*
X85955238Y-77196190D02*
X86050476Y-77196190D01*
X86098095Y-77220000D01*
X86145714Y-77267619D01*
X86169523Y-77362857D01*
X86169523Y-77529523D01*
X86145714Y-77624761D01*
X86098095Y-77672380D01*
X86050476Y-77696190D01*
X85955238Y-77696190D01*
X85907619Y-77672380D01*
X85860000Y-77624761D01*
X85836190Y-77529523D01*
X85836190Y-77362857D01*
X85860000Y-77267619D01*
X85907619Y-77220000D01*
X85955238Y-77196190D01*
X86336190Y-77196190D02*
X86645714Y-77196190D01*
X86479047Y-77386666D01*
X86550476Y-77386666D01*
X86598095Y-77410476D01*
X86621904Y-77434285D01*
X86645714Y-77481904D01*
X86645714Y-77600952D01*
X86621904Y-77648571D01*
X86598095Y-77672380D01*
X86550476Y-77696190D01*
X86407619Y-77696190D01*
X86360000Y-77672380D01*
X86336190Y-77648571D01*
X87098095Y-77196190D02*
X86860000Y-77196190D01*
X86836190Y-77434285D01*
X86860000Y-77410476D01*
X86907619Y-77386666D01*
X87026666Y-77386666D01*
X87074285Y-77410476D01*
X87098095Y-77434285D01*
X87121904Y-77481904D01*
X87121904Y-77600952D01*
X87098095Y-77648571D01*
X87074285Y-77672380D01*
X87026666Y-77696190D01*
X86907619Y-77696190D01*
X86860000Y-77672380D01*
X86836190Y-77648571D01*
X85621904Y-80236190D02*
X85621904Y-79736190D01*
X85955238Y-79736190D02*
X86050476Y-79736190D01*
X86098095Y-79760000D01*
X86145714Y-79807619D01*
X86169523Y-79902857D01*
X86169523Y-80069523D01*
X86145714Y-80164761D01*
X86098095Y-80212380D01*
X86050476Y-80236190D01*
X85955238Y-80236190D01*
X85907619Y-80212380D01*
X85860000Y-80164761D01*
X85836190Y-80069523D01*
X85836190Y-79902857D01*
X85860000Y-79807619D01*
X85907619Y-79760000D01*
X85955238Y-79736190D01*
X86336190Y-79736190D02*
X86645714Y-79736190D01*
X86479047Y-79926666D01*
X86550476Y-79926666D01*
X86598095Y-79950476D01*
X86621904Y-79974285D01*
X86645714Y-80021904D01*
X86645714Y-80140952D01*
X86621904Y-80188571D01*
X86598095Y-80212380D01*
X86550476Y-80236190D01*
X86407619Y-80236190D01*
X86360000Y-80212380D01*
X86336190Y-80188571D01*
X86836190Y-79783809D02*
X86860000Y-79760000D01*
X86907619Y-79736190D01*
X87026666Y-79736190D01*
X87074285Y-79760000D01*
X87098095Y-79783809D01*
X87121904Y-79831428D01*
X87121904Y-79879047D01*
X87098095Y-79950476D01*
X86812380Y-80236190D01*
X87121904Y-80236190D01*
X85621904Y-82776190D02*
X85621904Y-82276190D01*
X85955238Y-82276190D02*
X86050476Y-82276190D01*
X86098095Y-82300000D01*
X86145714Y-82347619D01*
X86169523Y-82442857D01*
X86169523Y-82609523D01*
X86145714Y-82704761D01*
X86098095Y-82752380D01*
X86050476Y-82776190D01*
X85955238Y-82776190D01*
X85907619Y-82752380D01*
X85860000Y-82704761D01*
X85836190Y-82609523D01*
X85836190Y-82442857D01*
X85860000Y-82347619D01*
X85907619Y-82300000D01*
X85955238Y-82276190D01*
X86336190Y-82276190D02*
X86645714Y-82276190D01*
X86479047Y-82466666D01*
X86550476Y-82466666D01*
X86598095Y-82490476D01*
X86621904Y-82514285D01*
X86645714Y-82561904D01*
X86645714Y-82680952D01*
X86621904Y-82728571D01*
X86598095Y-82752380D01*
X86550476Y-82776190D01*
X86407619Y-82776190D01*
X86360000Y-82752380D01*
X86336190Y-82728571D01*
X86812380Y-82276190D02*
X87121904Y-82276190D01*
X86955238Y-82466666D01*
X87026666Y-82466666D01*
X87074285Y-82490476D01*
X87098095Y-82514285D01*
X87121904Y-82561904D01*
X87121904Y-82680952D01*
X87098095Y-82728571D01*
X87074285Y-82752380D01*
X87026666Y-82776190D01*
X86883809Y-82776190D01*
X86836190Y-82752380D01*
X86812380Y-82728571D01*
X85621904Y-85316190D02*
X85621904Y-84816190D01*
X85955238Y-84816190D02*
X86050476Y-84816190D01*
X86098095Y-84840000D01*
X86145714Y-84887619D01*
X86169523Y-84982857D01*
X86169523Y-85149523D01*
X86145714Y-85244761D01*
X86098095Y-85292380D01*
X86050476Y-85316190D01*
X85955238Y-85316190D01*
X85907619Y-85292380D01*
X85860000Y-85244761D01*
X85836190Y-85149523D01*
X85836190Y-84982857D01*
X85860000Y-84887619D01*
X85907619Y-84840000D01*
X85955238Y-84816190D01*
X86360000Y-84863809D02*
X86383809Y-84840000D01*
X86431428Y-84816190D01*
X86550476Y-84816190D01*
X86598095Y-84840000D01*
X86621904Y-84863809D01*
X86645714Y-84911428D01*
X86645714Y-84959047D01*
X86621904Y-85030476D01*
X86336190Y-85316190D01*
X86645714Y-85316190D01*
X87098095Y-84816190D02*
X86860000Y-84816190D01*
X86836190Y-85054285D01*
X86860000Y-85030476D01*
X86907619Y-85006666D01*
X87026666Y-85006666D01*
X87074285Y-85030476D01*
X87098095Y-85054285D01*
X87121904Y-85101904D01*
X87121904Y-85220952D01*
X87098095Y-85268571D01*
X87074285Y-85292380D01*
X87026666Y-85316190D01*
X86907619Y-85316190D01*
X86860000Y-85292380D01*
X86836190Y-85268571D01*
X85621904Y-87856190D02*
X85621904Y-87356190D01*
X85955238Y-87356190D02*
X86050476Y-87356190D01*
X86098095Y-87380000D01*
X86145714Y-87427619D01*
X86169523Y-87522857D01*
X86169523Y-87689523D01*
X86145714Y-87784761D01*
X86098095Y-87832380D01*
X86050476Y-87856190D01*
X85955238Y-87856190D01*
X85907619Y-87832380D01*
X85860000Y-87784761D01*
X85836190Y-87689523D01*
X85836190Y-87522857D01*
X85860000Y-87427619D01*
X85907619Y-87380000D01*
X85955238Y-87356190D01*
X86360000Y-87403809D02*
X86383809Y-87380000D01*
X86431428Y-87356190D01*
X86550476Y-87356190D01*
X86598095Y-87380000D01*
X86621904Y-87403809D01*
X86645714Y-87451428D01*
X86645714Y-87499047D01*
X86621904Y-87570476D01*
X86336190Y-87856190D01*
X86645714Y-87856190D01*
X87074285Y-87356190D02*
X86979047Y-87356190D01*
X86931428Y-87380000D01*
X86907619Y-87403809D01*
X86860000Y-87475238D01*
X86836190Y-87570476D01*
X86836190Y-87760952D01*
X86860000Y-87808571D01*
X86883809Y-87832380D01*
X86931428Y-87856190D01*
X87026666Y-87856190D01*
X87074285Y-87832380D01*
X87098095Y-87808571D01*
X87121904Y-87760952D01*
X87121904Y-87641904D01*
X87098095Y-87594285D01*
X87074285Y-87570476D01*
X87026666Y-87546666D01*
X86931428Y-87546666D01*
X86883809Y-87570476D01*
X86860000Y-87594285D01*
X86836190Y-87641904D01*
X85621904Y-90396190D02*
X85621904Y-89896190D01*
X85955238Y-89896190D02*
X86050476Y-89896190D01*
X86098095Y-89920000D01*
X86145714Y-89967619D01*
X86169523Y-90062857D01*
X86169523Y-90229523D01*
X86145714Y-90324761D01*
X86098095Y-90372380D01*
X86050476Y-90396190D01*
X85955238Y-90396190D01*
X85907619Y-90372380D01*
X85860000Y-90324761D01*
X85836190Y-90229523D01*
X85836190Y-90062857D01*
X85860000Y-89967619D01*
X85907619Y-89920000D01*
X85955238Y-89896190D01*
X86360000Y-89943809D02*
X86383809Y-89920000D01*
X86431428Y-89896190D01*
X86550476Y-89896190D01*
X86598095Y-89920000D01*
X86621904Y-89943809D01*
X86645714Y-89991428D01*
X86645714Y-90039047D01*
X86621904Y-90110476D01*
X86336190Y-90396190D01*
X86645714Y-90396190D01*
X86812380Y-89896190D02*
X87145714Y-89896190D01*
X86931428Y-90396190D01*
X85621904Y-92936190D02*
X85621904Y-92436190D01*
X85955238Y-92436190D02*
X86050476Y-92436190D01*
X86098095Y-92460000D01*
X86145714Y-92507619D01*
X86169523Y-92602857D01*
X86169523Y-92769523D01*
X86145714Y-92864761D01*
X86098095Y-92912380D01*
X86050476Y-92936190D01*
X85955238Y-92936190D01*
X85907619Y-92912380D01*
X85860000Y-92864761D01*
X85836190Y-92769523D01*
X85836190Y-92602857D01*
X85860000Y-92507619D01*
X85907619Y-92460000D01*
X85955238Y-92436190D01*
X86645714Y-92936190D02*
X86360000Y-92936190D01*
X86502857Y-92936190D02*
X86502857Y-92436190D01*
X86455238Y-92507619D01*
X86407619Y-92555238D01*
X86360000Y-92579047D01*
X87074285Y-92602857D02*
X87074285Y-92936190D01*
X86955238Y-92412380D02*
X86836190Y-92769523D01*
X87145714Y-92769523D01*
X85621904Y-95476190D02*
X85621904Y-94976190D01*
X85955238Y-94976190D02*
X86050476Y-94976190D01*
X86098095Y-95000000D01*
X86145714Y-95047619D01*
X86169523Y-95142857D01*
X86169523Y-95309523D01*
X86145714Y-95404761D01*
X86098095Y-95452380D01*
X86050476Y-95476190D01*
X85955238Y-95476190D01*
X85907619Y-95452380D01*
X85860000Y-95404761D01*
X85836190Y-95309523D01*
X85836190Y-95142857D01*
X85860000Y-95047619D01*
X85907619Y-95000000D01*
X85955238Y-94976190D01*
X86645714Y-95476190D02*
X86360000Y-95476190D01*
X86502857Y-95476190D02*
X86502857Y-94976190D01*
X86455238Y-95047619D01*
X86407619Y-95095238D01*
X86360000Y-95119047D01*
X86836190Y-95023809D02*
X86860000Y-95000000D01*
X86907619Y-94976190D01*
X87026666Y-94976190D01*
X87074285Y-95000000D01*
X87098095Y-95023809D01*
X87121904Y-95071428D01*
X87121904Y-95119047D01*
X87098095Y-95190476D01*
X86812380Y-95476190D01*
X87121904Y-95476190D01*
X85621904Y-98016190D02*
X85621904Y-97516190D01*
X85955238Y-97516190D02*
X86050476Y-97516190D01*
X86098095Y-97540000D01*
X86145714Y-97587619D01*
X86169523Y-97682857D01*
X86169523Y-97849523D01*
X86145714Y-97944761D01*
X86098095Y-97992380D01*
X86050476Y-98016190D01*
X85955238Y-98016190D01*
X85907619Y-97992380D01*
X85860000Y-97944761D01*
X85836190Y-97849523D01*
X85836190Y-97682857D01*
X85860000Y-97587619D01*
X85907619Y-97540000D01*
X85955238Y-97516190D01*
X86645714Y-98016190D02*
X86360000Y-98016190D01*
X86502857Y-98016190D02*
X86502857Y-97516190D01*
X86455238Y-97587619D01*
X86407619Y-97635238D01*
X86360000Y-97659047D01*
X86812380Y-97516190D02*
X87121904Y-97516190D01*
X86955238Y-97706666D01*
X87026666Y-97706666D01*
X87074285Y-97730476D01*
X87098095Y-97754285D01*
X87121904Y-97801904D01*
X87121904Y-97920952D01*
X87098095Y-97968571D01*
X87074285Y-97992380D01*
X87026666Y-98016190D01*
X86883809Y-98016190D01*
X86836190Y-97992380D01*
X86812380Y-97968571D01*
X108839047Y-64520000D02*
X108791428Y-64496190D01*
X108720000Y-64496190D01*
X108648571Y-64520000D01*
X108600952Y-64567619D01*
X108577142Y-64615238D01*
X108553333Y-64710476D01*
X108553333Y-64781904D01*
X108577142Y-64877142D01*
X108600952Y-64924761D01*
X108648571Y-64972380D01*
X108720000Y-64996190D01*
X108767619Y-64996190D01*
X108839047Y-64972380D01*
X108862857Y-64948571D01*
X108862857Y-64781904D01*
X108767619Y-64781904D01*
X109077142Y-64996190D02*
X109077142Y-64496190D01*
X109362857Y-64996190D01*
X109362857Y-64496190D01*
X109600952Y-64996190D02*
X109600952Y-64496190D01*
X109720000Y-64496190D01*
X109791428Y-64520000D01*
X109839047Y-64567619D01*
X109862857Y-64615238D01*
X109886666Y-64710476D01*
X109886666Y-64781904D01*
X109862857Y-64877142D01*
X109839047Y-64924761D01*
X109791428Y-64972380D01*
X109720000Y-64996190D01*
X109600952Y-64996190D01*
X108481904Y-67536190D02*
X108481904Y-67036190D01*
X108815238Y-67036190D02*
X108910476Y-67036190D01*
X108958095Y-67060000D01*
X109005714Y-67107619D01*
X109029523Y-67202857D01*
X109029523Y-67369523D01*
X109005714Y-67464761D01*
X108958095Y-67512380D01*
X108910476Y-67536190D01*
X108815238Y-67536190D01*
X108767619Y-67512380D01*
X108720000Y-67464761D01*
X108696190Y-67369523D01*
X108696190Y-67202857D01*
X108720000Y-67107619D01*
X108767619Y-67060000D01*
X108815238Y-67036190D01*
X109220000Y-67083809D02*
X109243809Y-67060000D01*
X109291428Y-67036190D01*
X109410476Y-67036190D01*
X109458095Y-67060000D01*
X109481904Y-67083809D01*
X109505714Y-67131428D01*
X109505714Y-67179047D01*
X109481904Y-67250476D01*
X109196190Y-67536190D01*
X109505714Y-67536190D01*
X109672380Y-67036190D02*
X109981904Y-67036190D01*
X109815238Y-67226666D01*
X109886666Y-67226666D01*
X109934285Y-67250476D01*
X109958095Y-67274285D01*
X109981904Y-67321904D01*
X109981904Y-67440952D01*
X109958095Y-67488571D01*
X109934285Y-67512380D01*
X109886666Y-67536190D01*
X109743809Y-67536190D01*
X109696190Y-67512380D01*
X109672380Y-67488571D01*
X108481904Y-70076190D02*
X108481904Y-69576190D01*
X108815238Y-69576190D02*
X108910476Y-69576190D01*
X108958095Y-69600000D01*
X109005714Y-69647619D01*
X109029523Y-69742857D01*
X109029523Y-69909523D01*
X109005714Y-70004761D01*
X108958095Y-70052380D01*
X108910476Y-70076190D01*
X108815238Y-70076190D01*
X108767619Y-70052380D01*
X108720000Y-70004761D01*
X108696190Y-69909523D01*
X108696190Y-69742857D01*
X108720000Y-69647619D01*
X108767619Y-69600000D01*
X108815238Y-69576190D01*
X109220000Y-69623809D02*
X109243809Y-69600000D01*
X109291428Y-69576190D01*
X109410476Y-69576190D01*
X109458095Y-69600000D01*
X109481904Y-69623809D01*
X109505714Y-69671428D01*
X109505714Y-69719047D01*
X109481904Y-69790476D01*
X109196190Y-70076190D01*
X109505714Y-70076190D01*
X109696190Y-69623809D02*
X109720000Y-69600000D01*
X109767619Y-69576190D01*
X109886666Y-69576190D01*
X109934285Y-69600000D01*
X109958095Y-69623809D01*
X109981904Y-69671428D01*
X109981904Y-69719047D01*
X109958095Y-69790476D01*
X109672380Y-70076190D01*
X109981904Y-70076190D01*
X108624761Y-72116190D02*
X108910476Y-72116190D01*
X108767619Y-72616190D02*
X108767619Y-72116190D01*
X109029523Y-72616190D02*
X109291428Y-72282857D01*
X109029523Y-72282857D02*
X109291428Y-72616190D01*
X109481904Y-72616190D02*
X109481904Y-72116190D01*
X109600952Y-72116190D01*
X109672380Y-72140000D01*
X109720000Y-72187619D01*
X109743809Y-72235238D01*
X109767619Y-72330476D01*
X109767619Y-72401904D01*
X109743809Y-72497142D01*
X109720000Y-72544761D01*
X109672380Y-72592380D01*
X109600952Y-72616190D01*
X109481904Y-72616190D01*
X108922380Y-75156190D02*
X108755714Y-74918095D01*
X108636666Y-75156190D02*
X108636666Y-74656190D01*
X108827142Y-74656190D01*
X108874761Y-74680000D01*
X108898571Y-74703809D01*
X108922380Y-74751428D01*
X108922380Y-74822857D01*
X108898571Y-74870476D01*
X108874761Y-74894285D01*
X108827142Y-74918095D01*
X108636666Y-74918095D01*
X109089047Y-75156190D02*
X109350952Y-74822857D01*
X109089047Y-74822857D02*
X109350952Y-75156190D01*
X109541428Y-75156190D02*
X109541428Y-74656190D01*
X109660476Y-74656190D01*
X109731904Y-74680000D01*
X109779523Y-74727619D01*
X109803333Y-74775238D01*
X109827142Y-74870476D01*
X109827142Y-74941904D01*
X109803333Y-75037142D01*
X109779523Y-75084761D01*
X109731904Y-75132380D01*
X109660476Y-75156190D01*
X109541428Y-75156190D01*
X108481904Y-77696190D02*
X108481904Y-77196190D01*
X108815238Y-77196190D02*
X108910476Y-77196190D01*
X108958095Y-77220000D01*
X109005714Y-77267619D01*
X109029523Y-77362857D01*
X109029523Y-77529523D01*
X109005714Y-77624761D01*
X108958095Y-77672380D01*
X108910476Y-77696190D01*
X108815238Y-77696190D01*
X108767619Y-77672380D01*
X108720000Y-77624761D01*
X108696190Y-77529523D01*
X108696190Y-77362857D01*
X108720000Y-77267619D01*
X108767619Y-77220000D01*
X108815238Y-77196190D01*
X109220000Y-77243809D02*
X109243809Y-77220000D01*
X109291428Y-77196190D01*
X109410476Y-77196190D01*
X109458095Y-77220000D01*
X109481904Y-77243809D01*
X109505714Y-77291428D01*
X109505714Y-77339047D01*
X109481904Y-77410476D01*
X109196190Y-77696190D01*
X109505714Y-77696190D01*
X109981904Y-77696190D02*
X109696190Y-77696190D01*
X109839047Y-77696190D02*
X109839047Y-77196190D01*
X109791428Y-77267619D01*
X109743809Y-77315238D01*
X109696190Y-77339047D01*
X108481904Y-80236190D02*
X108481904Y-79736190D01*
X108815238Y-79736190D02*
X108910476Y-79736190D01*
X108958095Y-79760000D01*
X109005714Y-79807619D01*
X109029523Y-79902857D01*
X109029523Y-80069523D01*
X109005714Y-80164761D01*
X108958095Y-80212380D01*
X108910476Y-80236190D01*
X108815238Y-80236190D01*
X108767619Y-80212380D01*
X108720000Y-80164761D01*
X108696190Y-80069523D01*
X108696190Y-79902857D01*
X108720000Y-79807619D01*
X108767619Y-79760000D01*
X108815238Y-79736190D01*
X109505714Y-80236190D02*
X109220000Y-80236190D01*
X109362857Y-80236190D02*
X109362857Y-79736190D01*
X109315238Y-79807619D01*
X109267619Y-79855238D01*
X109220000Y-79879047D01*
X109743809Y-80236190D02*
X109839047Y-80236190D01*
X109886666Y-80212380D01*
X109910476Y-80188571D01*
X109958095Y-80117142D01*
X109981904Y-80021904D01*
X109981904Y-79831428D01*
X109958095Y-79783809D01*
X109934285Y-79760000D01*
X109886666Y-79736190D01*
X109791428Y-79736190D01*
X109743809Y-79760000D01*
X109720000Y-79783809D01*
X109696190Y-79831428D01*
X109696190Y-79950476D01*
X109720000Y-79998095D01*
X109743809Y-80021904D01*
X109791428Y-80045714D01*
X109886666Y-80045714D01*
X109934285Y-80021904D01*
X109958095Y-79998095D01*
X109981904Y-79950476D01*
X108481904Y-82776190D02*
X108481904Y-82276190D01*
X108815238Y-82276190D02*
X108910476Y-82276190D01*
X108958095Y-82300000D01*
X109005714Y-82347619D01*
X109029523Y-82442857D01*
X109029523Y-82609523D01*
X109005714Y-82704761D01*
X108958095Y-82752380D01*
X108910476Y-82776190D01*
X108815238Y-82776190D01*
X108767619Y-82752380D01*
X108720000Y-82704761D01*
X108696190Y-82609523D01*
X108696190Y-82442857D01*
X108720000Y-82347619D01*
X108767619Y-82300000D01*
X108815238Y-82276190D01*
X109505714Y-82776190D02*
X109220000Y-82776190D01*
X109362857Y-82776190D02*
X109362857Y-82276190D01*
X109315238Y-82347619D01*
X109267619Y-82395238D01*
X109220000Y-82419047D01*
X109791428Y-82490476D02*
X109743809Y-82466666D01*
X109720000Y-82442857D01*
X109696190Y-82395238D01*
X109696190Y-82371428D01*
X109720000Y-82323809D01*
X109743809Y-82300000D01*
X109791428Y-82276190D01*
X109886666Y-82276190D01*
X109934285Y-82300000D01*
X109958095Y-82323809D01*
X109981904Y-82371428D01*
X109981904Y-82395238D01*
X109958095Y-82442857D01*
X109934285Y-82466666D01*
X109886666Y-82490476D01*
X109791428Y-82490476D01*
X109743809Y-82514285D01*
X109720000Y-82538095D01*
X109696190Y-82585714D01*
X109696190Y-82680952D01*
X109720000Y-82728571D01*
X109743809Y-82752380D01*
X109791428Y-82776190D01*
X109886666Y-82776190D01*
X109934285Y-82752380D01*
X109958095Y-82728571D01*
X109981904Y-82680952D01*
X109981904Y-82585714D01*
X109958095Y-82538095D01*
X109934285Y-82514285D01*
X109886666Y-82490476D01*
X108720000Y-85316190D02*
X108720000Y-84816190D01*
X109053333Y-84816190D02*
X109148571Y-84816190D01*
X109196190Y-84840000D01*
X109243809Y-84887619D01*
X109267619Y-84982857D01*
X109267619Y-85149523D01*
X109243809Y-85244761D01*
X109196190Y-85292380D01*
X109148571Y-85316190D01*
X109053333Y-85316190D01*
X109005714Y-85292380D01*
X108958095Y-85244761D01*
X108934285Y-85149523D01*
X108934285Y-84982857D01*
X108958095Y-84887619D01*
X109005714Y-84840000D01*
X109053333Y-84816190D01*
X109720000Y-84816190D02*
X109481904Y-84816190D01*
X109458095Y-85054285D01*
X109481904Y-85030476D01*
X109529523Y-85006666D01*
X109648571Y-85006666D01*
X109696190Y-85030476D01*
X109720000Y-85054285D01*
X109743809Y-85101904D01*
X109743809Y-85220952D01*
X109720000Y-85268571D01*
X109696190Y-85292380D01*
X109648571Y-85316190D01*
X109529523Y-85316190D01*
X109481904Y-85292380D01*
X109458095Y-85268571D01*
X108720000Y-87856190D02*
X108720000Y-87356190D01*
X109053333Y-87356190D02*
X109148571Y-87356190D01*
X109196190Y-87380000D01*
X109243809Y-87427619D01*
X109267619Y-87522857D01*
X109267619Y-87689523D01*
X109243809Y-87784761D01*
X109196190Y-87832380D01*
X109148571Y-87856190D01*
X109053333Y-87856190D01*
X109005714Y-87832380D01*
X108958095Y-87784761D01*
X108934285Y-87689523D01*
X108934285Y-87522857D01*
X108958095Y-87427619D01*
X109005714Y-87380000D01*
X109053333Y-87356190D01*
X109696190Y-87522857D02*
X109696190Y-87856190D01*
X109577142Y-87332380D02*
X109458095Y-87689523D01*
X109767619Y-87689523D01*
X108720000Y-90396190D02*
X108720000Y-89896190D01*
X109053333Y-89896190D02*
X109148571Y-89896190D01*
X109196190Y-89920000D01*
X109243809Y-89967619D01*
X109267619Y-90062857D01*
X109267619Y-90229523D01*
X109243809Y-90324761D01*
X109196190Y-90372380D01*
X109148571Y-90396190D01*
X109053333Y-90396190D01*
X109005714Y-90372380D01*
X108958095Y-90324761D01*
X108934285Y-90229523D01*
X108934285Y-90062857D01*
X108958095Y-89967619D01*
X109005714Y-89920000D01*
X109053333Y-89896190D01*
X109577142Y-89896190D02*
X109624761Y-89896190D01*
X109672380Y-89920000D01*
X109696190Y-89943809D01*
X109720000Y-89991428D01*
X109743809Y-90086666D01*
X109743809Y-90205714D01*
X109720000Y-90300952D01*
X109696190Y-90348571D01*
X109672380Y-90372380D01*
X109624761Y-90396190D01*
X109577142Y-90396190D01*
X109529523Y-90372380D01*
X109505714Y-90348571D01*
X109481904Y-90300952D01*
X109458095Y-90205714D01*
X109458095Y-90086666D01*
X109481904Y-89991428D01*
X109505714Y-89943809D01*
X109529523Y-89920000D01*
X109577142Y-89896190D01*
X108720000Y-92936190D02*
X108720000Y-92436190D01*
X109053333Y-92436190D02*
X109148571Y-92436190D01*
X109196190Y-92460000D01*
X109243809Y-92507619D01*
X109267619Y-92602857D01*
X109267619Y-92769523D01*
X109243809Y-92864761D01*
X109196190Y-92912380D01*
X109148571Y-92936190D01*
X109053333Y-92936190D01*
X109005714Y-92912380D01*
X108958095Y-92864761D01*
X108934285Y-92769523D01*
X108934285Y-92602857D01*
X108958095Y-92507619D01*
X109005714Y-92460000D01*
X109053333Y-92436190D01*
X109458095Y-92483809D02*
X109481904Y-92460000D01*
X109529523Y-92436190D01*
X109648571Y-92436190D01*
X109696190Y-92460000D01*
X109720000Y-92483809D01*
X109743809Y-92531428D01*
X109743809Y-92579047D01*
X109720000Y-92650476D01*
X109434285Y-92936190D01*
X109743809Y-92936190D01*
X108481904Y-95476190D02*
X108481904Y-94976190D01*
X108815238Y-94976190D02*
X108910476Y-94976190D01*
X108958095Y-95000000D01*
X109005714Y-95047619D01*
X109029523Y-95142857D01*
X109029523Y-95309523D01*
X109005714Y-95404761D01*
X108958095Y-95452380D01*
X108910476Y-95476190D01*
X108815238Y-95476190D01*
X108767619Y-95452380D01*
X108720000Y-95404761D01*
X108696190Y-95309523D01*
X108696190Y-95142857D01*
X108720000Y-95047619D01*
X108767619Y-95000000D01*
X108815238Y-94976190D01*
X109505714Y-95476190D02*
X109220000Y-95476190D01*
X109362857Y-95476190D02*
X109362857Y-94976190D01*
X109315238Y-95047619D01*
X109267619Y-95095238D01*
X109220000Y-95119047D01*
X109958095Y-94976190D02*
X109720000Y-94976190D01*
X109696190Y-95214285D01*
X109720000Y-95190476D01*
X109767619Y-95166666D01*
X109886666Y-95166666D01*
X109934285Y-95190476D01*
X109958095Y-95214285D01*
X109981904Y-95261904D01*
X109981904Y-95380952D01*
X109958095Y-95428571D01*
X109934285Y-95452380D01*
X109886666Y-95476190D01*
X109767619Y-95476190D01*
X109720000Y-95452380D01*
X109696190Y-95428571D01*
X108696190Y-100508571D02*
X108672380Y-100532380D01*
X108600952Y-100556190D01*
X108553333Y-100556190D01*
X108481904Y-100532380D01*
X108434285Y-100484761D01*
X108410476Y-100437142D01*
X108386666Y-100341904D01*
X108386666Y-100270476D01*
X108410476Y-100175238D01*
X108434285Y-100127619D01*
X108481904Y-100080000D01*
X108553333Y-100056190D01*
X108600952Y-100056190D01*
X108672380Y-100080000D01*
X108696190Y-100103809D01*
X108886666Y-100413333D02*
X109124761Y-100413333D01*
X108839047Y-100556190D02*
X109005714Y-100056190D01*
X109172380Y-100556190D01*
X109339047Y-100556190D02*
X109339047Y-100056190D01*
X109624761Y-100556190D01*
X109624761Y-100056190D01*
X110100952Y-100556190D02*
X109862857Y-100556190D01*
X109862857Y-100056190D01*
X108636666Y-103048571D02*
X108612857Y-103072380D01*
X108541428Y-103096190D01*
X108493809Y-103096190D01*
X108422380Y-103072380D01*
X108374761Y-103024761D01*
X108350952Y-102977142D01*
X108327142Y-102881904D01*
X108327142Y-102810476D01*
X108350952Y-102715238D01*
X108374761Y-102667619D01*
X108422380Y-102620000D01*
X108493809Y-102596190D01*
X108541428Y-102596190D01*
X108612857Y-102620000D01*
X108636666Y-102643809D01*
X108827142Y-102953333D02*
X109065238Y-102953333D01*
X108779523Y-103096190D02*
X108946190Y-102596190D01*
X109112857Y-103096190D01*
X109279523Y-103096190D02*
X109279523Y-102596190D01*
X109565238Y-103096190D01*
X109565238Y-102596190D01*
X109803333Y-103096190D02*
X109803333Y-102596190D01*
X109803333Y-102834285D02*
X110089047Y-102834285D01*
X110089047Y-103096190D02*
X110089047Y-102596190D01*
X102994666Y-95275333D02*
X103561333Y-95275333D01*
X103628000Y-95242000D01*
X103661333Y-95208666D01*
X103694666Y-95142000D01*
X103694666Y-95008666D01*
X103661333Y-94942000D01*
X103628000Y-94908666D01*
X103561333Y-94875333D01*
X102994666Y-94875333D01*
X103061333Y-94575333D02*
X103028000Y-94542000D01*
X102994666Y-94475333D01*
X102994666Y-94308666D01*
X103028000Y-94242000D01*
X103061333Y-94208666D01*
X103128000Y-94175333D01*
X103194666Y-94175333D01*
X103294666Y-94208666D01*
X103694666Y-94608666D01*
X103694666Y-94175333D01*
X97106666Y-77786666D02*
X97106666Y-77086666D01*
X97840000Y-77720000D02*
X97806666Y-77753333D01*
X97706666Y-77786666D01*
X97640000Y-77786666D01*
X97540000Y-77753333D01*
X97473333Y-77686666D01*
X97440000Y-77620000D01*
X97406666Y-77486666D01*
X97406666Y-77386666D01*
X97440000Y-77253333D01*
X97473333Y-77186666D01*
X97540000Y-77120000D01*
X97640000Y-77086666D01*
X97706666Y-77086666D01*
X97806666Y-77120000D01*
X97840000Y-77153333D01*
X98506666Y-77786666D02*
X98106666Y-77786666D01*
X98306666Y-77786666D02*
X98306666Y-77086666D01*
X98240000Y-77186666D01*
X98173333Y-77253333D01*
X98106666Y-77286666D01*
X93596666Y-95529333D02*
X94163333Y-95529333D01*
X94230000Y-95496000D01*
X94263333Y-95462666D01*
X94296666Y-95396000D01*
X94296666Y-95262666D01*
X94263333Y-95196000D01*
X94230000Y-95162666D01*
X94163333Y-95129333D01*
X93596666Y-95129333D01*
X94296666Y-94429333D02*
X94296666Y-94829333D01*
X94296666Y-94629333D02*
X93596666Y-94629333D01*
X93696666Y-94696000D01*
X93763333Y-94762666D01*
X93796666Y-94829333D01*
X90652666Y-102613666D02*
X90652666Y-103180333D01*
X90686000Y-103247000D01*
X90719333Y-103280333D01*
X90786000Y-103313666D01*
X90919333Y-103313666D01*
X90986000Y-103280333D01*
X91019333Y-103247000D01*
X91052666Y-103180333D01*
X91052666Y-102613666D01*
X91319333Y-102613666D02*
X91752666Y-102613666D01*
X91519333Y-102880333D01*
X91619333Y-102880333D01*
X91686000Y-102913666D01*
X91719333Y-102947000D01*
X91752666Y-103013666D01*
X91752666Y-103180333D01*
X91719333Y-103247000D01*
X91686000Y-103280333D01*
X91619333Y-103313666D01*
X91419333Y-103313666D01*
X91352666Y-103280333D01*
X91319333Y-103247000D01*
X98816333Y-105566000D02*
X98783000Y-105599333D01*
X98683000Y-105632666D01*
X98616333Y-105632666D01*
X98516333Y-105599333D01*
X98449666Y-105532666D01*
X98416333Y-105466000D01*
X98383000Y-105332666D01*
X98383000Y-105232666D01*
X98416333Y-105099333D01*
X98449666Y-105032666D01*
X98516333Y-104966000D01*
X98616333Y-104932666D01*
X98683000Y-104932666D01*
X98783000Y-104966000D01*
X98816333Y-104999333D01*
X99083000Y-104999333D02*
X99116333Y-104966000D01*
X99183000Y-104932666D01*
X99349666Y-104932666D01*
X99416333Y-104966000D01*
X99449666Y-104999333D01*
X99483000Y-105066000D01*
X99483000Y-105132666D01*
X99449666Y-105232666D01*
X99049666Y-105632666D01*
X99483000Y-105632666D01*
X101991333Y-105279000D02*
X101958000Y-105312333D01*
X101858000Y-105345666D01*
X101791333Y-105345666D01*
X101691333Y-105312333D01*
X101624666Y-105245666D01*
X101591333Y-105179000D01*
X101558000Y-105045666D01*
X101558000Y-104945666D01*
X101591333Y-104812333D01*
X101624666Y-104745666D01*
X101691333Y-104679000D01*
X101791333Y-104645666D01*
X101858000Y-104645666D01*
X101958000Y-104679000D01*
X101991333Y-104712333D01*
X102224666Y-104645666D02*
X102658000Y-104645666D01*
X102424666Y-104912333D01*
X102524666Y-104912333D01*
X102591333Y-104945666D01*
X102624666Y-104979000D01*
X102658000Y-105045666D01*
X102658000Y-105212333D01*
X102624666Y-105279000D01*
X102591333Y-105312333D01*
X102524666Y-105345666D01*
X102324666Y-105345666D01*
X102258000Y-105312333D01*
X102224666Y-105279000D01*
X99705333Y-95246000D02*
X99672000Y-95279333D01*
X99572000Y-95312666D01*
X99505333Y-95312666D01*
X99405333Y-95279333D01*
X99338666Y-95212666D01*
X99305333Y-95146000D01*
X99272000Y-95012666D01*
X99272000Y-94912666D01*
X99305333Y-94779333D01*
X99338666Y-94712666D01*
X99405333Y-94646000D01*
X99505333Y-94612666D01*
X99572000Y-94612666D01*
X99672000Y-94646000D01*
X99705333Y-94679333D01*
X100305333Y-94846000D02*
X100305333Y-95312666D01*
X100138666Y-94579333D02*
X99972000Y-95079333D01*
X100405333Y-95079333D01*
X88529333Y-90928000D02*
X88496000Y-90961333D01*
X88396000Y-90994666D01*
X88329333Y-90994666D01*
X88229333Y-90961333D01*
X88162666Y-90894666D01*
X88129333Y-90828000D01*
X88096000Y-90694666D01*
X88096000Y-90594666D01*
X88129333Y-90461333D01*
X88162666Y-90394666D01*
X88229333Y-90328000D01*
X88329333Y-90294666D01*
X88396000Y-90294666D01*
X88496000Y-90328000D01*
X88529333Y-90361333D01*
X89162666Y-90294666D02*
X88829333Y-90294666D01*
X88796000Y-90628000D01*
X88829333Y-90594666D01*
X88896000Y-90561333D01*
X89062666Y-90561333D01*
X89129333Y-90594666D01*
X89162666Y-90628000D01*
X89196000Y-90694666D01*
X89196000Y-90861333D01*
X89162666Y-90928000D01*
X89129333Y-90961333D01*
X89062666Y-90994666D01*
X88896000Y-90994666D01*
X88829333Y-90961333D01*
X88796000Y-90928000D01*
X88529333Y-95754000D02*
X88496000Y-95787333D01*
X88396000Y-95820666D01*
X88329333Y-95820666D01*
X88229333Y-95787333D01*
X88162666Y-95720666D01*
X88129333Y-95654000D01*
X88096000Y-95520666D01*
X88096000Y-95420666D01*
X88129333Y-95287333D01*
X88162666Y-95220666D01*
X88229333Y-95154000D01*
X88329333Y-95120666D01*
X88396000Y-95120666D01*
X88496000Y-95154000D01*
X88529333Y-95187333D01*
X89129333Y-95120666D02*
X88996000Y-95120666D01*
X88929333Y-95154000D01*
X88896000Y-95187333D01*
X88829333Y-95287333D01*
X88796000Y-95420666D01*
X88796000Y-95687333D01*
X88829333Y-95754000D01*
X88862666Y-95787333D01*
X88929333Y-95820666D01*
X89062666Y-95820666D01*
X89129333Y-95787333D01*
X89162666Y-95754000D01*
X89196000Y-95687333D01*
X89196000Y-95520666D01*
X89162666Y-95454000D01*
X89129333Y-95420666D01*
X89062666Y-95387333D01*
X88929333Y-95387333D01*
X88862666Y-95420666D01*
X88829333Y-95454000D01*
X88796000Y-95520666D01*
X93863333Y-105472666D02*
X93630000Y-105139333D01*
X93463333Y-105472666D02*
X93463333Y-104772666D01*
X93730000Y-104772666D01*
X93796666Y-104806000D01*
X93830000Y-104839333D01*
X93863333Y-104906000D01*
X93863333Y-105006000D01*
X93830000Y-105072666D01*
X93796666Y-105106000D01*
X93730000Y-105139333D01*
X93463333Y-105139333D01*
X94530000Y-105472666D02*
X94130000Y-105472666D01*
X94330000Y-105472666D02*
X94330000Y-104772666D01*
X94263333Y-104872666D01*
X94196666Y-104939333D01*
X94130000Y-104972666D01*
X88148333Y-105345666D02*
X87915000Y-105012333D01*
X87748333Y-105345666D02*
X87748333Y-104645666D01*
X88015000Y-104645666D01*
X88081666Y-104679000D01*
X88115000Y-104712333D01*
X88148333Y-104779000D01*
X88148333Y-104879000D01*
X88115000Y-104945666D01*
X88081666Y-104979000D01*
X88015000Y-105012333D01*
X87748333Y-105012333D01*
X88415000Y-104712333D02*
X88448333Y-104679000D01*
X88515000Y-104645666D01*
X88681666Y-104645666D01*
X88748333Y-104679000D01*
X88781666Y-104712333D01*
X88815000Y-104779000D01*
X88815000Y-104845666D01*
X88781666Y-104945666D01*
X88381666Y-105345666D01*
X88815000Y-105345666D01*
X86370333Y-105345666D02*
X86137000Y-105012333D01*
X85970333Y-105345666D02*
X85970333Y-104645666D01*
X86237000Y-104645666D01*
X86303666Y-104679000D01*
X86337000Y-104712333D01*
X86370333Y-104779000D01*
X86370333Y-104879000D01*
X86337000Y-104945666D01*
X86303666Y-104979000D01*
X86237000Y-105012333D01*
X85970333Y-105012333D01*
X86603666Y-104645666D02*
X87037000Y-104645666D01*
X86803666Y-104912333D01*
X86903666Y-104912333D01*
X86970333Y-104945666D01*
X87003666Y-104979000D01*
X87037000Y-105045666D01*
X87037000Y-105212333D01*
X87003666Y-105279000D01*
X86970333Y-105312333D01*
X86903666Y-105345666D01*
X86703666Y-105345666D01*
X86637000Y-105312333D01*
X86603666Y-105279000D01*
X95641333Y-105472666D02*
X95408000Y-105139333D01*
X95241333Y-105472666D02*
X95241333Y-104772666D01*
X95508000Y-104772666D01*
X95574666Y-104806000D01*
X95608000Y-104839333D01*
X95641333Y-104906000D01*
X95641333Y-105006000D01*
X95608000Y-105072666D01*
X95574666Y-105106000D01*
X95508000Y-105139333D01*
X95241333Y-105139333D01*
X96241333Y-105006000D02*
X96241333Y-105472666D01*
X96074666Y-104739333D02*
X95908000Y-105239333D01*
X96341333Y-105239333D01*
X106817333Y-97471666D02*
X106584000Y-97138333D01*
X106417333Y-97471666D02*
X106417333Y-96771666D01*
X106684000Y-96771666D01*
X106750666Y-96805000D01*
X106784000Y-96838333D01*
X106817333Y-96905000D01*
X106817333Y-97005000D01*
X106784000Y-97071666D01*
X106750666Y-97105000D01*
X106684000Y-97138333D01*
X106417333Y-97138333D01*
X107417333Y-96771666D02*
X107284000Y-96771666D01*
X107217333Y-96805000D01*
X107184000Y-96838333D01*
X107117333Y-96938333D01*
X107084000Y-97071666D01*
X107084000Y-97338333D01*
X107117333Y-97405000D01*
X107150666Y-97438333D01*
X107217333Y-97471666D01*
X107350666Y-97471666D01*
X107417333Y-97438333D01*
X107450666Y-97405000D01*
X107484000Y-97338333D01*
X107484000Y-97171666D01*
X107450666Y-97105000D01*
X107417333Y-97071666D01*
X107350666Y-97038333D01*
X107217333Y-97038333D01*
X107150666Y-97071666D01*
X107117333Y-97105000D01*
X107084000Y-97171666D01*
X91958333Y-100392666D02*
X91725000Y-100059333D01*
X91558333Y-100392666D02*
X91558333Y-99692666D01*
X91825000Y-99692666D01*
X91891666Y-99726000D01*
X91925000Y-99759333D01*
X91958333Y-99826000D01*
X91958333Y-99926000D01*
X91925000Y-99992666D01*
X91891666Y-100026000D01*
X91825000Y-100059333D01*
X91558333Y-100059333D01*
X92191666Y-99692666D02*
X92658333Y-99692666D01*
X92358333Y-100392666D01*
X99234666Y-98916333D02*
X99234666Y-99249666D01*
X99001333Y-98549666D02*
X99234666Y-98916333D01*
X99468000Y-98549666D01*
X100068000Y-99249666D02*
X99668000Y-99249666D01*
X99868000Y-99249666D02*
X99868000Y-98549666D01*
X99801333Y-98649666D01*
X99734666Y-98716333D01*
X99668000Y-98749666D01*
X105842666Y-104645666D02*
X105842666Y-105145666D01*
X105809333Y-105245666D01*
X105742666Y-105312333D01*
X105642666Y-105345666D01*
X105576000Y-105345666D01*
X106176000Y-105345666D02*
X106176000Y-104645666D01*
X106442666Y-104645666D01*
X106509333Y-104679000D01*
X106542666Y-104712333D01*
X106576000Y-104779000D01*
X106576000Y-104879000D01*
X106542666Y-104945666D01*
X106509333Y-104979000D01*
X106442666Y-105012333D01*
X106176000Y-105012333D01*
X107242666Y-105345666D02*
X106842666Y-105345666D01*
X107042666Y-105345666D02*
X107042666Y-104645666D01*
X106976000Y-104745666D01*
X106909333Y-104812333D01*
X106842666Y-104845666D01*
%LPC*%
D13*
X102515000Y-99822000D03*
X94515000Y-99822000D03*
D14*
X86360000Y-66040000D03*
D15*
X86360000Y-68580000D03*
X86360000Y-71120000D03*
X86360000Y-73660000D03*
X86360000Y-76200000D03*
X86360000Y-78740000D03*
X86360000Y-81280000D03*
X86360000Y-83820000D03*
X86360000Y-86360000D03*
X86360000Y-88900000D03*
X86360000Y-91440000D03*
X86360000Y-93980000D03*
X86360000Y-96520000D03*
X86360000Y-99060000D03*
X109220000Y-104140000D03*
X109220000Y-101600000D03*
X109220000Y-99060000D03*
X109220000Y-96520000D03*
X109220000Y-93980000D03*
X109220000Y-91440000D03*
X109220000Y-88900000D03*
X109220000Y-86360000D03*
X109220000Y-83820000D03*
X109220000Y-81280000D03*
X109220000Y-78740000D03*
X109220000Y-76200000D03*
X109220000Y-73660000D03*
X109220000Y-71120000D03*
X109220000Y-68580000D03*
X109220000Y-66040000D03*
G36*
G01*
X105133000Y-91546000D02*
X105433000Y-91546000D01*
G75*
G02*
X105583000Y-91696000I0J-150000D01*
G01*
X105583000Y-93346000D01*
G75*
G02*
X105433000Y-93496000I-150000J0D01*
G01*
X105133000Y-93496000D01*
G75*
G02*
X104983000Y-93346000I0J150000D01*
G01*
X104983000Y-91696000D01*
G75*
G02*
X105133000Y-91546000I150000J0D01*
G01*
G37*
G36*
G01*
X103863000Y-91546000D02*
X104163000Y-91546000D01*
G75*
G02*
X104313000Y-91696000I0J-150000D01*
G01*
X104313000Y-93346000D01*
G75*
G02*
X104163000Y-93496000I-150000J0D01*
G01*
X103863000Y-93496000D01*
G75*
G02*
X103713000Y-93346000I0J150000D01*
G01*
X103713000Y-91696000D01*
G75*
G02*
X103863000Y-91546000I150000J0D01*
G01*
G37*
G36*
G01*
X102593000Y-91546000D02*
X102893000Y-91546000D01*
G75*
G02*
X103043000Y-91696000I0J-150000D01*
G01*
X103043000Y-93346000D01*
G75*
G02*
X102893000Y-93496000I-150000J0D01*
G01*
X102593000Y-93496000D01*
G75*
G02*
X102443000Y-93346000I0J150000D01*
G01*
X102443000Y-91696000D01*
G75*
G02*
X102593000Y-91546000I150000J0D01*
G01*
G37*
G36*
G01*
X101323000Y-91546000D02*
X101623000Y-91546000D01*
G75*
G02*
X101773000Y-91696000I0J-150000D01*
G01*
X101773000Y-93346000D01*
G75*
G02*
X101623000Y-93496000I-150000J0D01*
G01*
X101323000Y-93496000D01*
G75*
G02*
X101173000Y-93346000I0J150000D01*
G01*
X101173000Y-91696000D01*
G75*
G02*
X101323000Y-91546000I150000J0D01*
G01*
G37*
G36*
G01*
X101323000Y-96496000D02*
X101623000Y-96496000D01*
G75*
G02*
X101773000Y-96646000I0J-150000D01*
G01*
X101773000Y-98296000D01*
G75*
G02*
X101623000Y-98446000I-150000J0D01*
G01*
X101323000Y-98446000D01*
G75*
G02*
X101173000Y-98296000I0J150000D01*
G01*
X101173000Y-96646000D01*
G75*
G02*
X101323000Y-96496000I150000J0D01*
G01*
G37*
G36*
G01*
X102593000Y-96496000D02*
X102893000Y-96496000D01*
G75*
G02*
X103043000Y-96646000I0J-150000D01*
G01*
X103043000Y-98296000D01*
G75*
G02*
X102893000Y-98446000I-150000J0D01*
G01*
X102593000Y-98446000D01*
G75*
G02*
X102443000Y-98296000I0J150000D01*
G01*
X102443000Y-96646000D01*
G75*
G02*
X102593000Y-96496000I150000J0D01*
G01*
G37*
G36*
G01*
X103863000Y-96496000D02*
X104163000Y-96496000D01*
G75*
G02*
X104313000Y-96646000I0J-150000D01*
G01*
X104313000Y-98296000D01*
G75*
G02*
X104163000Y-98446000I-150000J0D01*
G01*
X103863000Y-98446000D01*
G75*
G02*
X103713000Y-98296000I0J150000D01*
G01*
X103713000Y-96646000D01*
G75*
G02*
X103863000Y-96496000I150000J0D01*
G01*
G37*
G36*
G01*
X105133000Y-96496000D02*
X105433000Y-96496000D01*
G75*
G02*
X105583000Y-96646000I0J-150000D01*
G01*
X105583000Y-98296000D01*
G75*
G02*
X105433000Y-98446000I-150000J0D01*
G01*
X105133000Y-98446000D01*
G75*
G02*
X104983000Y-98296000I0J150000D01*
G01*
X104983000Y-96646000D01*
G75*
G02*
X105133000Y-96496000I150000J0D01*
G01*
G37*
D16*
X89290000Y-65400000D03*
X89290000Y-66670000D03*
X89290000Y-67940000D03*
X89290000Y-69210000D03*
X89290000Y-70480000D03*
X89290000Y-71750000D03*
X89290000Y-73020000D03*
X89290000Y-74290000D03*
X89290000Y-75560000D03*
X89290000Y-76830000D03*
X89290000Y-78100000D03*
X89290000Y-79370000D03*
X89290000Y-80640000D03*
X89290000Y-81910000D03*
X89290000Y-83180000D03*
X89290000Y-84450000D03*
X89290000Y-85720000D03*
X89290000Y-86990000D03*
X89290000Y-88260000D03*
X106290000Y-88260000D03*
X106290000Y-86990000D03*
X106290000Y-85720000D03*
X106290000Y-84450000D03*
X106290000Y-83180000D03*
X106290000Y-81910000D03*
X106290000Y-80640000D03*
X106290000Y-79370000D03*
X106290000Y-78100000D03*
X106290000Y-76830000D03*
X106290000Y-75560000D03*
X106290000Y-74290000D03*
X106290000Y-73020000D03*
X106290000Y-71750000D03*
X106290000Y-70480000D03*
X106290000Y-69210000D03*
X106290000Y-67940000D03*
X106290000Y-66670000D03*
X106290000Y-65400000D03*
D17*
X96790000Y-72900000D03*
X94955000Y-71065000D03*
X94955000Y-72900000D03*
X94955000Y-74735000D03*
X96790000Y-74735000D03*
X98625000Y-74735000D03*
X98625000Y-72900000D03*
X98625000Y-71065000D03*
X96790000Y-71065000D03*
D18*
X90170000Y-97696000D03*
X91440000Y-97696000D03*
X92710000Y-97696000D03*
X93980000Y-97696000D03*
X95250000Y-97696000D03*
X96520000Y-97696000D03*
X97790000Y-97696000D03*
X97790000Y-92296000D03*
X96520000Y-92296000D03*
X95250000Y-92296000D03*
X93980000Y-92296000D03*
X92710000Y-92296000D03*
X91440000Y-92296000D03*
X90170000Y-92296000D03*
D19*
X90236000Y-104097000D03*
X91186000Y-104097000D03*
X92136000Y-104097000D03*
X92136000Y-101897000D03*
X90236000Y-101897000D03*
X91186000Y-101897000D03*
G36*
G01*
X98608000Y-103648500D02*
X98608000Y-104123500D01*
G75*
G02*
X98370500Y-104361000I-237500J0D01*
G01*
X97770500Y-104361000D01*
G75*
G02*
X97533000Y-104123500I0J237500D01*
G01*
X97533000Y-103648500D01*
G75*
G02*
X97770500Y-103411000I237500J0D01*
G01*
X98370500Y-103411000D01*
G75*
G02*
X98608000Y-103648500I0J-237500D01*
G01*
G37*
G36*
G01*
X100333000Y-103648500D02*
X100333000Y-104123500D01*
G75*
G02*
X100095500Y-104361000I-237500J0D01*
G01*
X99495500Y-104361000D01*
G75*
G02*
X99258000Y-104123500I0J237500D01*
G01*
X99258000Y-103648500D01*
G75*
G02*
X99495500Y-103411000I237500J0D01*
G01*
X100095500Y-103411000D01*
G75*
G02*
X100333000Y-103648500I0J-237500D01*
G01*
G37*
G36*
G01*
X101870500Y-101470000D02*
X102345500Y-101470000D01*
G75*
G02*
X102583000Y-101707500I0J-237500D01*
G01*
X102583000Y-102307500D01*
G75*
G02*
X102345500Y-102545000I-237500J0D01*
G01*
X101870500Y-102545000D01*
G75*
G02*
X101633000Y-102307500I0J237500D01*
G01*
X101633000Y-101707500D01*
G75*
G02*
X101870500Y-101470000I237500J0D01*
G01*
G37*
G36*
G01*
X101870500Y-103195000D02*
X102345500Y-103195000D01*
G75*
G02*
X102583000Y-103432500I0J-237500D01*
G01*
X102583000Y-104032500D01*
G75*
G02*
X102345500Y-104270000I-237500J0D01*
G01*
X101870500Y-104270000D01*
G75*
G02*
X101633000Y-104032500I0J237500D01*
G01*
X101633000Y-103432500D01*
G75*
G02*
X101870500Y-103195000I237500J0D01*
G01*
G37*
G36*
G01*
X99584500Y-93101000D02*
X100059500Y-93101000D01*
G75*
G02*
X100297000Y-93338500I0J-237500D01*
G01*
X100297000Y-93938500D01*
G75*
G02*
X100059500Y-94176000I-237500J0D01*
G01*
X99584500Y-94176000D01*
G75*
G02*
X99347000Y-93938500I0J237500D01*
G01*
X99347000Y-93338500D01*
G75*
G02*
X99584500Y-93101000I237500J0D01*
G01*
G37*
G36*
G01*
X99584500Y-91376000D02*
X100059500Y-91376000D01*
G75*
G02*
X100297000Y-91613500I0J-237500D01*
G01*
X100297000Y-92213500D01*
G75*
G02*
X100059500Y-92451000I-237500J0D01*
G01*
X99584500Y-92451000D01*
G75*
G02*
X99347000Y-92213500I0J237500D01*
G01*
X99347000Y-91613500D01*
G75*
G02*
X99584500Y-91376000I237500J0D01*
G01*
G37*
G36*
G01*
X88408500Y-91376000D02*
X88883500Y-91376000D01*
G75*
G02*
X89121000Y-91613500I0J-237500D01*
G01*
X89121000Y-92213500D01*
G75*
G02*
X88883500Y-92451000I-237500J0D01*
G01*
X88408500Y-92451000D01*
G75*
G02*
X88171000Y-92213500I0J237500D01*
G01*
X88171000Y-91613500D01*
G75*
G02*
X88408500Y-91376000I237500J0D01*
G01*
G37*
G36*
G01*
X88408500Y-93101000D02*
X88883500Y-93101000D01*
G75*
G02*
X89121000Y-93338500I0J-237500D01*
G01*
X89121000Y-93938500D01*
G75*
G02*
X88883500Y-94176000I-237500J0D01*
G01*
X88408500Y-94176000D01*
G75*
G02*
X88171000Y-93938500I0J237500D01*
G01*
X88171000Y-93338500D01*
G75*
G02*
X88408500Y-93101000I237500J0D01*
G01*
G37*
G36*
G01*
X88883500Y-98936000D02*
X88408500Y-98936000D01*
G75*
G02*
X88171000Y-98698500I0J237500D01*
G01*
X88171000Y-98098500D01*
G75*
G02*
X88408500Y-97861000I237500J0D01*
G01*
X88883500Y-97861000D01*
G75*
G02*
X89121000Y-98098500I0J-237500D01*
G01*
X89121000Y-98698500D01*
G75*
G02*
X88883500Y-98936000I-237500J0D01*
G01*
G37*
G36*
G01*
X88883500Y-97211000D02*
X88408500Y-97211000D01*
G75*
G02*
X88171000Y-96973500I0J237500D01*
G01*
X88171000Y-96373500D01*
G75*
G02*
X88408500Y-96136000I237500J0D01*
G01*
X88883500Y-96136000D01*
G75*
G02*
X89121000Y-96373500I0J-237500D01*
G01*
X89121000Y-96973500D01*
G75*
G02*
X88883500Y-97211000I-237500J0D01*
G01*
G37*
G36*
G01*
X94217500Y-104397000D02*
X93742500Y-104397000D01*
G75*
G02*
X93505000Y-104159500I0J237500D01*
G01*
X93505000Y-103659500D01*
G75*
G02*
X93742500Y-103422000I237500J0D01*
G01*
X94217500Y-103422000D01*
G75*
G02*
X94455000Y-103659500I0J-237500D01*
G01*
X94455000Y-104159500D01*
G75*
G02*
X94217500Y-104397000I-237500J0D01*
G01*
G37*
G36*
G01*
X94217500Y-102572000D02*
X93742500Y-102572000D01*
G75*
G02*
X93505000Y-102334500I0J237500D01*
G01*
X93505000Y-101834500D01*
G75*
G02*
X93742500Y-101597000I237500J0D01*
G01*
X94217500Y-101597000D01*
G75*
G02*
X94455000Y-101834500I0J-237500D01*
G01*
X94455000Y-102334500D01*
G75*
G02*
X94217500Y-102572000I-237500J0D01*
G01*
G37*
G36*
G01*
X88502500Y-102445000D02*
X88027500Y-102445000D01*
G75*
G02*
X87790000Y-102207500I0J237500D01*
G01*
X87790000Y-101707500D01*
G75*
G02*
X88027500Y-101470000I237500J0D01*
G01*
X88502500Y-101470000D01*
G75*
G02*
X88740000Y-101707500I0J-237500D01*
G01*
X88740000Y-102207500D01*
G75*
G02*
X88502500Y-102445000I-237500J0D01*
G01*
G37*
G36*
G01*
X88502500Y-104270000D02*
X88027500Y-104270000D01*
G75*
G02*
X87790000Y-104032500I0J237500D01*
G01*
X87790000Y-103532500D01*
G75*
G02*
X88027500Y-103295000I237500J0D01*
G01*
X88502500Y-103295000D01*
G75*
G02*
X88740000Y-103532500I0J-237500D01*
G01*
X88740000Y-104032500D01*
G75*
G02*
X88502500Y-104270000I-237500J0D01*
G01*
G37*
G36*
G01*
X86249500Y-101470000D02*
X86724500Y-101470000D01*
G75*
G02*
X86962000Y-101707500I0J-237500D01*
G01*
X86962000Y-102207500D01*
G75*
G02*
X86724500Y-102445000I-237500J0D01*
G01*
X86249500Y-102445000D01*
G75*
G02*
X86012000Y-102207500I0J237500D01*
G01*
X86012000Y-101707500D01*
G75*
G02*
X86249500Y-101470000I237500J0D01*
G01*
G37*
G36*
G01*
X86249500Y-103295000D02*
X86724500Y-103295000D01*
G75*
G02*
X86962000Y-103532500I0J-237500D01*
G01*
X86962000Y-104032500D01*
G75*
G02*
X86724500Y-104270000I-237500J0D01*
G01*
X86249500Y-104270000D01*
G75*
G02*
X86012000Y-104032500I0J237500D01*
G01*
X86012000Y-103532500D01*
G75*
G02*
X86249500Y-103295000I237500J0D01*
G01*
G37*
G36*
G01*
X95520500Y-103422000D02*
X95995500Y-103422000D01*
G75*
G02*
X96233000Y-103659500I0J-237500D01*
G01*
X96233000Y-104159500D01*
G75*
G02*
X95995500Y-104397000I-237500J0D01*
G01*
X95520500Y-104397000D01*
G75*
G02*
X95283000Y-104159500I0J237500D01*
G01*
X95283000Y-103659500D01*
G75*
G02*
X95520500Y-103422000I237500J0D01*
G01*
G37*
G36*
G01*
X95520500Y-101597000D02*
X95995500Y-101597000D01*
G75*
G02*
X96233000Y-101834500I0J-237500D01*
G01*
X96233000Y-102334500D01*
G75*
G02*
X95995500Y-102572000I-237500J0D01*
G01*
X95520500Y-102572000D01*
G75*
G02*
X95283000Y-102334500I0J237500D01*
G01*
X95283000Y-101834500D01*
G75*
G02*
X95520500Y-101597000I237500J0D01*
G01*
G37*
G36*
G01*
X107171500Y-98762000D02*
X106696500Y-98762000D01*
G75*
G02*
X106459000Y-98524500I0J237500D01*
G01*
X106459000Y-98024500D01*
G75*
G02*
X106696500Y-97787000I237500J0D01*
G01*
X107171500Y-97787000D01*
G75*
G02*
X107409000Y-98024500I0J-237500D01*
G01*
X107409000Y-98524500D01*
G75*
G02*
X107171500Y-98762000I-237500J0D01*
G01*
G37*
G36*
G01*
X107171500Y-100587000D02*
X106696500Y-100587000D01*
G75*
G02*
X106459000Y-100349500I0J237500D01*
G01*
X106459000Y-99849500D01*
G75*
G02*
X106696500Y-99612000I237500J0D01*
G01*
X107171500Y-99612000D01*
G75*
G02*
X107409000Y-99849500I0J-237500D01*
G01*
X107409000Y-100349500D01*
G75*
G02*
X107171500Y-100587000I-237500J0D01*
G01*
G37*
G36*
G01*
X91062000Y-99838500D02*
X91062000Y-100313500D01*
G75*
G02*
X90824500Y-100551000I-237500J0D01*
G01*
X90324500Y-100551000D01*
G75*
G02*
X90087000Y-100313500I0J237500D01*
G01*
X90087000Y-99838500D01*
G75*
G02*
X90324500Y-99601000I237500J0D01*
G01*
X90824500Y-99601000D01*
G75*
G02*
X91062000Y-99838500I0J-237500D01*
G01*
G37*
G36*
G01*
X89237000Y-99838500D02*
X89237000Y-100313500D01*
G75*
G02*
X88999500Y-100551000I-237500J0D01*
G01*
X88499500Y-100551000D01*
G75*
G02*
X88262000Y-100313500I0J237500D01*
G01*
X88262000Y-99838500D01*
G75*
G02*
X88499500Y-99601000I237500J0D01*
G01*
X88999500Y-99601000D01*
G75*
G02*
X89237000Y-99838500I0J-237500D01*
G01*
G37*
D20*
X100033000Y-100242000D03*
X97833000Y-100242000D03*
X97833000Y-101942000D03*
X100033000Y-101942000D03*
D11*
G36*
X107176000Y-103020000D02*
G01*
X107176000Y-103520000D01*
X107175398Y-103520000D01*
X107175398Y-103544534D01*
X107170588Y-103593365D01*
X107161016Y-103641490D01*
X107146772Y-103688445D01*
X107127995Y-103733778D01*
X107104864Y-103777051D01*
X107077604Y-103817850D01*
X107046476Y-103855779D01*
X107011779Y-103890476D01*
X106973850Y-103921604D01*
X106933051Y-103948864D01*
X106889778Y-103971995D01*
X106844445Y-103990772D01*
X106797490Y-104005016D01*
X106749365Y-104014588D01*
X106700534Y-104019398D01*
X106676000Y-104019398D01*
X106676000Y-104020000D01*
X106176000Y-104020000D01*
X106176000Y-104019398D01*
X106151466Y-104019398D01*
X106102635Y-104014588D01*
X106054510Y-104005016D01*
X106007555Y-103990772D01*
X105962222Y-103971995D01*
X105918949Y-103948864D01*
X105878150Y-103921604D01*
X105840221Y-103890476D01*
X105805524Y-103855779D01*
X105774396Y-103817850D01*
X105747136Y-103777051D01*
X105724005Y-103733778D01*
X105705228Y-103688445D01*
X105690984Y-103641490D01*
X105681412Y-103593365D01*
X105676602Y-103544534D01*
X105676602Y-103520000D01*
X105676000Y-103520000D01*
X105676000Y-103020000D01*
X107176000Y-103020000D01*
G37*
G36*
X105676602Y-102220000D02*
G01*
X105676602Y-102195466D01*
X105681412Y-102146635D01*
X105690984Y-102098510D01*
X105705228Y-102051555D01*
X105724005Y-102006222D01*
X105747136Y-101962949D01*
X105774396Y-101922150D01*
X105805524Y-101884221D01*
X105840221Y-101849524D01*
X105878150Y-101818396D01*
X105918949Y-101791136D01*
X105962222Y-101768005D01*
X106007555Y-101749228D01*
X106054510Y-101734984D01*
X106102635Y-101725412D01*
X106151466Y-101720602D01*
X106176000Y-101720602D01*
X106176000Y-101720000D01*
X106676000Y-101720000D01*
X106676000Y-101720602D01*
X106700534Y-101720602D01*
X106749365Y-101725412D01*
X106797490Y-101734984D01*
X106844445Y-101749228D01*
X106889778Y-101768005D01*
X106933051Y-101791136D01*
X106973850Y-101818396D01*
X107011779Y-101849524D01*
X107046476Y-101884221D01*
X107077604Y-101922150D01*
X107104864Y-101962949D01*
X107127995Y-102006222D01*
X107146772Y-102051555D01*
X107161016Y-102098510D01*
X107170588Y-102146635D01*
X107175398Y-102195466D01*
X107175398Y-102220000D01*
X107176000Y-102220000D01*
X107176000Y-102720000D01*
X105676000Y-102720000D01*
X105676000Y-102220000D01*
X105676602Y-102220000D01*
G37*
M02*
