G04 #@! TF.GenerationSoftware,KiCad,Pcbnew,(5.1.10)-1*
G04 #@! TF.CreationDate,2021-08-06T13:08:38+02:00*
G04 #@! TF.ProjectId,esp32,65737033-322e-46b6-9963-61645f706362,rev?*
G04 #@! TF.SameCoordinates,Original*
G04 #@! TF.FileFunction,Soldermask,Top*
G04 #@! TF.FilePolarity,Negative*
%FSLAX46Y46*%
G04 Gerber Fmt 4.6, Leading zero omitted, Abs format (unit mm)*
G04 Created by KiCad (PCBNEW (5.1.10)-1) date 2021-08-06 13:08:38*
%MOMM*%
%LPD*%
G01*
G04 APERTURE LIST*
%ADD10C,1.000000*%
%ADD11R,1.700000X1.700000*%
%ADD12O,1.700000X1.700000*%
%ADD13C,0.100000*%
%ADD14R,2.000000X0.900000*%
%ADD15R,1.330000X1.330000*%
%ADD16R,0.650000X1.500000*%
%ADD17R,0.750000X0.700000*%
%ADD18R,0.650000X1.060000*%
G04 APERTURE END LIST*
D10*
X102515000Y-99822000D03*
X94515000Y-99822000D03*
D11*
X86360000Y-66040000D03*
D12*
X86360000Y-68580000D03*
X86360000Y-71120000D03*
X86360000Y-73660000D03*
X86360000Y-76200000D03*
X86360000Y-78740000D03*
X86360000Y-81280000D03*
X86360000Y-83820000D03*
X86360000Y-86360000D03*
X86360000Y-88900000D03*
X86360000Y-91440000D03*
X86360000Y-93980000D03*
X86360000Y-96520000D03*
X86360000Y-99060000D03*
X109220000Y-104140000D03*
X109220000Y-101600000D03*
X109220000Y-99060000D03*
X109220000Y-96520000D03*
X109220000Y-93980000D03*
X109220000Y-91440000D03*
X109220000Y-88900000D03*
X109220000Y-86360000D03*
X109220000Y-83820000D03*
X109220000Y-81280000D03*
X109220000Y-78740000D03*
X109220000Y-76200000D03*
X109220000Y-73660000D03*
X109220000Y-71120000D03*
X109220000Y-68580000D03*
X109220000Y-66040000D03*
D13*
G36*
X105676000Y-102466000D02*
G01*
X105676000Y-101966000D01*
X105676602Y-101966000D01*
X105676602Y-101941466D01*
X105681412Y-101892635D01*
X105690984Y-101844510D01*
X105705228Y-101797555D01*
X105724005Y-101752222D01*
X105747136Y-101708949D01*
X105774396Y-101668150D01*
X105805524Y-101630221D01*
X105840221Y-101595524D01*
X105878150Y-101564396D01*
X105918949Y-101537136D01*
X105962222Y-101514005D01*
X106007555Y-101495228D01*
X106054510Y-101480984D01*
X106102635Y-101471412D01*
X106151466Y-101466602D01*
X106176000Y-101466602D01*
X106176000Y-101466000D01*
X106676000Y-101466000D01*
X106676000Y-101466602D01*
X106700534Y-101466602D01*
X106749365Y-101471412D01*
X106797490Y-101480984D01*
X106844445Y-101495228D01*
X106889778Y-101514005D01*
X106933051Y-101537136D01*
X106973850Y-101564396D01*
X107011779Y-101595524D01*
X107046476Y-101630221D01*
X107077604Y-101668150D01*
X107104864Y-101708949D01*
X107127995Y-101752222D01*
X107146772Y-101797555D01*
X107161016Y-101844510D01*
X107170588Y-101892635D01*
X107175398Y-101941466D01*
X107175398Y-101966000D01*
X107176000Y-101966000D01*
X107176000Y-102466000D01*
X105676000Y-102466000D01*
G37*
G36*
X107175398Y-103266000D02*
G01*
X107175398Y-103290534D01*
X107170588Y-103339365D01*
X107161016Y-103387490D01*
X107146772Y-103434445D01*
X107127995Y-103479778D01*
X107104864Y-103523051D01*
X107077604Y-103563850D01*
X107046476Y-103601779D01*
X107011779Y-103636476D01*
X106973850Y-103667604D01*
X106933051Y-103694864D01*
X106889778Y-103717995D01*
X106844445Y-103736772D01*
X106797490Y-103751016D01*
X106749365Y-103760588D01*
X106700534Y-103765398D01*
X106676000Y-103765398D01*
X106676000Y-103766000D01*
X106176000Y-103766000D01*
X106176000Y-103765398D01*
X106151466Y-103765398D01*
X106102635Y-103760588D01*
X106054510Y-103751016D01*
X106007555Y-103736772D01*
X105962222Y-103717995D01*
X105918949Y-103694864D01*
X105878150Y-103667604D01*
X105840221Y-103636476D01*
X105805524Y-103601779D01*
X105774396Y-103563850D01*
X105747136Y-103523051D01*
X105724005Y-103479778D01*
X105705228Y-103434445D01*
X105690984Y-103387490D01*
X105681412Y-103339365D01*
X105676602Y-103290534D01*
X105676602Y-103266000D01*
X105676000Y-103266000D01*
X105676000Y-102766000D01*
X107176000Y-102766000D01*
X107176000Y-103266000D01*
X107175398Y-103266000D01*
G37*
G36*
G01*
X105133000Y-91546000D02*
X105433000Y-91546000D01*
G75*
G02*
X105583000Y-91696000I0J-150000D01*
G01*
X105583000Y-93346000D01*
G75*
G02*
X105433000Y-93496000I-150000J0D01*
G01*
X105133000Y-93496000D01*
G75*
G02*
X104983000Y-93346000I0J150000D01*
G01*
X104983000Y-91696000D01*
G75*
G02*
X105133000Y-91546000I150000J0D01*
G01*
G37*
G36*
G01*
X103863000Y-91546000D02*
X104163000Y-91546000D01*
G75*
G02*
X104313000Y-91696000I0J-150000D01*
G01*
X104313000Y-93346000D01*
G75*
G02*
X104163000Y-93496000I-150000J0D01*
G01*
X103863000Y-93496000D01*
G75*
G02*
X103713000Y-93346000I0J150000D01*
G01*
X103713000Y-91696000D01*
G75*
G02*
X103863000Y-91546000I150000J0D01*
G01*
G37*
G36*
G01*
X102593000Y-91546000D02*
X102893000Y-91546000D01*
G75*
G02*
X103043000Y-91696000I0J-150000D01*
G01*
X103043000Y-93346000D01*
G75*
G02*
X102893000Y-93496000I-150000J0D01*
G01*
X102593000Y-93496000D01*
G75*
G02*
X102443000Y-93346000I0J150000D01*
G01*
X102443000Y-91696000D01*
G75*
G02*
X102593000Y-91546000I150000J0D01*
G01*
G37*
G36*
G01*
X101323000Y-91546000D02*
X101623000Y-91546000D01*
G75*
G02*
X101773000Y-91696000I0J-150000D01*
G01*
X101773000Y-93346000D01*
G75*
G02*
X101623000Y-93496000I-150000J0D01*
G01*
X101323000Y-93496000D01*
G75*
G02*
X101173000Y-93346000I0J150000D01*
G01*
X101173000Y-91696000D01*
G75*
G02*
X101323000Y-91546000I150000J0D01*
G01*
G37*
G36*
G01*
X101323000Y-96496000D02*
X101623000Y-96496000D01*
G75*
G02*
X101773000Y-96646000I0J-150000D01*
G01*
X101773000Y-98296000D01*
G75*
G02*
X101623000Y-98446000I-150000J0D01*
G01*
X101323000Y-98446000D01*
G75*
G02*
X101173000Y-98296000I0J150000D01*
G01*
X101173000Y-96646000D01*
G75*
G02*
X101323000Y-96496000I150000J0D01*
G01*
G37*
G36*
G01*
X102593000Y-96496000D02*
X102893000Y-96496000D01*
G75*
G02*
X103043000Y-96646000I0J-150000D01*
G01*
X103043000Y-98296000D01*
G75*
G02*
X102893000Y-98446000I-150000J0D01*
G01*
X102593000Y-98446000D01*
G75*
G02*
X102443000Y-98296000I0J150000D01*
G01*
X102443000Y-96646000D01*
G75*
G02*
X102593000Y-96496000I150000J0D01*
G01*
G37*
G36*
G01*
X103863000Y-96496000D02*
X104163000Y-96496000D01*
G75*
G02*
X104313000Y-96646000I0J-150000D01*
G01*
X104313000Y-98296000D01*
G75*
G02*
X104163000Y-98446000I-150000J0D01*
G01*
X103863000Y-98446000D01*
G75*
G02*
X103713000Y-98296000I0J150000D01*
G01*
X103713000Y-96646000D01*
G75*
G02*
X103863000Y-96496000I150000J0D01*
G01*
G37*
G36*
G01*
X105133000Y-96496000D02*
X105433000Y-96496000D01*
G75*
G02*
X105583000Y-96646000I0J-150000D01*
G01*
X105583000Y-98296000D01*
G75*
G02*
X105433000Y-98446000I-150000J0D01*
G01*
X105133000Y-98446000D01*
G75*
G02*
X104983000Y-98296000I0J150000D01*
G01*
X104983000Y-96646000D01*
G75*
G02*
X105133000Y-96496000I150000J0D01*
G01*
G37*
D14*
X89290000Y-65400000D03*
X89290000Y-66670000D03*
X89290000Y-67940000D03*
X89290000Y-69210000D03*
X89290000Y-70480000D03*
X89290000Y-71750000D03*
X89290000Y-73020000D03*
X89290000Y-74290000D03*
X89290000Y-75560000D03*
X89290000Y-76830000D03*
X89290000Y-78100000D03*
X89290000Y-79370000D03*
X89290000Y-80640000D03*
X89290000Y-81910000D03*
X89290000Y-83180000D03*
X89290000Y-84450000D03*
X89290000Y-85720000D03*
X89290000Y-86990000D03*
X89290000Y-88260000D03*
X106290000Y-88260000D03*
X106290000Y-86990000D03*
X106290000Y-85720000D03*
X106290000Y-84450000D03*
X106290000Y-83180000D03*
X106290000Y-81910000D03*
X106290000Y-80640000D03*
X106290000Y-79370000D03*
X106290000Y-78100000D03*
X106290000Y-76830000D03*
X106290000Y-75560000D03*
X106290000Y-74290000D03*
X106290000Y-73020000D03*
X106290000Y-71750000D03*
X106290000Y-70480000D03*
X106290000Y-69210000D03*
X106290000Y-67940000D03*
X106290000Y-66670000D03*
X106290000Y-65400000D03*
D15*
X96790000Y-72900000D03*
X94955000Y-71065000D03*
X94955000Y-72900000D03*
X94955000Y-74735000D03*
X96790000Y-74735000D03*
X98625000Y-74735000D03*
X98625000Y-72900000D03*
X98625000Y-71065000D03*
X96790000Y-71065000D03*
D16*
X90170000Y-97696000D03*
X91440000Y-97696000D03*
X92710000Y-97696000D03*
X93980000Y-97696000D03*
X95250000Y-97696000D03*
X96520000Y-97696000D03*
X97790000Y-97696000D03*
X97790000Y-92296000D03*
X96520000Y-92296000D03*
X95250000Y-92296000D03*
X93980000Y-92296000D03*
X92710000Y-92296000D03*
X91440000Y-92296000D03*
X90170000Y-92296000D03*
D17*
X99608000Y-100592000D03*
X98258000Y-100592000D03*
X98258000Y-101592000D03*
X99608000Y-101592000D03*
D18*
X90236000Y-104097000D03*
X91186000Y-104097000D03*
X92136000Y-104097000D03*
X92136000Y-101897000D03*
X90236000Y-101897000D03*
X91186000Y-101897000D03*
G36*
G01*
X98608000Y-103648500D02*
X98608000Y-104123500D01*
G75*
G02*
X98370500Y-104361000I-237500J0D01*
G01*
X97770500Y-104361000D01*
G75*
G02*
X97533000Y-104123500I0J237500D01*
G01*
X97533000Y-103648500D01*
G75*
G02*
X97770500Y-103411000I237500J0D01*
G01*
X98370500Y-103411000D01*
G75*
G02*
X98608000Y-103648500I0J-237500D01*
G01*
G37*
G36*
G01*
X100333000Y-103648500D02*
X100333000Y-104123500D01*
G75*
G02*
X100095500Y-104361000I-237500J0D01*
G01*
X99495500Y-104361000D01*
G75*
G02*
X99258000Y-104123500I0J237500D01*
G01*
X99258000Y-103648500D01*
G75*
G02*
X99495500Y-103411000I237500J0D01*
G01*
X100095500Y-103411000D01*
G75*
G02*
X100333000Y-103648500I0J-237500D01*
G01*
G37*
G36*
G01*
X101870500Y-101470000D02*
X102345500Y-101470000D01*
G75*
G02*
X102583000Y-101707500I0J-237500D01*
G01*
X102583000Y-102307500D01*
G75*
G02*
X102345500Y-102545000I-237500J0D01*
G01*
X101870500Y-102545000D01*
G75*
G02*
X101633000Y-102307500I0J237500D01*
G01*
X101633000Y-101707500D01*
G75*
G02*
X101870500Y-101470000I237500J0D01*
G01*
G37*
G36*
G01*
X101870500Y-103195000D02*
X102345500Y-103195000D01*
G75*
G02*
X102583000Y-103432500I0J-237500D01*
G01*
X102583000Y-104032500D01*
G75*
G02*
X102345500Y-104270000I-237500J0D01*
G01*
X101870500Y-104270000D01*
G75*
G02*
X101633000Y-104032500I0J237500D01*
G01*
X101633000Y-103432500D01*
G75*
G02*
X101870500Y-103195000I237500J0D01*
G01*
G37*
G36*
G01*
X99584500Y-93101000D02*
X100059500Y-93101000D01*
G75*
G02*
X100297000Y-93338500I0J-237500D01*
G01*
X100297000Y-93938500D01*
G75*
G02*
X100059500Y-94176000I-237500J0D01*
G01*
X99584500Y-94176000D01*
G75*
G02*
X99347000Y-93938500I0J237500D01*
G01*
X99347000Y-93338500D01*
G75*
G02*
X99584500Y-93101000I237500J0D01*
G01*
G37*
G36*
G01*
X99584500Y-91376000D02*
X100059500Y-91376000D01*
G75*
G02*
X100297000Y-91613500I0J-237500D01*
G01*
X100297000Y-92213500D01*
G75*
G02*
X100059500Y-92451000I-237500J0D01*
G01*
X99584500Y-92451000D01*
G75*
G02*
X99347000Y-92213500I0J237500D01*
G01*
X99347000Y-91613500D01*
G75*
G02*
X99584500Y-91376000I237500J0D01*
G01*
G37*
G36*
G01*
X88408500Y-91376000D02*
X88883500Y-91376000D01*
G75*
G02*
X89121000Y-91613500I0J-237500D01*
G01*
X89121000Y-92213500D01*
G75*
G02*
X88883500Y-92451000I-237500J0D01*
G01*
X88408500Y-92451000D01*
G75*
G02*
X88171000Y-92213500I0J237500D01*
G01*
X88171000Y-91613500D01*
G75*
G02*
X88408500Y-91376000I237500J0D01*
G01*
G37*
G36*
G01*
X88408500Y-93101000D02*
X88883500Y-93101000D01*
G75*
G02*
X89121000Y-93338500I0J-237500D01*
G01*
X89121000Y-93938500D01*
G75*
G02*
X88883500Y-94176000I-237500J0D01*
G01*
X88408500Y-94176000D01*
G75*
G02*
X88171000Y-93938500I0J237500D01*
G01*
X88171000Y-93338500D01*
G75*
G02*
X88408500Y-93101000I237500J0D01*
G01*
G37*
G36*
G01*
X88883500Y-98936000D02*
X88408500Y-98936000D01*
G75*
G02*
X88171000Y-98698500I0J237500D01*
G01*
X88171000Y-98098500D01*
G75*
G02*
X88408500Y-97861000I237500J0D01*
G01*
X88883500Y-97861000D01*
G75*
G02*
X89121000Y-98098500I0J-237500D01*
G01*
X89121000Y-98698500D01*
G75*
G02*
X88883500Y-98936000I-237500J0D01*
G01*
G37*
G36*
G01*
X88883500Y-97211000D02*
X88408500Y-97211000D01*
G75*
G02*
X88171000Y-96973500I0J237500D01*
G01*
X88171000Y-96373500D01*
G75*
G02*
X88408500Y-96136000I237500J0D01*
G01*
X88883500Y-96136000D01*
G75*
G02*
X89121000Y-96373500I0J-237500D01*
G01*
X89121000Y-96973500D01*
G75*
G02*
X88883500Y-97211000I-237500J0D01*
G01*
G37*
G36*
G01*
X94217500Y-104397000D02*
X93742500Y-104397000D01*
G75*
G02*
X93505000Y-104159500I0J237500D01*
G01*
X93505000Y-103659500D01*
G75*
G02*
X93742500Y-103422000I237500J0D01*
G01*
X94217500Y-103422000D01*
G75*
G02*
X94455000Y-103659500I0J-237500D01*
G01*
X94455000Y-104159500D01*
G75*
G02*
X94217500Y-104397000I-237500J0D01*
G01*
G37*
G36*
G01*
X94217500Y-102572000D02*
X93742500Y-102572000D01*
G75*
G02*
X93505000Y-102334500I0J237500D01*
G01*
X93505000Y-101834500D01*
G75*
G02*
X93742500Y-101597000I237500J0D01*
G01*
X94217500Y-101597000D01*
G75*
G02*
X94455000Y-101834500I0J-237500D01*
G01*
X94455000Y-102334500D01*
G75*
G02*
X94217500Y-102572000I-237500J0D01*
G01*
G37*
G36*
G01*
X88502500Y-102445000D02*
X88027500Y-102445000D01*
G75*
G02*
X87790000Y-102207500I0J237500D01*
G01*
X87790000Y-101707500D01*
G75*
G02*
X88027500Y-101470000I237500J0D01*
G01*
X88502500Y-101470000D01*
G75*
G02*
X88740000Y-101707500I0J-237500D01*
G01*
X88740000Y-102207500D01*
G75*
G02*
X88502500Y-102445000I-237500J0D01*
G01*
G37*
G36*
G01*
X88502500Y-104270000D02*
X88027500Y-104270000D01*
G75*
G02*
X87790000Y-104032500I0J237500D01*
G01*
X87790000Y-103532500D01*
G75*
G02*
X88027500Y-103295000I237500J0D01*
G01*
X88502500Y-103295000D01*
G75*
G02*
X88740000Y-103532500I0J-237500D01*
G01*
X88740000Y-104032500D01*
G75*
G02*
X88502500Y-104270000I-237500J0D01*
G01*
G37*
G36*
G01*
X86249500Y-101470000D02*
X86724500Y-101470000D01*
G75*
G02*
X86962000Y-101707500I0J-237500D01*
G01*
X86962000Y-102207500D01*
G75*
G02*
X86724500Y-102445000I-237500J0D01*
G01*
X86249500Y-102445000D01*
G75*
G02*
X86012000Y-102207500I0J237500D01*
G01*
X86012000Y-101707500D01*
G75*
G02*
X86249500Y-101470000I237500J0D01*
G01*
G37*
G36*
G01*
X86249500Y-103295000D02*
X86724500Y-103295000D01*
G75*
G02*
X86962000Y-103532500I0J-237500D01*
G01*
X86962000Y-104032500D01*
G75*
G02*
X86724500Y-104270000I-237500J0D01*
G01*
X86249500Y-104270000D01*
G75*
G02*
X86012000Y-104032500I0J237500D01*
G01*
X86012000Y-103532500D01*
G75*
G02*
X86249500Y-103295000I237500J0D01*
G01*
G37*
G36*
G01*
X95520500Y-103422000D02*
X95995500Y-103422000D01*
G75*
G02*
X96233000Y-103659500I0J-237500D01*
G01*
X96233000Y-104159500D01*
G75*
G02*
X95995500Y-104397000I-237500J0D01*
G01*
X95520500Y-104397000D01*
G75*
G02*
X95283000Y-104159500I0J237500D01*
G01*
X95283000Y-103659500D01*
G75*
G02*
X95520500Y-103422000I237500J0D01*
G01*
G37*
G36*
G01*
X95520500Y-101597000D02*
X95995500Y-101597000D01*
G75*
G02*
X96233000Y-101834500I0J-237500D01*
G01*
X96233000Y-102334500D01*
G75*
G02*
X95995500Y-102572000I-237500J0D01*
G01*
X95520500Y-102572000D01*
G75*
G02*
X95283000Y-102334500I0J237500D01*
G01*
X95283000Y-101834500D01*
G75*
G02*
X95520500Y-101597000I237500J0D01*
G01*
G37*
G36*
G01*
X107425500Y-94110000D02*
X106950500Y-94110000D01*
G75*
G02*
X106713000Y-93872500I0J237500D01*
G01*
X106713000Y-93372500D01*
G75*
G02*
X106950500Y-93135000I237500J0D01*
G01*
X107425500Y-93135000D01*
G75*
G02*
X107663000Y-93372500I0J-237500D01*
G01*
X107663000Y-93872500D01*
G75*
G02*
X107425500Y-94110000I-237500J0D01*
G01*
G37*
G36*
G01*
X107425500Y-92285000D02*
X106950500Y-92285000D01*
G75*
G02*
X106713000Y-92047500I0J237500D01*
G01*
X106713000Y-91547500D01*
G75*
G02*
X106950500Y-91310000I237500J0D01*
G01*
X107425500Y-91310000D01*
G75*
G02*
X107663000Y-91547500I0J-237500D01*
G01*
X107663000Y-92047500D01*
G75*
G02*
X107425500Y-92285000I-237500J0D01*
G01*
G37*
G36*
G01*
X104377500Y-102445000D02*
X103902500Y-102445000D01*
G75*
G02*
X103665000Y-102207500I0J237500D01*
G01*
X103665000Y-101707500D01*
G75*
G02*
X103902500Y-101470000I237500J0D01*
G01*
X104377500Y-101470000D01*
G75*
G02*
X104615000Y-101707500I0J-237500D01*
G01*
X104615000Y-102207500D01*
G75*
G02*
X104377500Y-102445000I-237500J0D01*
G01*
G37*
G36*
G01*
X104377500Y-104270000D02*
X103902500Y-104270000D01*
G75*
G02*
X103665000Y-104032500I0J237500D01*
G01*
X103665000Y-103532500D01*
G75*
G02*
X103902500Y-103295000I237500J0D01*
G01*
X104377500Y-103295000D01*
G75*
G02*
X104615000Y-103532500I0J-237500D01*
G01*
X104615000Y-104032500D01*
G75*
G02*
X104377500Y-104270000I-237500J0D01*
G01*
G37*
G36*
G01*
X91062000Y-99838500D02*
X91062000Y-100313500D01*
G75*
G02*
X90824500Y-100551000I-237500J0D01*
G01*
X90324500Y-100551000D01*
G75*
G02*
X90087000Y-100313500I0J237500D01*
G01*
X90087000Y-99838500D01*
G75*
G02*
X90324500Y-99601000I237500J0D01*
G01*
X90824500Y-99601000D01*
G75*
G02*
X91062000Y-99838500I0J-237500D01*
G01*
G37*
G36*
G01*
X89237000Y-99838500D02*
X89237000Y-100313500D01*
G75*
G02*
X88999500Y-100551000I-237500J0D01*
G01*
X88499500Y-100551000D01*
G75*
G02*
X88262000Y-100313500I0J237500D01*
G01*
X88262000Y-99838500D01*
G75*
G02*
X88499500Y-99601000I237500J0D01*
G01*
X88999500Y-99601000D01*
G75*
G02*
X89237000Y-99838500I0J-237500D01*
G01*
G37*
M02*
